  0
SECTION
  2
HEADER
  9
$ACADVER
  1
AC1032
  9
$ACADMAINTVER
 90
4
  9
$DWGCODEPAGE
  3
ANSI_1252
  9
$LASTSAVEDBY
  1
ezdxf
  9
$REQUIREDVERSIONS
160
0
  9
$INSBASE
 10
0.0
 20
0.0
 30
0.0
  9
$EXTMIN
 10
1e+20
 20
1e+20
 30
1e+20
  9
$EXTMAX
 10
-1e+20
 20
-1e+20
 30
-1e+20
  9
$LIMMIN
 10
0.0
 20
0.0
  9
$LIMMAX
 10
420.0
 20
297.0
  9
$ORTHOMODE
 70
0
  9
$REGENMODE
 70
1
  9
$FILLMODE
 70
1
  9
$QTEXTMODE
 70
0
  9
$MIRRTEXT
 70
1
  9
$LTSCALE
 40
1.0
  9
$ATTMODE
 70
1
  9
$TEXTSIZE
 40
2.5
  9
$TRACEWID
 40
1.0
  9
$TEXTSTYLE
  7
OpenSans
  9
$CLAYER
  8
0
  9
$CELTYPE
  6
ByLayer
  9
$CECOLOR
 62
256
  9
$CELTSCALE
 40
1.0
  9
$DISPSILH
 70
0
  9
$DIMSCALE
 40
1.0
  9
$DIMASZ
 40
0.175
  9
$DIMEXO
 40
0.125
  9
$DIMDLI
 40
3.75
  9
$DIMRND
 40
0.0
  9
$DIMDLE
 40
0.0
  9
$DIMEXE
 40
0.375
  9
$DIMTP
 40
0.0
  9
$DIMTM
 40
0.0
  9
$DIMTXT
 40
0.25
  9
$DIMCEN
 40
2.5
  9
$DIMTSZ
 40
0.0
  9
$DIMTOL
 70
0
  9
$DIMLIM
 70
0
  9
$DIMTIH
 70
0
  9
$DIMTOH
 70
0
  9
$DIMSE1
 70
0
  9
$DIMSE2
 70
0
  9
$DIMTAD
 70
1
  9
$DIMZIN
 70
12
  9
$DIMBLK
  1
ARCHTICK
  9
$DIMASO
 70
1
  9
$DIMSHO
 70
1
  9
$DIMPOST
  1

  9
$DIMAPOST
  1

  9
$DIMALT
 70
0
  9
$DIMALTD
 70
3
  9
$DIMALTF
 40
0.03937007874
  9
$DIMLFAC
 40
100.0
  9
$DIMTOFL
 70
1
  9
$DIMTVP
 40
0.0
  9
$DIMTIX
 70
0
  9
$DIMSOXD
 70
0
  9
$DIMSAH
 70
0
  9
$DIMBLK1
  1

  9
$DIMBLK2
  1

  9
$DIMSTYLE
  2
EZDXF
  9
$DIMCLRD
 70
0
  9
$DIMCLRE
 70
0
  9
$DIMCLRT
 70
0
  9
$DIMTFAC
 40
0.5
  9
$DIMGAP
 40
0.1
  9
$DIMJUST
 70
0
  9
$DIMSD1
 70
0
  9
$DIMSD2
 70
0
  9
$DIMTOLJ
 70
0
  9
$DIMTZIN
 70
8
  9
$DIMALTZ
 70
0
  9
$DIMALTTZ
 70
0
  9
$DIMUPT
 70
1
  9
$DIMDEC
 70
2
  9
$DIMTDEC
 70
2
  9
$DIMALTU
 70
2
  9
$DIMALTTD
 70
3
  9
$DIMTXSTY
  7
OpenSansCondensed-Light
  9
$DIMAUNIT
 70
0
  9
$DIMADEC
 70
2
  9
$DIMALTRND
 40
0.0
  9
$DIMAZIN
 70
3
  9
$DIMDSEP
 70
46
  9
$DIMATFIT
 70
3
  9
$DIMFRAC
 70
0
  9
$DIMLDRBLK
  1

  9
$DIMLUNIT
 70
2
  9
$DIMLWD
 70
-2
  9
$DIMLWE
 70
-2
  9
$DIMTMOVE
 70
2
  9
$DIMFXL
 40
1.0
  9
$DIMFXLON
 70
0
  9
$DIMJOGANG
 40
0.785398163397
  9
$DIMTFILL
 70
0
  9
$DIMTFILLCLR
 70
0
  9
$DIMARCSYM
 70
0
  9
$DIMLTYPE
  6

  9
$DIMLTEX1
  6

  9
$DIMLTEX2
  6

  9
$DIMTXTDIRECTION
 70
0
  9
$LUNITS
 70
2
  9
$LUPREC
 70
4
  9
$SKETCHINC
 40
1.0
  9
$FILLETRAD
 40
10.0
  9
$AUNITS
 70
0
  9
$AUPREC
 70
2
  9
$MENU
  1
.
  9
$ELEVATION
 40
0.0
  9
$PELEVATION
 40
0.0
  9
$THICKNESS
 40
0.0
  9
$LIMCHECK
 70
0
  9
$CHAMFERA
 40
0.0
  9
$CHAMFERB
 40
0.0
  9
$CHAMFERC
 40
0.0
  9
$CHAMFERD
 40
0.0
  9
$SKPOLY
 70
0
  9
$TDCREATE
 40
2461089.5733796298
  9
$TDUCREATE
 40
2458532.153996898
  9
$TDUPDATE
 40
2461089.5733796298
  9
$TDUUPDATE
 40
2458532.1544311
  9
$TDINDWG
 40
0.0
  9
$TDUSRTIMER
 40
0.0
  9
$USRTIMER
 70
1
  9
$ANGBASE
 50
0.0
  9
$ANGDIR
 70
0
  9
$PDMODE
 70
0
  9
$PDSIZE
 40
0.0
  9
$PLINEWID
 40
0.0
  9
$SPLFRAME
 70
0
  9
$SPLINETYPE
 70
6
  9
$SPLINESEGS
 70
8
  9
$HANDSEED
  5
32A
  9
$SURFTAB1
 70
6
  9
$SURFTAB2
 70
6
  9
$SURFTYPE
 70
6
  9
$SURFU
 70
6
  9
$SURFV
 70
6
  9
$UCSBASE
  2

  9
$UCSNAME
  2

  9
$UCSORG
 10
0.0
 20
0.0
 30
0.0
  9
$UCSXDIR
 10
1.0
 20
0.0
 30
0.0
  9
$UCSYDIR
 10
0.0
 20
1.0
 30
0.0
  9
$UCSORTHOREF
  2

  9
$UCSORTHOVIEW
 70
0
  9
$UCSORGTOP
 10
0.0
 20
0.0
 30
0.0
  9
$UCSORGBOTTOM
 10
0.0
 20
0.0
 30
0.0
  9
$UCSORGLEFT
 10
0.0
 20
0.0
 30
0.0
  9
$UCSORGRIGHT
 10
0.0
 20
0.0
 30
0.0
  9
$UCSORGFRONT
 10
0.0
 20
0.0
 30
0.0
  9
$UCSORGBACK
 10
0.0
 20
0.0
 30
0.0
  9
$PUCSBASE
  2

  9
$PUCSNAME
  2

  9
$PUCSORG
 10
0.0
 20
0.0
 30
0.0
  9
$PUCSXDIR
 10
1.0
 20
0.0
 30
0.0
  9
$PUCSYDIR
 10
0.0
 20
1.0
 30
0.0
  9
$PUCSORTHOREF
  2

  9
$PUCSORTHOVIEW
 70
0
  9
$PUCSORGTOP
 10
0.0
 20
0.0
 30
0.0
  9
$PUCSORGBOTTOM
 10
0.0
 20
0.0
 30
0.0
  9
$PUCSORGLEFT
 10
0.0
 20
0.0
 30
0.0
  9
$PUCSORGRIGHT
 10
0.0
 20
0.0
 30
0.0
  9
$PUCSORGFRONT
 10
0.0
 20
0.0
 30
0.0
  9
$PUCSORGBACK
 10
0.0
 20
0.0
 30
0.0
  9
$USERI1
 70
0
  9
$USERI2
 70
0
  9
$USERI3
 70
0
  9
$USERI4
 70
0
  9
$USERI5
 70
0
  9
$USERR1
 40
0.0
  9
$USERR2
 40
0.0
  9
$USERR3
 40
0.0
  9
$USERR4
 40
0.0
  9
$USERR5
 40
0.0
  9
$WORLDVIEW
 70
1
  9
$SHADEDGE
 70
3
  9
$SHADEDIF
 70
70
  9
$TILEMODE
 70
1
  9
$MAXACTVP
 70
64
  9
$PINSBASE
 10
0.0
 20
0.0
 30
0.0
  9
$PLIMCHECK
 70
0
  9
$PEXTMIN
 10
1e+20
 20
1e+20
 30
1e+20
  9
$PEXTMAX
 10
-1e+20
 20
-1e+20
 30
-1e+20
  9
$PLIMMIN
 10
0.0
 20
0.0
  9
$PLIMMAX
 10
420.0
 20
297.0
  9
$UNITMODE
 70
0
  9
$VISRETAIN
 70
1
  9
$PLINEGEN
 70
0
  9
$PSLTSCALE
 70
1
  9
$TREEDEPTH
 70
3020
  9
$CMLSTYLE
  2
Standard
  9
$CMLJUST
 70
0
  9
$CMLSCALE
 40
20.0
  9
$PROXYGRAPHICS
 70
1
  9
$MEASUREMENT
 70
1
  9
$CELWEIGHT
370
-1
  9
$ENDCAPS
280
0
  9
$JOINSTYLE
280
0
  9
$LWDISPLAY
290
0
  9
$INSUNITS
 70
6
  9
$HYPERLINKBASE
  1

  9
$STYLESHEET
  1

  9
$XEDIT
290
1
  9
$CEPSNTYPE
380
0
  9
$PSTYLEMODE
290
1
  9
$FINGERPRINTGUID
  2
{FF985EBA-A682-47F9-8242-0A95855971A4}
  9
$VERSIONGUID
  2
{A0057F18-8F6E-4C3A-BB0D-29697EF9B768}
  9
$EXTNAMES
290
1
  9
$PSVPSCALE
 40
0.0
  9
$OLESTARTUP
290
0
  9
$SORTENTS
280
127
  9
$INDEXCTL
280
0
  9
$HIDETEXT
280
1
  9
$XCLIPFRAME
280
1
  9
$HALOGAP
280
0
  9
$OBSCOLOR
 70
257
  9
$OBSLTYPE
280
0
  9
$INTERSECTIONDISPLAY
280
0
  9
$INTERSECTIONCOLOR
 70
257
  9
$DIMASSOC
280
2
  9
$PROJECTNAME
  1

  9
$CAMERADISPLAY
290
0
  9
$LENSLENGTH
 40
50.0
  9
$CAMERAHEIGHT
 40
0.0
  9
$STEPSPERSEC
 40
24.0
  9
$STEPSIZE
 40
100.0
  9
$3DDWFPREC
 40
2.0
  9
$PSOLWIDTH
 40
0.005
  9
$PSOLHEIGHT
 40
0.08
  9
$LOFTANG1
 40
1.570796326795
  9
$LOFTANG2
 40
1.570796326795
  9
$LOFTMAG1
 40
0.0
  9
$LOFTMAG2
 40
0.0
  9
$LOFTPARAM
 70
7
  9
$LOFTNORMALS
280
1
  9
$LATITUDE
 40
37.795
  9
$LONGITUDE
 40
-122.394
  9
$NORTHDIRECTION
 40
0.0
  9
$TIMEZONE
 70
-8000
  9
$LIGHTGLYPHDISPLAY
280
1
  9
$TILEMODELIGHTSYNCH
280
1
  9
$CMATERIAL
347
20
  9
$SOLIDHIST
280
0
  9
$SHOWHIST
280
1
  9
$DWFFRAME
280
2
  9
$DGNFRAME
280
2
  9
$REALWORLDSCALE
290
1
  9
$INTERFERECOLOR
 62
256
  9
$CSHADOW
280
0
  9
$SHADOWPLANELOCATION
 40
0.0
  0
ENDSEC
  0
SECTION
  2
CLASSES
  0
CLASS
  1
ACDBDICTIONARYWDFLT
  2
AcDbDictionaryWithDefault
  3
ObjectDBX Classes
 90
0
 91
0
280
0
281
0
  0
CLASS
  1
SUN
  2
AcDbSun
  3
SCENEOE
 90
1153
 91
0
280
0
281
0
  0
CLASS
  1
VISUALSTYLE
  2
AcDbVisualStyle
  3
ObjectDBX Classes
 90
4095
 91
0
280
0
281
0
  0
CLASS
  1
MATERIAL
  2
AcDbMaterial
  3
ObjectDBX Classes
 90
1153
 91
0
280
0
281
0
  0
CLASS
  1
SCALE
  2
AcDbScale
  3
ObjectDBX Classes
 90
1153
 91
0
280
0
281
0
  0
CLASS
  1
TABLESTYLE
  2
AcDbTableStyle
  3
ObjectDBX Classes
 90
4095
 91
0
280
0
281
0
  0
CLASS
  1
MLEADERSTYLE
  2
AcDbMLeaderStyle
  3
ACDB_MLEADERSTYLE_CLASS
 90
4095
 91
0
280
0
281
0
  0
CLASS
  1
DICTIONARYVAR
  2
AcDbDictionaryVar
  3
ObjectDBX Classes
 90
0
 91
0
280
0
281
0
  0
CLASS
  1
CELLSTYLEMAP
  2
AcDbCellStyleMap
  3
ObjectDBX Classes
 90
1152
 91
0
280
0
281
0
  0
CLASS
  1
MENTALRAYRENDERSETTINGS
  2
AcDbMentalRayRenderSettings
  3
SCENEOE
 90
1024
 91
0
280
0
281
0
  0
CLASS
  1
ACDBDETAILVIEWSTYLE
  2
AcDbDetailViewStyle
  3
ObjectDBX Classes
 90
1025
 91
0
280
0
281
0
  0
CLASS
  1
ACDBSECTIONVIEWSTYLE
  2
AcDbSectionViewStyle
  3
ObjectDBX Classes
 90
1025
 91
0
280
0
281
0
  0
CLASS
  1
RASTERVARIABLES
  2
AcDbRasterVariables
  3
ISM
 90
0
 91
0
280
0
281
0
  0
CLASS
  1
LAYOUT
  2
AcDbLayout
  3
ObjectDBX Classes
 90
0
 91
0
280
0
281
0
  0
CLASS
  1
ACDBPLACEHOLDER
  2
AcDbPlaceHolder
  3
ObjectDBX Classes
 90
0
 91
0
280
0
281
0
  0
ENDSEC
  0
SECTION
  2
TABLES
  0
TABLE
  2
VPORT
  5
8
330
0
100
AcDbSymbolTable
 70
1
  0
VPORT
  5
23
330
8
100
AcDbSymbolTableRecord
100
AcDbViewportTableRecord
  2
*Active
 70
0
 10
0.0
 20
0.0
 11
1.0
 21
1.0
 12
0.0
 22
0.0
 13
0.0
 23
0.0
 14
0.5
 24
0.5
 15
0.5
 25
0.5
 16
0.0
 26
0.0
 36
1.0
 17
0.0
 27
0.0
 37
0.0
 40
1000.0
 41
1.34
 42
50.0
 43
0.0
 44
0.0
 50
0.0
 51
0.0
 71
0
 72
1000
 73
1
 74
3
 75
0
 76
0
 77
0
 78
0
281
0
 65
0
146
0.0
  0
ENDTAB
  0
TABLE
  2
LTYPE
  5
2
330
0
100
AcDbSymbolTable
 70
21
  0
LTYPE
  5
24
330
2
100
AcDbSymbolTableRecord
100
AcDbLinetypeTableRecord
  2
ByBlock
 70
0
  3

 72
65
 73
0
 40
0.0
  0
LTYPE
  5
25
330
2
100
AcDbSymbolTableRecord
100
AcDbLinetypeTableRecord
  2
ByLayer
 70
0
  3

 72
65
 73
0
 40
0.0
  0
LTYPE
  5
26
330
2
100
AcDbSymbolTableRecord
100
AcDbLinetypeTableRecord
  2
Continuous
 70
0
  3

 72
65
 73
0
 40
0.0
  0
LTYPE
  5
2F
330
2
100
AcDbSymbolTableRecord
100
AcDbLinetypeTableRecord
  2
CENTER
 70
0
  3
Center ____ _ ____ _ ____ _ ____ _ ____ _ ____
 72
65
 73
4
 40
5.08
 49
3.175
 74
0
 49
-0.635
 74
0
 49
0.635
 74
0
 49
-0.635
 74
0
  0
LTYPE
  5
30
330
2
100
AcDbSymbolTableRecord
100
AcDbLinetypeTableRecord
  2
CENTERX2
 70
0
  3
Center (2x) ________  __  ________  __  ________
 72
65
 73
4
 40
8.89
 49
6.35
 74
0
 49
-0.635
 74
0
 49
1.27
 74
0
 49
-0.635
 74
0
  0
LTYPE
  5
31
330
2
100
AcDbSymbolTableRecord
100
AcDbLinetypeTableRecord
  2
CENTER2
 70
0
  3
Center (.5x) ____ _ ____ _ ____ _ ____ _ ____
 72
65
 73
4
 40
2.54
 49
1.587
 74
0
 49
-0.318
 74
0
 49
0.318
 74
0
 49
-0.318
 74
0
  0
LTYPE
  5
32
330
2
100
AcDbSymbolTableRecord
100
AcDbLinetypeTableRecord
  2
DASHED
 70
0
  3
Dashed __ __ __ __ __ __ __ __ __ __ __ __ __ _
 72
65
 73
2
 40
1.524
 49
1.27
 74
0
 49
-0.254
 74
0
  0
LTYPE
  5
33
330
2
100
AcDbSymbolTableRecord
100
AcDbLinetypeTableRecord
  2
DASHEDX2
 70
0
  3
Dashed (2x) ____  ____  ____  ____  ____  ____
 72
65
 73
2
 40
3.048
 49
2.54
 74
0
 49
-0.508
 74
0
  0
LTYPE
  5
34
330
2
100
AcDbSymbolTableRecord
100
AcDbLinetypeTableRecord
  2
DASHED2
 70
0
  3
Dashed (.5x) _ _ _ _ _ _ _ _ _ _ _ _ _ _
 72
65
 73
2
 40
0.762
 49
0.635
 74
0
 49
-0.127
 74
0
  0
LTYPE
  5
35
330
2
100
AcDbSymbolTableRecord
100
AcDbLinetypeTableRecord
  2
PHANTOM
 70
0
  3
Phantom ______  __  __  ______  __  __  ______
 72
65
 73
6
 40
6.35
 49
3.175
 74
0
 49
-0.635
 74
0
 49
0.635
 74
0
 49
-0.635
 74
0
 49
0.635
 74
0
 49
-0.635
 74
0
  0
LTYPE
  5
36
330
2
100
AcDbSymbolTableRecord
100
AcDbLinetypeTableRecord
  2
PHANTOMX2
 70
0
  3
Phantom (2x)____________    ____    ____    ____________
 72
65
 73
6
 40
10.795
 49
6.35
 74
0
 49
-0.635
 74
0
 49
1.27
 74
0
 49
-0.635
 74
0
 49
1.27
 74
0
 49
-0.635
 74
0
  0
LTYPE
  5
37
330
2
100
AcDbSymbolTableRecord
100
AcDbLinetypeTableRecord
  2
PHANTOM2
 70
0
  3
Phantom (.5x) ___ _ _ ___ _ _ ___ _ _ ___ _ _ ___
 72
65
 73
6
 40
3.175
 49
1.587
 74
0
 49
-0.318
 74
0
 49
0.318
 74
0
 49
-0.318
 74
0
 49
0.318
 74
0
 49
-0.318
 74
0
  0
LTYPE
  5
38
330
2
100
AcDbSymbolTableRecord
100
AcDbLinetypeTableRecord
  2
DASHDOT
 70
0
  3
Dash dot __ . __ . __ . __ . __ . __ . __ . __
 72
65
 73
4
 40
3.556
 49
2.54
 74
0
 49
-0.508
 74
0
 49
0.0
 74
0
 49
-0.508
 74
0
  0
LTYPE
  5
39
330
2
100
AcDbSymbolTableRecord
100
AcDbLinetypeTableRecord
  2
DASHDOTX2
 70
0
  3
Dash dot (2x) ____  .  ____  .  ____  .  ____
 72
65
 73
4
 40
6.096
 49
5.08
 74
0
 49
-0.508
 74
0
 49
0.0
 74
0
 49
-0.508
 74
0
  0
LTYPE
  5
3A
330
2
100
AcDbSymbolTableRecord
100
AcDbLinetypeTableRecord
  2
DASHDOT2
 70
0
  3
Dash dot (.5x) _ . _ . _ . _ . _ . _ . _ . _
 72
65
 73
4
 40
1.778
 49
1.27
 74
0
 49
-0.254
 74
0
 49
0.0
 74
0
 49
-0.254
 74
0
  0
LTYPE
  5
3B
330
2
100
AcDbSymbolTableRecord
100
AcDbLinetypeTableRecord
  2
DOT
 70
0
  3
Dot .  .  .  .  .  .  .  .  .  .  .  .  .  .  .  .
 72
65
 73
2
 40
0.508
 49
0.0
 74
0
 49
-0.508
 74
0
  0
LTYPE
  5
3C
330
2
100
AcDbSymbolTableRecord
100
AcDbLinetypeTableRecord
  2
DOTX2
 70
0
  3
Dot (2x) .    .    .    .    .    .    .    . 
 72
65
 73
2
 40
1.016
 49
0.0
 74
0
 49
-1.016
 74
0
  0
LTYPE
  5
3D
330
2
100
AcDbSymbolTableRecord
100
AcDbLinetypeTableRecord
  2
DOT2
 70
0
  3
Dot (.5) . . . . . . . . . . . . . . . . . . . 
 72
65
 73
2
 40
0.254
 49
0.0
 74
0
 49
-0.254
 74
0
  0
LTYPE
  5
3E
330
2
100
AcDbSymbolTableRecord
100
AcDbLinetypeTableRecord
  2
DIVIDE
 70
0
  3
Divide __ . . __ . . __ . . __ . . __ . . __
 72
65
 73
6
 40
4.064
 49
2.54
 74
0
 49
-0.508
 74
0
 49
0.0
 74
0
 49
-0.508
 74
0
 49
0.0
 74
0
 49
-0.508
 74
0
  0
LTYPE
  5
3F
330
2
100
AcDbSymbolTableRecord
100
AcDbLinetypeTableRecord
  2
DIVIDEX2
 70
0
  3
Divide (2x) ____  . .  ____  . .  ____  . .  ____
 72
65
 73
6
 40
6.604
 49
5.08
 74
0
 49
-0.508
 74
0
 49
0.0
 74
0
 49
-0.508
 74
0
 49
0.0
 74
0
 49
-0.508
 74
0
  0
LTYPE
  5
40
330
2
100
AcDbSymbolTableRecord
100
AcDbLinetypeTableRecord
  2
DIVIDE2
 70
0
  3
Divide(.5x) _ . _ . _ . _ . _ . _ . _ . _
 72
65
 73
6
 40
2.032
 49
1.27
 74
0
 49
-0.254
 74
0
 49
0.0
 74
0
 49
-0.254
 74
0
 49
0.0
 74
0
 49
-0.254
 74
0
  0
ENDTAB
  0
TABLE
  2
LAYER
  5
1
330
0
100
AcDbSymbolTable
 70
9
  0
LAYER
  5
27
330
1
100
AcDbSymbolTableRecord
100
AcDbLayerTableRecord
  2
0
 70
0
 62
7
  6
Continuous
370
-3
390
13
347
21
  0
LAYER
  5
28
330
1
100
AcDbSymbolTableRecord
100
AcDbLayerTableRecord
  2
Defpoints
 70
0
 62
7
  6
Continuous
290
0
370
-3
390
13
347
21
  0
LAYER
  5
8A
330
1
100
AcDbSymbolTableRecord
100
AcDbLayerTableRecord
  2
TC
 70
0
 62
4
  6
Continuous
370
-1
390
13
347
21
1001
AcCmTransparency
1071
33554687
  0
LAYER
  5
8C
330
1
100
AcDbSymbolTableRecord
100
AcDbLayerTableRecord
  2
2Y
 70
0
 62
2
  6
Continuous
370
-1
390
13
347
21
1001
AcCmTransparency
1071
33554687
  0
LAYER
  5
8D
330
1
100
AcDbSymbolTableRecord
100
AcDbLayerTableRecord
  2
3G
 70
0
 62
3
  6
Continuous
370
-1
390
13
347
21
1001
AcCmTransparency
1071
33554687
  0
LAYER
  5
8E
330
1
100
AcDbSymbolTableRecord
100
AcDbLayerTableRecord
  2
6M
 70
0
 62
6
  6
Continuous
370
-1
390
13
347
21
1001
AcCmTransparency
1071
33554687
  0
LAYER
  5
8F
330
1
100
AcDbSymbolTableRecord
100
AcDbLayerTableRecord
  2
TM
 70
0
 62
6
  6
Continuous
370
-1
390
13
347
21
1001
AcCmTransparency
1071
33554687
  0
LAYER
  5
90
330
1
100
AcDbSymbolTableRecord
100
AcDbLayerTableRecord
  2
SHE
 70
0
 62
8
  6
Continuous
370
-1
390
13
347
21
1001
AcCmTransparency
1071
33554687
  0
LAYER
  5
91
330
1
100
AcDbSymbolTableRecord
100
AcDbLayerTableRecord
  2
5B
 70
0
 62
5
  6
Continuous
370
-1
390
13
347
21
1001
AcCmTransparency
1071
33554687
  0
ENDTAB
  0
TABLE
  2
STYLE
  5
5
330
0
100
AcDbSymbolTable
 70
30
  0
STYLE
  5
29
330
5
100
AcDbSymbolTableRecord
100
AcDbTextStyleTableRecord
  2
Standard
 70
0
 40
0.0
 41
1.0
 50
0.0
 71
0
 42
2.5
  3
txt
  4

  0
STYLE
  5
41
330
5
100
AcDbSymbolTableRecord
100
AcDbTextStyleTableRecord
  2
OpenSans-Light
 70
0
 40
0.0
 41
1.0
 50
0.0
 71
0
 42
2.5
  3
OpenSans-Light.ttf
  4

  0
STYLE
  5
42
330
5
100
AcDbSymbolTableRecord
100
AcDbTextStyleTableRecord
  2
OpenSans-Light-Italic
 70
0
 40
0.0
 41
1.0
 50
0.0
 71
0
 42
2.5
  3
OpenSans-LightItalic.ttf
  4

  0
STYLE
  5
43
330
5
100
AcDbSymbolTableRecord
100
AcDbTextStyleTableRecord
  2
OpenSans
 70
0
 40
0.0
 41
1.0
 50
0.0
 71
0
 42
2.5
  3
OpenSans-Regular.ttf
  4

  0
STYLE
  5
44
330
5
100
AcDbSymbolTableRecord
100
AcDbTextStyleTableRecord
  2
OpenSans-Italic
 70
0
 40
0.0
 41
1.0
 50
0.0
 71
0
 42
2.5
  3
OpenSans-Italic.ttf
  4

  0
STYLE
  5
45
330
5
100
AcDbSymbolTableRecord
100
AcDbTextStyleTableRecord
  2
OpenSans-SemiBold
 70
0
 40
0.0
 41
1.0
 50
0.0
 71
0
 42
2.5
  3
OpenSans-SemiBold.ttf
  4

  0
STYLE
  5
46
330
5
100
AcDbSymbolTableRecord
100
AcDbTextStyleTableRecord
  2
OpenSans-SemiBoldItalic
 70
0
 40
0.0
 41
1.0
 50
0.0
 71
0
 42
2.5
  3
OpenSans-SemiBoldItalic.ttf
  4

  0
STYLE
  5
47
330
5
100
AcDbSymbolTableRecord
100
AcDbTextStyleTableRecord
  2
OpenSans-Bold
 70
0
 40
0.0
 41
1.0
 50
0.0
 71
0
 42
2.5
  3
OpenSans-Bold.ttf
  4

  0
STYLE
  5
48
330
5
100
AcDbSymbolTableRecord
100
AcDbTextStyleTableRecord
  2
OpenSans-BoldItalic
 70
0
 40
0.0
 41
1.0
 50
0.0
 71
0
 42
2.5
  3
OpenSans-BoldItalic.ttf
  4

  0
STYLE
  5
49
330
5
100
AcDbSymbolTableRecord
100
AcDbTextStyleTableRecord
  2
OpenSans-ExtraBold
 70
0
 40
0.0
 41
1.0
 50
0.0
 71
0
 42
2.5
  3
OpenSans-ExtraBold.ttf
  4

  0
STYLE
  5
4A
330
5
100
AcDbSymbolTableRecord
100
AcDbTextStyleTableRecord
  2
OpenSans-ExtraBoldItalic
 70
0
 40
0.0
 41
1.0
 50
0.0
 71
0
 42
2.5
  3
OpenSans-ExtraBoldItalic.ttf
  4

  0
STYLE
  5
4B
330
5
100
AcDbSymbolTableRecord
100
AcDbTextStyleTableRecord
  2
OpenSansCondensed-Bold
 70
0
 40
0.0
 41
1.0
 50
0.0
 71
0
 42
2.5
  3
OpenSansCondensed-Bold.ttf
  4

  0
STYLE
  5
4C
330
5
100
AcDbSymbolTableRecord
100
AcDbTextStyleTableRecord
  2
OpenSansCondensed-Light
 70
0
 40
0.0
 41
1.0
 50
0.0
 71
0
 42
2.5
  3
OpenSansCondensed-Light.ttf
  4

  0
STYLE
  5
4D
330
5
100
AcDbSymbolTableRecord
100
AcDbTextStyleTableRecord
  2
OpenSansCondensed-Italic
 70
0
 40
0.0
 41
1.0
 50
0.0
 71
0
 42
2.5
  3
OpenSansCondensed-LightItalic.ttf
  4

  0
STYLE
  5
4E
330
5
100
AcDbSymbolTableRecord
100
AcDbTextStyleTableRecord
  2
LiberationSans
 70
0
 40
0.0
 41
1.0
 50
0.0
 71
0
 42
2.5
  3
LiberationSans-Regular.ttf
  4

  0
STYLE
  5
4F
330
5
100
AcDbSymbolTableRecord
100
AcDbTextStyleTableRecord
  2
LiberationSans-Bold
 70
0
 40
0.0
 41
1.0
 50
0.0
 71
0
 42
2.5
  3
LiberationSans-Bold.ttf
  4

  0
STYLE
  5
50
330
5
100
AcDbSymbolTableRecord
100
AcDbTextStyleTableRecord
  2
LiberationSans-BoldItalic
 70
0
 40
0.0
 41
1.0
 50
0.0
 71
0
 42
2.5
  3
LiberationSans-BoldItalic.ttf
  4

  0
STYLE
  5
51
330
5
100
AcDbSymbolTableRecord
100
AcDbTextStyleTableRecord
  2
LiberationSans-Italic
 70
0
 40
0.0
 41
1.0
 50
0.0
 71
0
 42
2.5
  3
LiberationSans-Italic.ttf
  4

  0
STYLE
  5
52
330
5
100
AcDbSymbolTableRecord
100
AcDbTextStyleTableRecord
  2
LiberationSerif
 70
0
 40
0.0
 41
1.0
 50
0.0
 71
0
 42
2.5
  3
LiberationSerif-Regular.ttf
  4

  0
STYLE
  5
53
330
5
100
AcDbSymbolTableRecord
100
AcDbTextStyleTableRecord
  2
LiberationSerif-Bold
 70
0
 40
0.0
 41
1.0
 50
0.0
 71
0
 42
2.5
  3
LiberationSerif-Bold.ttf
  4

  0
STYLE
  5
54
330
5
100
AcDbSymbolTableRecord
100
AcDbTextStyleTableRecord
  2
LiberationSerif-BoldItalic
 70
0
 40
0.0
 41
1.0
 50
0.0
 71
0
 42
2.5
  3
LiberationSerif-BoldItalic.ttf
  4

  0
STYLE
  5
55
330
5
100
AcDbSymbolTableRecord
100
AcDbTextStyleTableRecord
  2
LiberationSerif-Italic
 70
0
 40
0.0
 41
1.0
 50
0.0
 71
0
 42
2.5
  3
LiberationSerif-Italic.ttf
  4

  0
STYLE
  5
56
330
5
100
AcDbSymbolTableRecord
100
AcDbTextStyleTableRecord
  2
LiberationMono
 70
0
 40
0.0
 41
1.0
 50
0.0
 71
0
 42
2.5
  3
LiberationMono-Regular.ttf
  4

  0
STYLE
  5
57
330
5
100
AcDbSymbolTableRecord
100
AcDbTextStyleTableRecord
  2
LiberationMono-Bold
 70
0
 40
0.0
 41
1.0
 50
0.0
 71
0
 42
2.5
  3
LiberationMono-Bold.ttf
  4

  0
STYLE
  5
58
330
5
100
AcDbSymbolTableRecord
100
AcDbTextStyleTableRecord
  2
LiberationMono-BoldItalic
 70
0
 40
0.0
 41
1.0
 50
0.0
 71
0
 42
2.5
  3
LiberationMono-BoldItalic.ttf
  4

  0
STYLE
  5
59
330
5
100
AcDbSymbolTableRecord
100
AcDbTextStyleTableRecord
  2
LiberationMono-Italic
 70
0
 40
0.0
 41
1.0
 50
0.0
 71
0
 42
2.5
  3
LiberationMono-Italic.ttf
  4

  0
STYLE
  5
92
330
5
100
AcDbSymbolTableRecord
100
AcDbTextStyleTableRecord
  2
ROMANS
 70
0
 40
0.0
 41
0.9
 50
0.0
 71
0
 42
2.5
  3
romans.shx
  4

  0
STYLE
  5
93
330
5
100
AcDbSymbolTableRecord
100
AcDbTextStyleTableRecord
  2
100CL
 70
0
 40
250.0
 41
1.0
 50
0.0
 71
0
 42
2.5
  3
romans.shx
  4

  0
STYLE
  5
94
330
5
100
AcDbSymbolTableRecord
100
AcDbTextStyleTableRecord
  2
240CL
 70
0
 40
0.6
 41
1.0
 50
0.0
 71
0
 42
2.5
  3
ROMANS.shx
  4

  0
STYLE
  5
95
330
5
100
AcDbSymbolTableRecord
100
AcDbTextStyleTableRecord
  2
R300
 70
0
 40
300.0
 41
0.9
 50
0.0
 71
0
 42
2.5
  3
romans.shx
  4

  0
ENDTAB
  0
TABLE
  2
VIEW
  5
7
330
0
100
AcDbSymbolTable
 70
0
  0
ENDTAB
  0
TABLE
  2
UCS
  5
6
330
0
100
AcDbSymbolTable
 70
0
  0
ENDTAB
  0
TABLE
  2
APPID
  5
3
330
0
100
AcDbSymbolTable
 70
4
  0
APPID
  5
2A
330
3
100
AcDbSymbolTableRecord
100
AcDbRegAppTableRecord
  2
ACAD
 70
0
  0
APPID
  5
8B
330
3
100
AcDbSymbolTableRecord
100
AcDbRegAppTableRecord
  2
AcCmTransparency
 70
0
  0
APPID
  5
327
330
3
100
AcDbSymbolTableRecord
100
AcDbRegAppTableRecord
  2
HATCHBACKGROUNDCOLOR
 70
0
  0
APPID
  5
328
330
3
100
AcDbSymbolTableRecord
100
AcDbRegAppTableRecord
  2
EZDXF
 70
0
  0
ENDTAB
  0
TABLE
  2
DIMSTYLE
  5
4
330
0
100
AcDbSymbolTable
 70
12
100
AcDbDimStyleTable
  0
DIMSTYLE
105
2B
330
4
100
AcDbSymbolTableRecord
100
AcDbDimStyleTableRecord
  2
Standard
 70
0
 40
1.0
 41
2.5
 42
0.625
 43
3.75
 44
1.25
 45
0.0
 46
0.0
 47
0.0
 48
0.0
 49
2.5
140
2.5
141
2.5
142
0.0
143
0.03937007874
144
1.0
145
0.0
146
1.0
147
0.625
148
0.0
 69
0
 70
0
 71
0
 72
0
 73
0
 74
0
 75
0
 76
0
 77
1
 78
8
 79
3
170
0
171
3
172
1
173
0
174
0
175
0
176
0
177
0
178
0
179
2
271
2
272
2
273
2
274
3
275
0
276
0
277
2
278
44
279
0
280
0
281
0
282
0
283
0
284
8
285
0
286
0
288
0
289
3
290
0
371
-2
372
-2
  0
DIMSTYLE
105
73
330
4
100
AcDbSymbolTableRecord
100
AcDbDimStyleTableRecord
  2
EZDXF
 70
0
 40
1.0
 41
0.175
 42
0.125
 43
3.75
 44
0.375
 45
0.0
 46
0.0
 47
0.0
 48
0.0
 49
2.5
140
0.25
141
2.5
142
0.0
143
0.03937007874
144
100.0
145
0.0
146
0.5
147
0.1
148
0.0
 69
0
 70
0
 71
0
 72
0
 73
0
 74
0
 75
0
 76
0
 77
1
 78
12
 79
3
170
0
171
3
172
1
173
0
174
0
175
0
176
0
177
0
178
0
179
2
271
2
272
2
273
2
274
3
275
0
276
0
277
2
278
46
279
2
280
0
281
0
282
0
283
0
284
8
285
0
286
0
288
1
289
3
290
0
340
4C
342
74
371
-2
372
-2
  0
DIMSTYLE
105
7C
330
4
100
AcDbSymbolTableRecord
100
AcDbDimStyleTableRecord
  2
EZ_M_100_H25_CM
 70
0
 40
1.0
 41
0.25
 42
0.125
 43
3.75
 44
0.375
 45
0.0
 46
0.0
 47
0.0
 48
0.0
 49
2.5
140
0.25
141
2.5
142
0.125
143
0.03937007874
144
100.0
145
0.0
146
0.5
147
0.1
148
0.0
 69
0
 70
0
 71
0
 72
0
 73
0
 74
0
 75
0
 76
0
 77
1
 78
12
 79
3
170
0
171
3
172
1
173
0
174
0
175
0
176
0
177
0
178
0
179
2
271
2
272
2
273
2
274
3
275
0
276
0
277
2
278
46
279
2
280
0
281
0
282
0
283
0
284
8
285
0
286
0
288
1
289
3
290
0
340
4C
371
-2
372
-2
  0
DIMSTYLE
105
7D
330
4
100
AcDbSymbolTableRecord
100
AcDbDimStyleTableRecord
  2
EZ_M_50_H25_CM
 70
0
 40
1.0
 41
0.125
 42
0.0625
 43
3.75
 44
0.1875
 45
0.0
 46
0.0
 47
0.0
 48
0.0
 49
2.5
140
0.125
141
2.5
142
0.0625
143
0.03937007874
144
100.0
145
0.0
146
0.5
147
0.05
148
0.0
 69
0
 70
0
 71
0
 72
0
 73
0
 74
0
 75
0
 76
0
 77
1
 78
12
 79
3
170
0
171
3
172
1
173
0
174
0
175
0
176
0
177
0
178
0
179
2
271
2
272
2
273
2
274
3
275
0
276
0
277
2
278
46
279
2
280
0
281
0
282
0
283
0
284
8
285
0
286
0
288
1
289
3
290
0
340
4C
371
-2
372
-2
  0
DIMSTYLE
105
7E
330
4
100
AcDbSymbolTableRecord
100
AcDbDimStyleTableRecord
  2
EZ_M_25_H25_CM
 70
0
 40
1.0
 41
0.0625
 42
0.03125
 43
3.75
 44
0.09375
 45
0.0
 46
0.0
 47
0.0
 48
0.0
 49
2.5
140
0.0625
141
2.5
142
0.03125
143
0.03937007874
144
100.0
145
0.0
146
0.5
147
0.025
148
0.0
 69
0
 70
0
 71
0
 72
0
 73
0
 74
0
 75
0
 76
0
 77
1
 78
12
 79
3
170
0
171
3
172
1
173
0
174
0
175
0
176
0
177
0
178
0
179
2
271
2
272
2
273
2
274
3
275
0
276
0
277
2
278
46
279
2
280
0
281
0
282
0
283
0
284
8
285
0
286
0
288
1
289
3
290
0
340
4C
371
-2
372
-2
  0
DIMSTYLE
105
7F
330
4
100
AcDbSymbolTableRecord
100
AcDbDimStyleTableRecord
  2
EZ_M_20_H25_CM
 70
0
 40
1.0
 41
0.05
 42
0.025
 43
3.75
 44
0.07500000000000001
 45
0.0
 46
0.0
 47
0.0
 48
0.0
 49
2.5
140
0.05
141
2.5
142
0.025
143
0.03937007874
144
100.0
145
0.0
146
0.5
147
0.020000000000000004
148
0.0
 69
0
 70
0
 71
0
 72
0
 73
0
 74
0
 75
0
 76
0
 77
1
 78
12
 79
3
170
0
171
3
172
1
173
0
174
0
175
0
176
0
177
0
178
0
179
2
271
2
272
2
273
2
274
3
275
0
276
0
277
2
278
46
279
2
280
0
281
0
282
0
283
0
284
8
285
0
286
0
288
1
289
3
290
0
340
4C
371
-2
372
-2
  0
DIMSTYLE
105
80
330
4
100
AcDbSymbolTableRecord
100
AcDbDimStyleTableRecord
  2
EZ_M_10_H25_CM
 70
0
 40
1.0
 41
0.025
 42
0.0125
 43
3.75
 44
0.037500000000000006
 45
0.0
 46
0.0
 47
0.0
 48
0.0
 49
2.5
140
0.025
141
2.5
142
0.0125
143
0.03937007874
144
100.0
145
0.0
146
0.5
147
0.010000000000000002
148
0.0
 69
0
 70
0
 71
0
 72
0
 73
0
 74
0
 75
0
 76
0
 77
1
 78
12
 79
3
170
0
171
3
172
1
173
0
174
0
175
0
176
0
177
0
178
0
179
2
271
2
272
2
273
2
274
3
275
0
276
0
277
2
278
46
279
2
280
0
281
0
282
0
283
0
284
8
285
0
286
0
288
1
289
3
290
0
340
4C
371
-2
372
-2
  0
DIMSTYLE
105
81
330
4
100
AcDbSymbolTableRecord
100
AcDbDimStyleTableRecord
  2
EZ_M_5_H25_CM
 70
0
 40
1.0
 41
0.0125
 42
0.00625
 43
3.75
 44
0.018750000000000003
 45
0.0
 46
0.0
 47
0.0
 48
0.0
 49
2.5
140
0.0125
141
2.5
142
0.00625
143
0.03937007874
144
100.0
145
0.0
146
0.5
147
0.005000000000000001
148
0.0
 69
0
 70
0
 71
0
 72
0
 73
0
 74
0
 75
0
 76
0
 77
1
 78
12
 79
3
170
0
171
3
172
1
173
0
174
0
175
0
176
0
177
0
178
0
179
2
271
2
272
2
273
2
274
3
275
0
276
0
277
2
278
46
279
2
280
0
281
0
282
0
283
0
284
8
285
0
286
0
288
1
289
3
290
0
340
4C
371
-2
372
-2
  0
DIMSTYLE
105
82
330
4
100
AcDbSymbolTableRecord
100
AcDbDimStyleTableRecord
  2
EZ_M_1_H25_CM
 70
0
 40
1.0
 41
0.0025
 42
0.00125
 43
3.75
 44
0.00375
 45
0.0
 46
0.0
 47
0.0
 48
0.0
 49
2.5
140
0.0025
141
2.5
142
0.00125
143
0.03937007874
144
100.0
145
0.0
146
0.5
147
0.001
148
0.0
 69
0
 70
0
 71
0
 72
0
 73
0
 74
0
 75
0
 76
0
 77
1
 78
12
 79
3
170
0
171
3
172
1
173
0
174
0
175
0
176
0
177
0
178
0
179
2
271
2
272
2
273
2
274
3
275
0
276
0
277
2
278
46
279
2
280
0
281
0
282
0
283
0
284
8
285
0
286
0
288
1
289
3
290
0
340
4C
371
-2
372
-2
  0
DIMSTYLE
105
83
330
4
100
AcDbSymbolTableRecord
100
AcDbDimStyleTableRecord
  2
EZ_RADIUS
 70
0
 40
1.0
 41
0.25
 42
0.125
 43
3.75
 44
0.375
 45
0.0
 46
0.0
 47
0.0
 48
0.0
 49
2.5
140
0.25
141
0.0
142
0.0
143
0.03937007874
144
100.0
145
0.0
146
0.5
147
0.1
148
0.0
 69
0
 70
0
 71
0
 72
0
 73
0
 74
0
 75
0
 76
0
 77
1
 78
12
 79
3
170
0
171
3
172
0
173
0
174
0
175
0
176
0
177
0
178
0
179
2
271
2
272
2
273
2
274
3
275
0
276
0
277
2
278
46
279
1
280
0
281
0
282
0
283
0
284
8
285
0
286
0
288
1
289
3
290
0
340
4C
342
84
371
-2
372
-2
  0
DIMSTYLE
105
88
330
4
100
AcDbSymbolTableRecord
100
AcDbDimStyleTableRecord
  2
EZ_RADIUS_INSIDE
 70
0
 40
1.0
 41
0.25
 42
0.125
 43
3.75
 44
0.375
 45
0.0
 46
0.0
 47
0.0
 48
0.0
 49
2.5
140
0.25
141
0.0
142
0.0
143
0.03937007874
144
100.0
145
0.0
146
0.5
147
0.1
148
0.0
 69
0
 70
0
 71
0
 72
0
 73
0
 74
0
 75
0
 76
0
 77
0
 78
12
 79
3
170
0
171
3
172
0
173
0
174
1
175
0
176
0
177
0
178
0
179
2
271
2
272
2
273
2
274
3
275
0
276
0
277
2
278
46
279
0
280
0
281
0
282
0
283
0
284
8
285
0
286
0
288
1
289
0
290
0
340
4C
342
84
371
-2
372
-2
  0
DIMSTYLE
105
89
330
4
100
AcDbSymbolTableRecord
100
AcDbDimStyleTableRecord
  2
EZ_CURVED
 70
0
 40
1.0
 41
0.25
 42
0.125
 43
3.75
 44
0.375
 45
0.0
 46
0.0
 47
0.0
 48
0.0
 49
2.5
140
0.25
141
2.5
142
0.0
143
0.03937007874
144
100.0
145
0.0
146
0.5
147
0.1
148
0.0
 69
0
 70
0
 71
0
 72
0
 73
0
 74
0
 75
0
 76
0
 77
1
 78
12
 79
2
 90
2
170
0
171
3
172
1
173
0
174
0
175
0
176
0
177
0
178
0
179
2
271
2
272
2
273
2
274
3
275
0
276
0
277
2
278
46
279
2
280
0
281
0
282
0
283
0
284
8
285
0
286
0
288
1
289
3
290
0
340
4C
371
-2
372
-2
  0
ENDTAB
  0
TABLE
  2
BLOCK_RECORD
  5
9
330
0
100
AcDbSymbolTable
 70
5
  0
BLOCK_RECORD
  5
17
330
9
100
AcDbSymbolTableRecord
100
AcDbBlockTableRecord
  2
*Model_Space
340
1A
 70
0
280
1
281
0
  0
BLOCK_RECORD
  5
1B
330
9
100
AcDbSymbolTableRecord
100
AcDbBlockTableRecord
  2
*Paper_Space
340
1E
 70
0
280
1
281
0
  0
BLOCK_RECORD
  5
74
330
9
100
AcDbSymbolTableRecord
100
AcDbBlockTableRecord
  2
_ARCHTICK
340
0
 70
0
280
1
281
0
  0
BLOCK_RECORD
  5
78
330
9
100
AcDbSymbolTableRecord
100
AcDbBlockTableRecord
  2
_CLOSEDFILLED
340
0
 70
0
280
1
281
0
  0
BLOCK_RECORD
  5
84
330
9
100
AcDbSymbolTableRecord
100
AcDbBlockTableRecord
  2
_CLOSEDBLANK
340
0
 70
0
280
1
281
0
  0
ENDTAB
  0
ENDSEC
  0
SECTION
  2
BLOCKS
  0
BLOCK
  5
18
330
17
100
AcDbEntity
  8
0
100
AcDbBlockBegin
  2
*Model_Space
 70
0
 10
0.0
 20
0.0
 30
0.0
  3
*Model_Space
  1

  0
ENDBLK
  5
19
330
17
100
AcDbEntity
  8
0
100
AcDbBlockEnd
  0
BLOCK
  5
1C
330
1B
100
AcDbEntity
  8
0
100
AcDbBlockBegin
  2
*Paper_Space
 70
0
 10
0.0
 20
0.0
 30
0.0
  3
*Paper_Space
  1

  0
ENDBLK
  5
1D
330
1B
100
AcDbEntity
  8
0
100
AcDbBlockEnd
  0
BLOCK
  5
75
330
74
100
AcDbEntity
  8
0
100
AcDbBlockBegin
  2
_ARCHTICK
 70
0
 10
0.0
 20
0.0
 30
0.0
  3
_ARCHTICK
  1

  0
LWPOLYLINE
  5
77
330
74
100
AcDbEntity
  8
0
  6
BYBLOCK
 62
0
100
AcDbPolyline
 90
2
 70
0
 43
0.15
 10
-0.5
 20
-0.5
 10
0.5
 20
0.5
  0
ENDBLK
  5
76
330
74
100
AcDbEntity
  8
0
100
AcDbBlockEnd
  0
BLOCK
  5
79
330
78
100
AcDbEntity
  8
0
100
AcDbBlockBegin
  2
_CLOSEDFILLED
 70
0
 10
0.0
 20
0.0
 30
0.0
  3
_CLOSEDFILLED
  1

  0
SOLID
  5
7B
330
78
100
AcDbEntity
  8
0
  6
BYBLOCK
 62
0
100
AcDbTrace
 10
-1.0
 20
0.16439898372402537
 30
0.0
 11
0.0
 21
0.0
 31
0.0
 12
-1.0
 22
-0.16439898372402537
 32
0.0
 13
-1.0
 23
-0.16439898372402537
 33
0.0
  0
ENDBLK
  5
7A
330
78
100
AcDbEntity
  8
0
100
AcDbBlockEnd
  0
BLOCK
  5
85
330
84
100
AcDbEntity
  8
0
100
AcDbBlockBegin
  2
_CLOSEDBLANK
 70
0
 10
0.0
 20
0.0
 30
0.0
  3
_CLOSEDBLANK
  1

  0
LWPOLYLINE
  5
87
330
84
100
AcDbEntity
  8
0
  6
BYBLOCK
 62
0
100
AcDbPolyline
 90
3
 70
1
 10
-1.0
 20
0.16439898372402537
 10
0.0
 20
0.0
 10
-1.0
 20
-0.16439898372402537
  0
ENDBLK
  5
86
330
84
100
AcDbEntity
  8
0
100
AcDbBlockEnd
  0
ENDSEC
  0
SECTION
  2
ENTITIES
  0
TEXT
  5
96
330
17
100
AcDbEntity
  8
TC
100
AcDbText
 10
24991.07142857143
 20
39875.0
 30
0.0
 40
250.0
  1
STIRRUP SPACING
  7
100CL
 41
1.5
 72
1
 11
27500.0
 21
40000.0
 31
0.0
100
AcDbText
 73
2
  0
TEXT
  5
97
330
17
100
AcDbEntity
  8
TC
100
AcDbText
 10
269.0476190476191
 20
40275.0
 30
0.0
 40
250.0
  1
FLOOR
  7
100CL
 41
0.8
 72
1
 11
750.0
 21
40400.0
 31
0.0
100
AcDbText
 73
2
  0
TEXT
  5
98
330
17
100
AcDbEntity
  8
TC
100
AcDbText
 10
307.1428571428572
 20
39875.0
 30
0.0
 40
250.0
  1
LEVEL
  7
100CL
 41
0.8
 72
1
 11
750.0
 21
40000.0
 31
0.0
100
AcDbText
 73
2
  0
TEXT
  5
99
330
17
100
AcDbEntity
  8
TC
100
AcDbText
 10
54.76190476190503
 20
39475.0
 30
0.0
 40
250.0
  1
LOCATION
  7
100CL
 41
0.8
 72
1
 11
750.0
 21
39600.0
 31
0.0
100
AcDbText
 73
2
  0
TEXT
  5
9A
330
17
100
AcDbEntity
  8
TC
100
AcDbText
 10
8898.809523809523
 20
39875.0
 30
0.0
 40
250.0
  1
BAR %%C
  7
100CL
 72
1
 11
9500.0
 21
40000.0
 31
0.0
100
AcDbText
 73
2
  0
TEXT
  5
9B
330
17
100
AcDbEntity
  8
TC
100
AcDbText
 10
4970.238095238095
 20
39375.0
 30
0.0
 40
250.0
  1
WIDTH
  7
100CL
 72
1
 11
5500.0
 21
39500.0
 31
0.0
100
AcDbText
 73
2
  0
TEXT
  5
9C
330
17
100
AcDbEntity
  8
TC
100
AcDbText
 10
2494.047619047619
 20
39675.0
 30
0.0
 40
250.0
  1
MARK
  7
100CL
 72
1
 11
3000.0
 21
39800.0
 31
0.0
100
AcDbText
 73
2
  0
TEXT
  5
9D
330
17
100
AcDbEntity
  8
TC
100
AcDbText
 10
6910.714285714286
 20
39375.0
 30
0.0
 40
250.0
  1
DEPTH
  7
100CL
 72
1
 11
7500.0
 21
39500.0
 31
0.0
100
AcDbText
 73
2
  0
TEXT
  5
9E
330
17
100
AcDbEntity
  8
TC
100
AcDbText
 10
4639.880952380953
 20
40375.0
 30
0.0
 40
250.0
  1
 BEAM CROSS
  7
100CL
 41
1.25
 72
1
 11
6500.0
 21
40500.0
 31
0.0
100
AcDbText
 73
2
  0
TEXT
  5
9F
330
17
100
AcDbEntity
  8
TC
100
AcDbText
 10
2511.904761904762
 20
40075.0
 30
0.0
 40
250.0
  1
BEAM
  7
100CL
 72
1
 11
3000.0
 21
40200.0
 31
0.0
100
AcDbText
 73
2
  0
TEXT
  5
A0
330
17
100
AcDbEntity
  8
TC
100
AcDbText
 10
19691.66666666667
 20
39675.0
 30
0.0
 40
250.0
  1
NO./SET
  7
100CL
 41
0.7
 72
1
 11
20250.0
 21
39800.0
 31
0.0
100
AcDbText
 73
2
  0
TEXT
  5
A1
330
17
100
AcDbEntity
  8
TC
100
AcDbText
 10
19629.16666666666
 20
40075.0
 30
0.0
 40
250.0
  1
STIRRUPS
  7
100CL
 41
0.7
 72
1
 11
20250.0
 21
40200.0
 31
0.0
100
AcDbText
 73
2
  0
TEXT
  5
A2
330
17
100
AcDbEntity
  8
TC
100
AcDbText
 10
18460.71428571429
 20
39875.0
 30
0.0
 40
250.0
  1
BARS
  7
100CL
 41
0.6
 72
1
 11
18750.0
 21
40000.0
 31
0.0
100
AcDbText
 73
2
  0
TEXT
  5
A3
330
17
100
AcDbEntity
  8
TC
100
AcDbText
 10
12569.04761904762
 20
39175.0
 30
0.0
 40
250.0
  1
'A'
  7
100CL
 41
0.8
 72
1
 11
12750.0
 21
39300.0
 31
0.0
100
AcDbText
 73
2
  0
TEXT
  5
A4
330
17
100
AcDbEntity
  8
TC
100
AcDbText
 10
12321.42857142857
 20
39575.0
 30
0.0
 40
250.0
  1
CONT.
  7
100CL
 41
0.8
 72
1
 11
12750.0
 21
39700.0
 31
0.0
100
AcDbText
 73
2
  0
TEXT
  5
A5
330
17
100
AcDbEntity
  8
TC
100
AcDbText
 10
10583.33333333333
 20
39575.0
 30
0.0
 40
250.0
  1
DISCONT.
  7
100CL
 41
0.8
 72
1
 11
11250.0
 21
39700.0
 31
0.0
100
AcDbText
 73
2
  0
TEXT
  5
A6
330
17
100
AcDbEntity
  8
TC
100
AcDbText
 10
11069.04761904762
 20
39175.0
 30
0.0
 40
250.0
  1
'A'
  7
100CL
 41
0.8
 72
1
 11
11250.0
 21
39300.0
 31
0.0
100
AcDbText
 73
2
  0
TEXT
  5
A7
330
17
100
AcDbEntity
  8
TC
100
AcDbText
 10
13611.90476190476
 20
39375.0
 30
0.0
 40
250.0
  1
MIDSPAN
  7
100CL
 41
0.8
 72
1
 11
14250.0
 21
39500.0
 31
0.0
100
AcDbText
 73
2
  0
TEXT
  5
A8
330
17
100
AcDbEntity
  8
TC
100
AcDbText
 10
16583.33333333333
 20
39575.0
 30
0.0
 40
250.0
  1
DISCONT.
  7
100CL
 41
0.8
 72
1
 11
17250.0
 21
39700.0
 31
0.0
100
AcDbText
 73
2
  0
TEXT
  5
A9
330
17
100
AcDbEntity
  8
TC
100
AcDbText
 10
17054.7619047619
 20
39175.0
 30
0.0
 40
250.0
  1
'B'
  7
100CL
 41
0.8
 72
1
 11
17250.0
 21
39300.0
 31
0.0
100
AcDbText
 73
2
  0
TEXT
  5
AA
330
17
100
AcDbEntity
  8
TC
100
AcDbText
 10
15554.7619047619
 20
39175.0
 30
0.0
 40
250.0
  1
'B'
  7
100CL
 41
0.8
 72
1
 11
15750.0
 21
39300.0
 31
0.0
100
AcDbText
 73
2
  0
TEXT
  5
AB
330
17
100
AcDbEntity
  8
TC
100
AcDbText
 10
15321.42857142857
 20
39575.0
 30
0.0
 40
250.0
  1
CONT.
  7
100CL
 41
0.8
 72
1
 11
15750.0
 21
39700.0
 31
0.0
100
AcDbText
 73
2
  0
TEXT
  5
AC
330
17
100
AcDbEntity
  8
TC
100
AcDbText
 10
18110.71428571428
 20
39475.0
 30
0.0
 40
250.0
  1
EACH FACE
  7
100CL
 41
0.6
 72
1
 11
18750.0
 21
39600.0
 31
0.0
100
AcDbText
 73
2
  0
TEXT
  5
AD
330
17
100
AcDbEntity
  8
TC
100
AcDbText
 10
11226.19047619047
 20
40375.0
 30
0.0
 40
250.0
  1
LONGITUDINAL REINFORCEMENTS
  7
100CL
 72
1
 11
14250.0
 21
40500.0
 31
0.0
100
AcDbText
 73
2
  0
TEXT
  5
AE
330
17
100
AcDbEntity
  8
TC
100
AcDbText
 10
18525.0
 20
40275.0
 30
0.0
 40
250.0
  1
WEB
  7
100CL
 41
0.6
 72
1
 11
18750.0
 21
40400.0
 31
0.0
100
AcDbText
 73
2
  0
TEXT
  5
AF
330
17
100
AcDbEntity
  8
TC
100
AcDbText
 10
21909.52380952381
 20
39675.0
 30
0.0
 40
250.0
  1
%%C
  7
100CL
 41
0.8
 72
1
 11
22000.0
 21
39800.0
 31
0.0
100
AcDbText
 73
2
  0
TEXT
  5
B0
330
17
100
AcDbEntity
  8
TC
100
AcDbText
 10
21290.47619047619
 20
40075.0
 30
0.0
 40
250.0
  1
STIRRUPS
  7
100CL
 41
0.8
 72
1
 11
22000.0
 21
40200.0
 31
0.0
100
AcDbText
 73
2
  0
TEXT
  5
B1
330
17
100
AcDbEntity
  8
TC
100
AcDbText
 10
32561.90476187356
 20
39875.0
 30
0.0
 40
250.0
  1
REMARKS
  7
100CL
 72
1
 11
33424.9999999688
 21
40000.0
 31
0.0
100
AcDbText
 73
2
  0
TEXT
  5
B2
330
17
100
AcDbEntity
  8
TM
 62
6
100
AcDbText
 10
4210.714285683205
 20
41466.66666636383
 30
0.0
 40
500.0
  1
SCHEDULE OF REINFORCED CONCRETE BEAMS
  7
240CL
 41
1.5
 72
1
 11
17424.99999996891
 21
41716.66666636383
 31
0.0
100
AcDbText
 73
2
  0
TEXT
  5
B3
330
17
100
AcDbEntity
  8
TC
100
AcDbText
 10
9869.04761904762
 20
3250.0
 30
0.0
 40
250.0
  1
BB
  7
100CL
 72
1
 11
10125.0
 21
3375.0
 31
0.0
100
AcDbText
 73
2
  0
TEXT
  5
B4
330
17
100
AcDbEntity
  8
TC
100
AcDbText
 10
9916.666666666666
 20
2500.0
 30
0.0
 40
250.0
  1
TB
  7
100CL
 72
1
 11
10125.0
 21
2625.0
 31
0.0
100
AcDbText
 73
2
  0
TEXT
  5
B5
330
17
100
AcDbEntity
  8
TC
100
AcDbText
 10
9869.04761904762
 20
1750.0
 30
0.0
 40
250.0
  1
BB
  7
100CL
 72
1
 11
10125.0
 21
1875.0
 31
0.0
100
AcDbText
 73
2
  0
TEXT
  5
B6
330
17
100
AcDbEntity
  8
TC
100
AcDbText
 10
9916.666666666666
 20
4000.0
 30
0.0
 40
250.0
  1
TB
  7
100CL
 72
1
 11
10125.0
 21
4125.0
 31
0.0
100
AcDbText
 73
2
  0
TEXT
  5
B7
330
17
100
AcDbEntity
  8
TC
100
AcDbText
 10
9869.04761904762
 20
4750.0
 30
0.0
 40
250.0
  1
BB
  7
100CL
 72
1
 11
10125.0
 21
4875.0
 31
0.0
100
AcDbText
 73
2
  0
TEXT
  5
B8
330
17
100
AcDbEntity
  8
TC
100
AcDbText
 10
9916.666666666666
 20
6999.999999999883
 30
0.0
 40
250.0
  1
TB
  7
100CL
 72
1
 11
10125.0
 21
7124.999999999883
 31
0.0
100
AcDbText
 73
2
  0
TEXT
  5
B9
330
17
100
AcDbEntity
  8
TC
100
AcDbText
 10
9869.04761904762
 20
6249.999999999883
 30
0.0
 40
250.0
  1
BB
  7
100CL
 72
1
 11
10125.0
 21
6374.999999999883
 31
0.0
100
AcDbText
 73
2
  0
TEXT
  5
BA
330
17
100
AcDbEntity
  8
TC
100
AcDbText
 10
9869.04761904762
 20
9249.999999999884
 30
0.0
 40
250.0
  1
BB
  7
100CL
 72
1
 11
10125.0
 21
9374.999999999884
 31
0.0
100
AcDbText
 73
2
  0
TEXT
  5
BB
330
17
100
AcDbEntity
  8
TC
100
AcDbText
 10
9916.666666666666
 20
8499.999999999884
 30
0.0
 40
250.0
  1
TB
  7
100CL
 72
1
 11
10125.0
 21
8624.999999999884
 31
0.0
100
AcDbText
 73
2
  0
TEXT
  5
BC
330
17
100
AcDbEntity
  8
TC
100
AcDbText
 10
9869.04761904762
 20
7749.999999999883
 30
0.0
 40
250.0
  1
BB
  7
100CL
 72
1
 11
10125.0
 21
7874.999999999883
 31
0.0
100
AcDbText
 73
2
  0
TEXT
  5
BD
330
17
100
AcDbEntity
  8
TC
100
AcDbText
 10
9916.666666666666
 20
9999.999999999884
 30
0.0
 40
250.0
  1
TB
  7
100CL
 72
1
 11
10125.0
 21
10124.99999999988
 31
0.0
100
AcDbText
 73
2
  0
TEXT
  5
BE
330
17
100
AcDbEntity
  8
TC
100
AcDbText
 10
9869.04761904762
 20
10749.99999999988
 30
0.0
 40
250.0
  1
BB
  7
100CL
 72
1
 11
10125.0
 21
10874.99999999988
 31
0.0
100
AcDbText
 73
2
  0
TEXT
  5
BF
330
17
100
AcDbEntity
  8
TC
100
AcDbText
 10
9916.666666666666
 20
12999.99999999988
 30
0.0
 40
250.0
  1
TB
  7
100CL
 72
1
 11
10125.0
 21
13124.99999999988
 31
0.0
100
AcDbText
 73
2
  0
TEXT
  5
C0
330
17
100
AcDbEntity
  8
TC
100
AcDbText
 10
9869.04761904762
 20
12249.99999999988
 30
0.0
 40
250.0
  1
BB
  7
100CL
 72
1
 11
10125.0
 21
12374.99999999988
 31
0.0
100
AcDbText
 73
2
  0
TEXT
  5
C1
330
17
100
AcDbEntity
  8
TC
100
AcDbText
 10
9916.666666666666
 20
11499.99999999988
 30
0.0
 40
250.0
  1
TB
  7
100CL
 72
1
 11
10125.0
 21
11624.99999999988
 31
0.0
100
AcDbText
 73
2
  0
TEXT
  5
C2
330
17
100
AcDbEntity
  8
TC
100
AcDbText
 10
9869.04761904762
 20
13749.99999999988
 30
0.0
 40
250.0
  1
BB
  7
100CL
 72
1
 11
10125.0
 21
13874.99999999988
 31
0.0
100
AcDbText
 73
2
  0
TEXT
  5
C3
330
17
100
AcDbEntity
  8
TC
100
AcDbText
 10
9916.666666666666
 20
5499.999999999883
 30
0.0
 40
250.0
  1
TB
  7
100CL
 72
1
 11
10125.0
 21
5624.999999999883
 31
0.0
100
AcDbText
 73
2
  0
TEXT
  5
C4
330
17
100
AcDbEntity
  8
TC
100
AcDbText
 10
9869.04761904762
 20
16749.99999999988
 30
0.0
 40
250.0
  1
BB
  7
100CL
 72
1
 11
10125.0
 21
16874.99999999988
 31
0.0
100
AcDbText
 73
2
  0
TEXT
  5
C5
330
17
100
AcDbEntity
  8
TC
100
AcDbText
 10
9869.04761904762
 20
15249.99999999988
 30
0.0
 40
250.0
  1
BB
  7
100CL
 72
1
 11
10125.0
 21
15374.99999999988
 31
0.0
100
AcDbText
 73
2
  0
TEXT
  5
C6
330
17
100
AcDbEntity
  8
TC
100
AcDbText
 10
9916.666666666666
 20
15999.99999999988
 30
0.0
 40
250.0
  1
TB
  7
100CL
 72
1
 11
10125.0
 21
16124.99999999988
 31
0.0
100
AcDbText
 73
2
  0
TEXT
  5
C7
330
17
100
AcDbEntity
  8
TC
100
AcDbText
 10
9916.666666666666
 20
17499.99999999988
 30
0.0
 40
250.0
  1
TB
  7
100CL
 72
1
 11
10125.0
 21
17624.99999999988
 31
0.0
100
AcDbText
 73
2
  0
TEXT
  5
C8
330
17
100
AcDbEntity
  8
TC
100
AcDbText
 10
9869.04761904762
 20
18249.99999999988
 30
0.0
 40
250.0
  1
BB
  7
100CL
 72
1
 11
10125.0
 21
18374.99999999988
 31
0.0
100
AcDbText
 73
2
  0
TEXT
  5
C9
330
17
100
AcDbEntity
  8
TC
100
AcDbText
 10
9916.666666666666
 20
18999.99999999988
 30
0.0
 40
250.0
  1
TB
  7
100CL
 72
1
 11
10125.0
 21
19124.99999999988
 31
0.0
100
AcDbText
 73
2
  0
TEXT
  5
CA
330
17
100
AcDbEntity
  8
TC
100
AcDbText
 10
9916.666666666666
 20
14499.99999999988
 30
0.0
 40
250.0
  1
TB
  7
100CL
 72
1
 11
10125.0
 21
14624.99999999988
 31
0.0
100
AcDbText
 73
2
  0
TEXT
  5
CB
330
17
100
AcDbEntity
  8
TC
100
AcDbText
 10
9869.04761904762
 20
250.0
 30
0.0
 40
250.0
  1
BB
  7
100CL
 72
1
 11
10125.0
 21
375.0
 31
0.0
100
AcDbText
 73
2
  0
TEXT
  5
CC
330
17
100
AcDbEntity
  8
TC
100
AcDbText
 10
9916.666666666666
 20
1000.0
 30
0.0
 40
250.0
  1
TB
  7
100CL
 72
1
 11
10125.0
 21
1125.0
 31
0.0
100
AcDbText
 73
2
  0
TEXT
  5
CD
330
17
100
AcDbEntity
  8
TC
100
AcDbText
 10
9869.04761904762
 20
1750.0
 30
0.0
 40
250.0
  1
BB
  7
100CL
 72
1
 11
10125.0
 21
1875.0
 31
0.0
100
AcDbText
 73
2
  0
TEXT
  5
CE
330
17
100
AcDbEntity
  8
TC
100
AcDbText
 10
9916.666666666666
 20
2500.0
 30
0.0
 40
250.0
  1
TB
  7
100CL
 72
1
 11
10125.0
 21
2625.0
 31
0.0
100
AcDbText
 73
2
  0
TEXT
  5
CF
330
17
100
AcDbEntity
  8
TC
100
AcDbText
 10
9869.04761904762
 20
22749.99999999988
 30
0.0
 40
250.0
  1
BB
  7
100CL
 72
1
 11
10125.0
 21
22874.99999999988
 31
0.0
100
AcDbText
 73
2
  0
TEXT
  5
D0
330
17
100
AcDbEntity
  8
TC
100
AcDbText
 10
9916.666666666666
 20
21999.99999999989
 30
0.0
 40
250.0
  1
TB
  7
100CL
 72
1
 11
10125.0
 21
22124.99999999988
 31
0.0
100
AcDbText
 73
2
  0
TEXT
  5
D1
330
17
100
AcDbEntity
  8
TC
100
AcDbText
 10
9869.04761904762
 20
21249.99999999988
 30
0.0
 40
250.0
  1
BB
  7
100CL
 72
1
 11
10125.0
 21
21374.99999999989
 31
0.0
100
AcDbText
 73
2
  0
TEXT
  5
D2
330
17
100
AcDbEntity
  8
TC
100
AcDbText
 10
9916.666666666666
 20
23499.99999999988
 30
0.0
 40
250.0
  1
TB
  7
100CL
 72
1
 11
10125.0
 21
23624.99999999988
 31
0.0
100
AcDbText
 73
2
  0
TEXT
  5
D3
330
17
100
AcDbEntity
  8
TC
100
AcDbText
 10
9869.04761904762
 20
24249.99999999988
 30
0.0
 40
250.0
  1
BB
  7
100CL
 72
1
 11
10125.0
 21
24374.99999999988
 31
0.0
100
AcDbText
 73
2
  0
TEXT
  5
D4
330
17
100
AcDbEntity
  8
TC
100
AcDbText
 10
9916.666666666666
 20
26500.0
 30
0.0
 40
250.0
  1
TB
  7
100CL
 72
1
 11
10125.0
 21
26625.0
 31
0.0
100
AcDbText
 73
2
  0
TEXT
  5
D5
330
17
100
AcDbEntity
  8
TC
100
AcDbText
 10
9869.04761904762
 20
25749.99999999989
 30
0.0
 40
250.0
  1
BB
  7
100CL
 72
1
 11
10125.0
 21
25874.99999999988
 31
0.0
100
AcDbText
 73
2
  0
TEXT
  5
D6
330
17
100
AcDbEntity
  8
TC
100
AcDbText
 10
9869.04761904762
 20
28750.0
 30
0.0
 40
250.0
  1
BB
  7
100CL
 72
1
 11
10125.0
 21
28875.0
 31
0.0
100
AcDbText
 73
2
  0
TEXT
  5
D7
330
17
100
AcDbEntity
  8
TC
100
AcDbText
 10
9916.666666666666
 20
28000.0
 30
0.0
 40
250.0
  1
TB
  7
100CL
 72
1
 11
10125.0
 21
28125.0
 31
0.0
100
AcDbText
 73
2
  0
TEXT
  5
D8
330
17
100
AcDbEntity
  8
TC
100
AcDbText
 10
9869.04761904762
 20
27250.0
 30
0.0
 40
250.0
  1
BB
  7
100CL
 72
1
 11
10125.0
 21
27375.0
 31
0.0
100
AcDbText
 73
2
  0
TEXT
  5
D9
330
17
100
AcDbEntity
  8
TC
100
AcDbText
 10
9916.666666666666
 20
29500.0
 30
0.0
 40
250.0
  1
TB
  7
100CL
 72
1
 11
10125.0
 21
29625.0
 31
0.0
100
AcDbText
 73
2
  0
TEXT
  5
DA
330
17
100
AcDbEntity
  8
TC
100
AcDbText
 10
9869.04761904762
 20
30250.0
 30
0.0
 40
250.0
  1
BB
  7
100CL
 72
1
 11
10125.0
 21
30375.0
 31
0.0
100
AcDbText
 73
2
  0
TEXT
  5
DB
330
17
100
AcDbEntity
  8
TC
100
AcDbText
 10
9916.666666666666
 20
32500.0
 30
0.0
 40
250.0
  1
TB
  7
100CL
 72
1
 11
10125.0
 21
32625.0
 31
0.0
100
AcDbText
 73
2
  0
TEXT
  5
DC
330
17
100
AcDbEntity
  8
TC
100
AcDbText
 10
9869.04761904762
 20
31750.0
 30
0.0
 40
250.0
  1
BB
  7
100CL
 72
1
 11
10125.0
 21
31875.0
 31
0.0
100
AcDbText
 73
2
  0
TEXT
  5
DD
330
17
100
AcDbEntity
  8
TC
100
AcDbText
 10
9916.666666666666
 20
31000.0
 30
0.0
 40
250.0
  1
TB
  7
100CL
 72
1
 11
10125.0
 21
31125.0
 31
0.0
100
AcDbText
 73
2
  0
TEXT
  5
DE
330
17
100
AcDbEntity
  8
TC
100
AcDbText
 10
9869.04761904762
 20
33250.0
 30
0.0
 40
250.0
  1
BB
  7
100CL
 72
1
 11
10125.0
 21
33375.0
 31
0.0
100
AcDbText
 73
2
  0
TEXT
  5
DF
330
17
100
AcDbEntity
  8
TC
100
AcDbText
 10
9916.666666666666
 20
24999.99999999988
 30
0.0
 40
250.0
  1
TB
  7
100CL
 72
1
 11
10125.0
 21
25124.99999999989
 31
0.0
100
AcDbText
 73
2
  0
TEXT
  5
E0
330
17
100
AcDbEntity
  8
TC
100
AcDbText
 10
9869.04761904762
 20
36250.0
 30
0.0
 40
250.0
  1
BB
  7
100CL
 72
1
 11
10125.0
 21
36375.0
 31
0.0
100
AcDbText
 73
2
  0
TEXT
  5
E1
330
17
100
AcDbEntity
  8
TC
100
AcDbText
 10
9869.04761904762
 20
34750.0
 30
0.0
 40
250.0
  1
BB
  7
100CL
 72
1
 11
10125.0
 21
34875.0
 31
0.0
100
AcDbText
 73
2
  0
TEXT
  5
E2
330
17
100
AcDbEntity
  8
TC
100
AcDbText
 10
9916.666666666666
 20
35500.0
 30
0.0
 40
250.0
  1
TB
  7
100CL
 72
1
 11
10125.0
 21
35625.0
 31
0.0
100
AcDbText
 73
2
  0
TEXT
  5
E3
330
17
100
AcDbEntity
  8
TC
100
AcDbText
 10
9916.666666666666
 20
37000.0
 30
0.0
 40
250.0
  1
TB
  7
100CL
 72
1
 11
10125.0
 21
37125.0
 31
0.0
100
AcDbText
 73
2
  0
TEXT
  5
E4
330
17
100
AcDbEntity
  8
TC
100
AcDbText
 10
9869.04761904762
 20
37750.0
 30
0.0
 40
250.0
  1
BB
  7
100CL
 72
1
 11
10125.0
 21
37875.0
 31
0.0
100
AcDbText
 73
2
  0
TEXT
  5
E5
330
17
100
AcDbEntity
  8
TC
100
AcDbText
 10
9916.666666666666
 20
38500.0
 30
0.0
 40
250.0
  1
TB
  7
100CL
 72
1
 11
10125.0
 21
38625.0
 31
0.0
100
AcDbText
 73
2
  0
TEXT
  5
E6
330
17
100
AcDbEntity
  8
TC
100
AcDbText
 10
9916.666666666666
 20
34000.0
 30
0.0
 40
250.0
  1
TB
  7
100CL
 72
1
 11
10125.0
 21
34125.0
 31
0.0
100
AcDbText
 73
2
  0
TEXT
  5
E7
330
17
100
AcDbEntity
  8
TC
100
AcDbText
 10
9869.04761904762
 20
19749.99999999988
 30
0.0
 40
250.0
  1
BB
  7
100CL
 72
1
 11
10125.0
 21
19874.99999999988
 31
0.0
100
AcDbText
 73
2
  0
TEXT
  5
E8
330
17
100
AcDbEntity
  8
TC
100
AcDbText
 10
9916.666666666666
 20
20499.99999999988
 30
0.0
 40
250.0
  1
TB
  7
100CL
 72
1
 11
10125.0
 21
20624.99999999988
 31
0.0
100
AcDbText
 73
2
  0
TEXT
  5
E9
330
17
100
AcDbEntity
  8
TC
100
AcDbText
 10
9869.04761904762
 20
21249.99999999988
 30
0.0
 40
250.0
  1
BB
  7
100CL
 72
1
 11
10125.0
 21
21374.99999999989
 31
0.0
100
AcDbText
 73
2
  0
TEXT
  5
EA
330
17
100
AcDbEntity
  8
TC
100
AcDbText
 10
9916.666666666666
 20
21999.99999999989
 30
0.0
 40
250.0
  1
TB
  7
100CL
 72
1
 11
10125.0
 21
22124.99999999988
 31
0.0
100
AcDbText
 73
2
  0
TEXT
  5
EB
330
17
100
AcDbEntity
  8
3G
100
AcDbText
 10
10980.00000000023
 20
38475.0
 30
0.0
 40
300.0
  1
G4
  7
ROMANS
 41
0.9
 72
1
 11
11250.00000000023
 21
38625.0
 31
0.0
100
AcDbText
 73
2
  0
TEXT
  5
EC
330
17
100
AcDbEntity
  8
3G
100
AcDbText
 10
14057.14285714309
 20
38475.0
 30
0.0
 40
300.0
  1
I4
  7
ROMANS
 41
0.9
 72
1
 11
14250.00000000023
 21
38625.0
 31
0.0
100
AcDbText
 73
2
  0
TEXT
  5
ED
330
17
100
AcDbEntity
  8
3G
100
AcDbText
 10
14063.57142857166
 20
37725.0
 30
0.0
 40
300.0
  1
I5
  7
ROMANS
 41
0.9
 72
1
 11
14250.00000000023
 21
37875.0
 31
0.0
100
AcDbText
 73
2
  0
TEXT
  5
EE
330
17
100
AcDbEntity
  8
3G
100
AcDbText
 10
15518.57142857166
 20
38475.0
 30
0.0
 40
300.0
  1
J4
  7
ROMANS
 41
0.9
 72
1
 11
15750.00000000023
 21
38625.0
 31
0.0
100
AcDbText
 73
2
  0
TEXT
  5
EF
330
17
100
AcDbEntity
  8
3G
100
AcDbText
 10
15525.00000000023
 20
37725.0
 30
0.0
 40
300.0
  1
J5
  7
ROMANS
 41
0.9
 72
1
 11
15750.00000000023
 21
37875.0
 31
0.0
100
AcDbText
 73
2
  0
TEXT
  5
F0
330
17
100
AcDbEntity
  8
3G
100
AcDbText
 10
10986.4285714288
 20
37725.0
 30
0.0
 40
300.0
  1
G5
  7
ROMANS
 41
0.9
 72
1
 11
11250.00000000023
 21
37875.0
 31
0.0
100
AcDbText
 73
2
  0
TEXT
  5
F1
330
17
100
AcDbEntity
  8
3G
100
AcDbText
 10
27223.57142857166
 20
38100.0
 30
0.0
 40
300.0
  1
O4
  7
ROMANS
 41
0.9
 72
1
 11
27500.00000000023
 21
38250.0
 31
0.0
100
AcDbText
 73
2
  0
TEXT
  5
F2
330
17
100
AcDbEntity
  8
3G
100
AcDbText
 10
12467.14285714309
 20
38475.0
 30
0.0
 40
300.0
  1
H4
  7
ROMANS
 41
0.9
 72
1
 11
12750.00000000023
 21
38625.0
 31
0.0
100
AcDbText
 73
2
  0
TEXT
  5
F3
330
17
100
AcDbEntity
  8
3G
100
AcDbText
 10
12473.57142857166
 20
37725.0
 30
0.0
 40
300.0
  1
H5
  7
ROMANS
 41
0.9
 72
1
 11
12750.00000000023
 21
37875.0
 31
0.0
100
AcDbText
 73
2
  0
TEXT
  5
F4
330
17
100
AcDbEntity
  8
3G
100
AcDbText
 10
16973.57142857166
 20
38475.0
 30
0.0
 40
300.0
  1
K4
  7
ROMANS
 41
0.9
 72
1
 11
17250.00000000023
 21
38625.0
 31
0.0
100
AcDbText
 73
2
  0
TEXT
  5
F5
330
17
100
AcDbEntity
  8
3G
100
AcDbText
 10
16980.00000000023
 20
37725.0
 30
0.0
 40
300.0
  1
K5
  7
ROMANS
 41
0.9
 72
1
 11
17250.00000000023
 21
37875.0
 31
0.0
100
AcDbText
 73
2
  0
TEXT
  5
F6
330
17
100
AcDbEntity
  8
3G
100
AcDbText
 10
33148.57142854035
 20
38100.0
 30
0.0
 40
300.0
  1
P4
  7
ROMANS
 41
0.9
 72
1
 11
33424.99999996892
 21
38250.0
 31
0.0
100
AcDbText
 73
2
  0
TEXT
  5
F7
330
17
100
AcDbEntity
  8
3G
100
AcDbText
 10
2723.571428571545
 20
38100.0
 30
0.0
 40
300.0
  1
B4
  7
ROMANS
 41
0.9
 72
1
 11
3000.000000000117
 21
38250.0
 31
0.0
100
AcDbText
 73
2
  0
TEXT
  5
F8
330
17
100
AcDbEntity
  8
3G
100
AcDbText
 10
5230.000000000233
 20
38100.0
 30
0.0
 40
300.0
  1
C4
  7
ROMANS
 41
0.9
 72
1
 11
5500.000000000233
 21
38250.0
 31
0.0
100
AcDbText
 73
2
  0
TEXT
  5
F9
330
17
100
AcDbEntity
  8
3G
100
AcDbText
 10
7223.571428571661
 20
38100.0
 30
0.0
 40
300.0
  1
D4
  7
ROMANS
 41
0.9
 72
1
 11
7500.000000000233
 21
38250.0
 31
0.0
100
AcDbText
 73
2
  0
TEXT
  5
FA
330
17
100
AcDbEntity
  8
3G
100
AcDbText
 10
8861.428571428803
 20
38100.0
 30
0.0
 40
300.0
  1
E4
  7
ROMANS
 41
0.9
 72
1
 11
9125.000000000233
 21
38250.0
 31
0.0
100
AcDbText
 73
2
  0
TEXT
  5
FB
330
17
100
AcDbEntity
  8
3G
100
AcDbText
 10
21717.14285714309
 20
38100.0
 30
0.0
 40
300.0
  1
N4
  7
ROMANS
 41
0.9
 72
1
 11
22000.00000000023
 21
38250.0
 31
0.0
100
AcDbText
 73
2
  0
TEXT
  5
FC
330
17
100
AcDbEntity
  8
3G
100
AcDbText
 10
19954.28571428595
 20
38100.0
 30
0.0
 40
300.0
  1
M4
  7
ROMANS
 41
0.9
 72
1
 11
20250.00000000023
 21
38250.0
 31
0.0
100
AcDbText
 73
2
  0
TEXT
  5
FD
330
17
100
AcDbEntity
  8
3G
100
AcDbText
 10
18499.28571428594
 20
38100.0
 30
0.0
 40
300.0
  1
L4
  7
ROMANS
 41
0.9
 72
1
 11
18750.00000000023
 21
38250.0
 31
0.0
100
AcDbText
 73
2
  0
TEXT
  5
FE
330
17
100
AcDbEntity
  8
3G
100
AcDbText
 10
10986.4285714288
 20
36975.0
 30
0.0
 40
300.0
  1
G6
  7
ROMANS
 41
0.9
 72
1
 11
11250.00000000023
 21
37125.0
 31
0.0
100
AcDbText
 73
2
  0
TEXT
  5
FF
330
17
100
AcDbEntity
  8
3G
100
AcDbText
 10
14063.57142857166
 20
36975.0
 30
0.0
 40
300.0
  1
I6
  7
ROMANS
 41
0.9
 72
1
 11
14250.00000000023
 21
37125.0
 31
0.0
100
AcDbText
 73
2
  0
TEXT
  5
100
330
17
100
AcDbEntity
  8
3G
100
AcDbText
 10
14063.57142857166
 20
36225.0
 30
0.0
 40
300.0
  1
I7
  7
ROMANS
 41
0.9
 72
1
 11
14250.00000000023
 21
36375.0
 31
0.0
100
AcDbText
 73
2
  0
TEXT
  5
101
330
17
100
AcDbEntity
  8
3G
100
AcDbText
 10
15525.00000000023
 20
36975.0
 30
0.0
 40
300.0
  1
J6
  7
ROMANS
 41
0.9
 72
1
 11
15750.00000000023
 21
37125.0
 31
0.0
100
AcDbText
 73
2
  0
TEXT
  5
102
330
17
100
AcDbEntity
  8
3G
100
AcDbText
 10
15525.00000000023
 20
36225.0
 30
0.0
 40
300.0
  1
J7
  7
ROMANS
 41
0.9
 72
1
 11
15750.00000000023
 21
36375.0
 31
0.0
100
AcDbText
 73
2
  0
TEXT
  5
103
330
17
100
AcDbEntity
  8
3G
100
AcDbText
 10
10986.4285714288
 20
36225.0
 30
0.0
 40
300.0
  1
G7
  7
ROMANS
 41
0.9
 72
1
 11
11250.00000000023
 21
36375.0
 31
0.0
100
AcDbText
 73
2
  0
TEXT
  5
104
330
17
100
AcDbEntity
  8
3G
100
AcDbText
 10
27230.00000000023
 20
36600.0
 30
0.0
 40
300.0
  1
O6
  7
ROMANS
 41
0.9
 72
1
 11
27500.00000000023
 21
36750.0
 31
0.0
100
AcDbText
 73
2
  0
TEXT
  5
105
330
17
100
AcDbEntity
  8
3G
100
AcDbText
 10
12473.57142857166
 20
36975.0
 30
0.0
 40
300.0
  1
H6
  7
ROMANS
 41
0.9
 72
1
 11
12750.00000000023
 21
37125.0
 31
0.0
100
AcDbText
 73
2
  0
TEXT
  5
106
330
17
100
AcDbEntity
  8
3G
100
AcDbText
 10
12473.57142857166
 20
36225.0
 30
0.0
 40
300.0
  1
H7
  7
ROMANS
 41
0.9
 72
1
 11
12750.00000000023
 21
36375.0
 31
0.0
100
AcDbText
 73
2
  0
TEXT
  5
107
330
17
100
AcDbEntity
  8
3G
100
AcDbText
 10
16980.00000000023
 20
36975.0
 30
0.0
 40
300.0
  1
K6
  7
ROMANS
 41
0.9
 72
1
 11
17250.00000000023
 21
37125.0
 31
0.0
100
AcDbText
 73
2
  0
TEXT
  5
108
330
17
100
AcDbEntity
  8
3G
100
AcDbText
 10
16980.00000000023
 20
36225.0
 30
0.0
 40
300.0
  1
K7
  7
ROMANS
 41
0.9
 72
1
 11
17250.00000000023
 21
36375.0
 31
0.0
100
AcDbText
 73
2
  0
TEXT
  5
109
330
17
100
AcDbEntity
  8
3G
100
AcDbText
 10
33154.99999996892
 20
36600.0
 30
0.0
 40
300.0
  1
P6
  7
ROMANS
 41
0.9
 72
1
 11
33424.99999996892
 21
36750.0
 31
0.0
100
AcDbText
 73
2
  0
TEXT
  5
10A
330
17
100
AcDbEntity
  8
3G
100
AcDbText
 10
2730.000000000117
 20
36600.0
 30
0.0
 40
300.0
  1
B6
  7
ROMANS
 41
0.9
 72
1
 11
3000.000000000117
 21
36750.0
 31
0.0
100
AcDbText
 73
2
  0
TEXT
  5
10B
330
17
100
AcDbEntity
  8
3G
100
AcDbText
 10
5236.428571428804
 20
36600.0
 30
0.0
 40
300.0
  1
C6
  7
ROMANS
 41
0.9
 72
1
 11
5500.000000000233
 21
36750.0
 31
0.0
100
AcDbText
 73
2
  0
TEXT
  5
10C
330
17
100
AcDbEntity
  8
3G
100
AcDbText
 10
7230.000000000233
 20
36600.0
 30
0.0
 40
300.0
  1
D6
  7
ROMANS
 41
0.9
 72
1
 11
7500.000000000233
 21
36750.0
 31
0.0
100
AcDbText
 73
2
  0
TEXT
  5
10D
330
17
100
AcDbEntity
  8
3G
100
AcDbText
 10
8867.857142857376
 20
36600.0
 30
0.0
 40
300.0
  1
E6
  7
ROMANS
 41
0.9
 72
1
 11
9125.000000000233
 21
36750.0
 31
0.0
100
AcDbText
 73
2
  0
TEXT
  5
10E
330
17
100
AcDbEntity
  8
3G
100
AcDbText
 10
21723.57142857166
 20
36600.0
 30
0.0
 40
300.0
  1
N6
  7
ROMANS
 41
0.9
 72
1
 11
22000.00000000023
 21
36750.0
 31
0.0
100
AcDbText
 73
2
  0
TEXT
  5
10F
330
17
100
AcDbEntity
  8
3G
100
AcDbText
 10
19960.71428571452
 20
36600.0
 30
0.0
 40
300.0
  1
M6
  7
ROMANS
 41
0.9
 72
1
 11
20250.00000000023
 21
36750.0
 31
0.0
100
AcDbText
 73
2
  0
TEXT
  5
110
330
17
100
AcDbEntity
  8
3G
100
AcDbText
 10
18505.71428571452
 20
36600.0
 30
0.0
 40
300.0
  1
L6
  7
ROMANS
 41
0.9
 72
1
 11
18750.00000000023
 21
36750.0
 31
0.0
100
AcDbText
 73
2
  0
TEXT
  5
111
330
17
100
AcDbEntity
  8
3G
100
AcDbText
 10
10986.4285714288
 20
35475.0
 30
0.0
 40
300.0
  1
G8
  7
ROMANS
 41
0.9
 72
1
 11
11250.00000000023
 21
35625.0
 31
0.0
100
AcDbText
 73
2
  0
TEXT
  5
112
330
17
100
AcDbEntity
  8
3G
100
AcDbText
 10
14063.57142857166
 20
35475.0
 30
0.0
 40
300.0
  1
I8
  7
ROMANS
 41
0.9
 72
1
 11
14250.00000000023
 21
35625.0
 31
0.0
100
AcDbText
 73
2
  0
TEXT
  5
113
330
17
100
AcDbEntity
  8
3G
100
AcDbText
 10
14070.00000000023
 20
34725.0
 30
0.0
 40
300.0
  1
I9
  7
ROMANS
 41
0.9
 72
1
 11
14250.00000000023
 21
34875.0
 31
0.0
100
AcDbText
 73
2
  0
TEXT
  5
114
330
17
100
AcDbEntity
  8
3G
100
AcDbText
 10
15525.00000000023
 20
35475.0
 30
0.0
 40
300.0
  1
J8
  7
ROMANS
 41
0.9
 72
1
 11
15750.00000000023
 21
35625.0
 31
0.0
100
AcDbText
 73
2
  0
TEXT
  5
115
330
17
100
AcDbEntity
  8
3G
100
AcDbText
 10
15531.4285714288
 20
34725.0
 30
0.0
 40
300.0
  1
J9
  7
ROMANS
 41
0.9
 72
1
 11
15750.00000000023
 21
34875.0
 31
0.0
100
AcDbText
 73
2
  0
TEXT
  5
116
330
17
100
AcDbEntity
  8
3G
100
AcDbText
 10
10992.85714285737
 20
34725.0
 30
0.0
 40
300.0
  1
G9
  7
ROMANS
 41
0.9
 72
1
 11
11250.00000000023
 21
34875.0
 31
0.0
100
AcDbText
 73
2
  0
TEXT
  5
117
330
17
100
AcDbEntity
  8
3G
100
AcDbText
 10
27230.00000000023
 20
35100.0
 30
0.0
 40
300.0
  1
O8
  7
ROMANS
 41
0.9
 72
1
 11
27500.00000000023
 21
35250.0
 31
0.0
100
AcDbText
 73
2
  0
TEXT
  5
118
330
17
100
AcDbEntity
  8
3G
100
AcDbText
 10
12473.57142857166
 20
35475.0
 30
0.0
 40
300.0
  1
H8
  7
ROMANS
 41
0.9
 72
1
 11
12750.00000000023
 21
35625.0
 31
0.0
100
AcDbText
 73
2
  0
TEXT
  5
119
330
17
100
AcDbEntity
  8
3G
100
AcDbText
 10
12480.00000000023
 20
34725.0
 30
0.0
 40
300.0
  1
H9
  7
ROMANS
 41
0.9
 72
1
 11
12750.00000000023
 21
34875.0
 31
0.0
100
AcDbText
 73
2
  0
TEXT
  5
11A
330
17
100
AcDbEntity
  8
3G
100
AcDbText
 10
16980.00000000023
 20
35475.0
 30
0.0
 40
300.0
  1
K8
  7
ROMANS
 41
0.9
 72
1
 11
17250.00000000023
 21
35625.0
 31
0.0
100
AcDbText
 73
2
  0
TEXT
  5
11B
330
17
100
AcDbEntity
  8
3G
100
AcDbText
 10
16986.4285714288
 20
34725.0
 30
0.0
 40
300.0
  1
K9
  7
ROMANS
 41
0.9
 72
1
 11
17250.00000000023
 21
34875.0
 31
0.0
100
AcDbText
 73
2
  0
TEXT
  5
11C
330
17
100
AcDbEntity
  8
3G
100
AcDbText
 10
33154.99999996892
 20
35100.0
 30
0.0
 40
300.0
  1
P8
  7
ROMANS
 41
0.9
 72
1
 11
33424.99999996892
 21
35250.0
 31
0.0
100
AcDbText
 73
2
  0
TEXT
  5
11D
330
17
100
AcDbEntity
  8
3G
100
AcDbText
 10
2730.000000000117
 20
35100.0
 30
0.0
 40
300.0
  1
B8
  7
ROMANS
 41
0.9
 72
1
 11
3000.000000000117
 21
35250.0
 31
0.0
100
AcDbText
 73
2
  0
TEXT
  5
11E
330
17
100
AcDbEntity
  8
3G
100
AcDbText
 10
5236.428571428804
 20
35100.0
 30
0.0
 40
300.0
  1
C8
  7
ROMANS
 41
0.9
 72
1
 11
5500.000000000233
 21
35250.0
 31
0.0
100
AcDbText
 73
2
  0
TEXT
  5
11F
330
17
100
AcDbEntity
  8
3G
100
AcDbText
 10
7230.000000000233
 20
35100.0
 30
0.0
 40
300.0
  1
D8
  7
ROMANS
 41
0.9
 72
1
 11
7500.000000000233
 21
35250.0
 31
0.0
100
AcDbText
 73
2
  0
TEXT
  5
120
330
17
100
AcDbEntity
  8
3G
100
AcDbText
 10
8867.857142857376
 20
35100.0
 30
0.0
 40
300.0
  1
E8
  7
ROMANS
 41
0.9
 72
1
 11
9125.000000000233
 21
35250.0
 31
0.0
100
AcDbText
 73
2
  0
TEXT
  5
121
330
17
100
AcDbEntity
  8
3G
100
AcDbText
 10
21723.57142857166
 20
35100.0
 30
0.0
 40
300.0
  1
N8
  7
ROMANS
 41
0.9
 72
1
 11
22000.00000000023
 21
35250.0
 31
0.0
100
AcDbText
 73
2
  0
TEXT
  5
122
330
17
100
AcDbEntity
  8
3G
100
AcDbText
 10
19960.71428571452
 20
35100.0
 30
0.0
 40
300.0
  1
M8
  7
ROMANS
 41
0.9
 72
1
 11
20250.00000000023
 21
35250.0
 31
0.0
100
AcDbText
 73
2
  0
TEXT
  5
123
330
17
100
AcDbEntity
  8
3G
100
AcDbText
 10
18505.71428571452
 20
35100.0
 30
0.0
 40
300.0
  1
L8
  7
ROMANS
 41
0.9
 72
1
 11
18750.00000000023
 21
35250.0
 31
0.0
100
AcDbText
 73
2
  0
TEXT
  5
124
330
17
100
AcDbEntity
  8
3G
100
AcDbText
 10
10857.85714285737
 20
33975.0
 30
0.0
 40
300.0
  1
G10
  7
ROMANS
 41
0.9
 72
1
 11
11250.00000000023
 21
34125.0
 31
0.0
100
AcDbText
 73
2
  0
TEXT
  5
125
330
17
100
AcDbEntity
  8
3G
100
AcDbText
 10
13935.00000000023
 20
33975.0
 30
0.0
 40
300.0
  1
I10
  7
ROMANS
 41
0.9
 72
1
 11
14250.00000000023
 21
34125.0
 31
0.0
100
AcDbText
 73
2
  0
TEXT
  5
126
330
17
100
AcDbEntity
  8
3G
100
AcDbText
 10
13973.57142857166
 20
33225.0
 30
0.0
 40
300.0
  1
I11
  7
ROMANS
 41
0.9
 72
1
 11
14250.00000000023
 21
33375.0
 31
0.0
100
AcDbText
 73
2
  0
TEXT
  5
127
330
17
100
AcDbEntity
  8
3G
100
AcDbText
 10
15396.4285714288
 20
33975.0
 30
0.0
 40
300.0
  1
J10
  7
ROMANS
 41
0.9
 72
1
 11
15750.00000000023
 21
34125.0
 31
0.0
100
AcDbText
 73
2
  0
TEXT
  5
128
330
17
100
AcDbEntity
  8
3G
100
AcDbText
 10
15435.00000000023
 20
33225.0
 30
0.0
 40
300.0
  1
J11
  7
ROMANS
 41
0.9
 72
1
 11
15750.00000000023
 21
33375.0
 31
0.0
100
AcDbText
 73
2
  0
TEXT
  5
129
330
17
100
AcDbEntity
  8
3G
100
AcDbText
 10
10896.4285714288
 20
33225.0
 30
0.0
 40
300.0
  1
G11
  7
ROMANS
 41
0.9
 72
1
 11
11250.00000000023
 21
33375.0
 31
0.0
100
AcDbText
 73
2
  0
TEXT
  5
12A
330
17
100
AcDbEntity
  8
3G
100
AcDbText
 10
27101.4285714288
 20
33600.0
 30
0.0
 40
300.0
  1
O10
  7
ROMANS
 41
0.9
 72
1
 11
27500.00000000023
 21
33750.0
 31
0.0
100
AcDbText
 73
2
  0
TEXT
  5
12B
330
17
100
AcDbEntity
  8
3G
100
AcDbText
 10
12345.00000000023
 20
33975.0
 30
0.0
 40
300.0
  1
H10
  7
ROMANS
 41
0.9
 72
1
 11
12750.00000000023
 21
34125.0
 31
0.0
100
AcDbText
 73
2
  0
TEXT
  5
12C
330
17
100
AcDbEntity
  8
3G
100
AcDbText
 10
12383.57142857166
 20
33225.0
 30
0.0
 40
300.0
  1
H11
  7
ROMANS
 41
0.9
 72
1
 11
12750.00000000023
 21
33375.0
 31
0.0
100
AcDbText
 73
2
  0
TEXT
  5
12D
330
17
100
AcDbEntity
  8
3G
100
AcDbText
 10
16851.4285714288
 20
33975.0
 30
0.0
 40
300.0
  1
K10
  7
ROMANS
 41
0.9
 72
1
 11
17250.00000000023
 21
34125.0
 31
0.0
100
AcDbText
 73
2
  0
TEXT
  5
12E
330
17
100
AcDbEntity
  8
3G
100
AcDbText
 10
16890.00000000023
 20
33225.0
 30
0.0
 40
300.0
  1
K11
  7
ROMANS
 41
0.9
 72
1
 11
17250.00000000023
 21
33375.0
 31
0.0
100
AcDbText
 73
2
  0
TEXT
  5
12F
330
17
100
AcDbEntity
  8
3G
100
AcDbText
 10
33026.42857139749
 20
33600.0
 30
0.0
 40
300.0
  1
P10
  7
ROMANS
 41
0.9
 72
1
 11
33424.99999996892
 21
33750.0
 31
0.0
100
AcDbText
 73
2
  0
TEXT
  5
130
330
17
100
AcDbEntity
  8
3G
100
AcDbText
 10
2601.428571428688
 20
33600.0
 30
0.0
 40
300.0
  1
B10
  7
ROMANS
 41
0.9
 72
1
 11
3000.000000000117
 21
33750.0
 31
0.0
100
AcDbText
 73
2
  0
TEXT
  5
131
330
17
100
AcDbEntity
  8
3G
100
AcDbText
 10
5107.857142857376
 20
33600.0
 30
0.0
 40
300.0
  1
C10
  7
ROMANS
 41
0.9
 72
1
 11
5500.000000000233
 21
33750.0
 31
0.0
100
AcDbText
 73
2
  0
TEXT
  5
132
330
17
100
AcDbEntity
  8
3G
100
AcDbText
 10
7101.428571428805
 20
33600.0
 30
0.0
 40
300.0
  1
D10
  7
ROMANS
 41
0.9
 72
1
 11
7500.000000000233
 21
33750.0
 31
0.0
100
AcDbText
 73
2
  0
TEXT
  5
133
330
17
100
AcDbEntity
  8
3G
100
AcDbText
 10
8739.285714285947
 20
33600.0
 30
0.0
 40
300.0
  1
E10
  7
ROMANS
 41
0.9
 72
1
 11
9125.000000000233
 21
33750.0
 31
0.0
100
AcDbText
 73
2
  0
TEXT
  5
134
330
17
100
AcDbEntity
  8
3G
100
AcDbText
 10
21595.00000000023
 20
33600.0
 30
0.0
 40
300.0
  1
N10
  7
ROMANS
 41
0.9
 72
1
 11
22000.00000000023
 21
33750.0
 31
0.0
100
AcDbText
 73
2
  0
TEXT
  5
135
330
17
100
AcDbEntity
  8
3G
100
AcDbText
 10
19832.14285714309
 20
33600.0
 30
0.0
 40
300.0
  1
M10
  7
ROMANS
 41
0.9
 72
1
 11
20250.00000000023
 21
33750.0
 31
0.0
100
AcDbText
 73
2
  0
TEXT
  5
136
330
17
100
AcDbEntity
  8
3G
100
AcDbText
 10
18377.14285714309
 20
33600.0
 30
0.0
 40
300.0
  1
L10
  7
ROMANS
 41
0.9
 72
1
 11
18750.00000000023
 21
33750.0
 31
0.0
100
AcDbText
 73
2
  0
TEXT
  5
137
330
17
100
AcDbEntity
  8
3G
100
AcDbText
 10
10857.85714285737
 20
32475.0
 30
0.0
 40
300.0
  1
G12
  7
ROMANS
 41
0.9
 72
1
 11
11250.00000000023
 21
32625.0
 31
0.0
100
AcDbText
 73
2
  0
TEXT
  5
138
330
17
100
AcDbEntity
  8
3G
100
AcDbText
 10
13935.00000000023
 20
32475.0
 30
0.0
 40
300.0
  1
I12
  7
ROMANS
 41
0.9
 72
1
 11
14250.00000000023
 21
32625.0
 31
0.0
100
AcDbText
 73
2
  0
TEXT
  5
139
330
17
100
AcDbEntity
  8
3G
100
AcDbText
 10
13935.00000000023
 20
31725.0
 30
0.0
 40
300.0
  1
I13
  7
ROMANS
 41
0.9
 72
1
 11
14250.00000000023
 21
31875.0
 31
0.0
100
AcDbText
 73
2
  0
TEXT
  5
13A
330
17
100
AcDbEntity
  8
3G
100
AcDbText
 10
15396.4285714288
 20
32475.0
 30
0.0
 40
300.0
  1
J12
  7
ROMANS
 41
0.9
 72
1
 11
15750.00000000023
 21
32625.0
 31
0.0
100
AcDbText
 73
2
  0
TEXT
  5
13B
330
17
100
AcDbEntity
  8
3G
100
AcDbText
 10
15396.4285714288
 20
31725.0
 30
0.0
 40
300.0
  1
J13
  7
ROMANS
 41
0.9
 72
1
 11
15750.00000000023
 21
31875.0
 31
0.0
100
AcDbText
 73
2
  0
TEXT
  5
13C
330
17
100
AcDbEntity
  8
3G
100
AcDbText
 10
10857.85714285737
 20
31725.0
 30
0.0
 40
300.0
  1
G13
  7
ROMANS
 41
0.9
 72
1
 11
11250.00000000023
 21
31875.0
 31
0.0
100
AcDbText
 73
2
  0
TEXT
  5
13D
330
17
100
AcDbEntity
  8
3G
100
AcDbText
 10
27101.4285714288
 20
32100.0
 30
0.0
 40
300.0
  1
O12
  7
ROMANS
 41
0.9
 72
1
 11
27500.00000000023
 21
32250.0
 31
0.0
100
AcDbText
 73
2
  0
TEXT
  5
13E
330
17
100
AcDbEntity
  8
3G
100
AcDbText
 10
12345.00000000023
 20
32475.0
 30
0.0
 40
300.0
  1
H12
  7
ROMANS
 41
0.9
 72
1
 11
12750.00000000023
 21
32625.0
 31
0.0
100
AcDbText
 73
2
  0
TEXT
  5
13F
330
17
100
AcDbEntity
  8
3G
100
AcDbText
 10
12345.00000000023
 20
31725.0
 30
0.0
 40
300.0
  1
H13
  7
ROMANS
 41
0.9
 72
1
 11
12750.00000000023
 21
31875.0
 31
0.0
100
AcDbText
 73
2
  0
TEXT
  5
140
330
17
100
AcDbEntity
  8
3G
100
AcDbText
 10
16851.4285714288
 20
32475.0
 30
0.0
 40
300.0
  1
K12
  7
ROMANS
 41
0.9
 72
1
 11
17250.00000000023
 21
32625.0
 31
0.0
100
AcDbText
 73
2
  0
TEXT
  5
141
330
17
100
AcDbEntity
  8
3G
100
AcDbText
 10
16851.4285714288
 20
31725.0
 30
0.0
 40
300.0
  1
K13
  7
ROMANS
 41
0.9
 72
1
 11
17250.00000000023
 21
31875.0
 31
0.0
100
AcDbText
 73
2
  0
TEXT
  5
142
330
17
100
AcDbEntity
  8
3G
100
AcDbText
 10
33026.42857139749
 20
32100.0
 30
0.0
 40
300.0
  1
P12
  7
ROMANS
 41
0.9
 72
1
 11
33424.99999996892
 21
32250.0
 31
0.0
100
AcDbText
 73
2
  0
TEXT
  5
143
330
17
100
AcDbEntity
  8
3G
100
AcDbText
 10
2601.428571428688
 20
32100.0
 30
0.0
 40
300.0
  1
B12
  7
ROMANS
 41
0.9
 72
1
 11
3000.000000000117
 21
32250.0
 31
0.0
100
AcDbText
 73
2
  0
TEXT
  5
144
330
17
100
AcDbEntity
  8
3G
100
AcDbText
 10
5107.857142857376
 20
32100.0
 30
0.0
 40
300.0
  1
C12
  7
ROMANS
 41
0.9
 72
1
 11
5500.000000000233
 21
32250.0
 31
0.0
100
AcDbText
 73
2
  0
TEXT
  5
145
330
17
100
AcDbEntity
  8
3G
100
AcDbText
 10
7101.428571428805
 20
32100.0
 30
0.0
 40
300.0
  1
D12
  7
ROMANS
 41
0.9
 72
1
 11
7500.000000000233
 21
32250.0
 31
0.0
100
AcDbText
 73
2
  0
TEXT
  5
146
330
17
100
AcDbEntity
  8
3G
100
AcDbText
 10
8739.285714285947
 20
32100.0
 30
0.0
 40
300.0
  1
E12
  7
ROMANS
 41
0.9
 72
1
 11
9125.000000000233
 21
32250.0
 31
0.0
100
AcDbText
 73
2
  0
TEXT
  5
147
330
17
100
AcDbEntity
  8
3G
100
AcDbText
 10
21595.00000000023
 20
32100.0
 30
0.0
 40
300.0
  1
N12
  7
ROMANS
 41
0.9
 72
1
 11
22000.00000000023
 21
32250.0
 31
0.0
100
AcDbText
 73
2
  0
TEXT
  5
148
330
17
100
AcDbEntity
  8
3G
100
AcDbText
 10
19832.14285714309
 20
32100.0
 30
0.0
 40
300.0
  1
M12
  7
ROMANS
 41
0.9
 72
1
 11
20250.00000000023
 21
32250.0
 31
0.0
100
AcDbText
 73
2
  0
TEXT
  5
149
330
17
100
AcDbEntity
  8
3G
100
AcDbText
 10
18377.14285714309
 20
32100.0
 30
0.0
 40
300.0
  1
L12
  7
ROMANS
 41
0.9
 72
1
 11
18750.00000000023
 21
32250.0
 31
0.0
100
AcDbText
 73
2
  0
TEXT
  5
14A
330
17
100
AcDbEntity
  8
3G
100
AcDbText
 10
10851.4285714288
 20
30974.99999999994
 30
0.0
 40
300.0
  1
G14
  7
ROMANS
 41
0.9
 72
1
 11
11250.00000000023
 21
31124.99999999994
 31
0.0
100
AcDbText
 73
2
  0
TEXT
  5
14B
330
17
100
AcDbEntity
  8
3G
100
AcDbText
 10
13928.57142857166
 20
30974.99999999994
 30
0.0
 40
300.0
  1
I14
  7
ROMANS
 41
0.9
 72
1
 11
14250.00000000023
 21
31124.99999999994
 31
0.0
100
AcDbText
 73
2
  0
TEXT
  5
14C
330
17
100
AcDbEntity
  8
3G
100
AcDbText
 10
13935.00000000023
 20
30224.99999999994
 30
0.0
 40
300.0
  1
I15
  7
ROMANS
 41
0.9
 72
1
 11
14250.00000000023
 21
30374.99999999994
 31
0.0
100
AcDbText
 73
2
  0
TEXT
  5
14D
330
17
100
AcDbEntity
  8
3G
100
AcDbText
 10
15390.00000000023
 20
30974.99999999994
 30
0.0
 40
300.0
  1
J14
  7
ROMANS
 41
0.9
 72
1
 11
15750.00000000023
 21
31124.99999999994
 31
0.0
100
AcDbText
 73
2
  0
TEXT
  5
14E
330
17
100
AcDbEntity
  8
3G
100
AcDbText
 10
15396.4285714288
 20
30224.99999999994
 30
0.0
 40
300.0
  1
J15
  7
ROMANS
 41
0.9
 72
1
 11
15750.00000000023
 21
30374.99999999994
 31
0.0
100
AcDbText
 73
2
  0
TEXT
  5
14F
330
17
100
AcDbEntity
  8
3G
100
AcDbText
 10
10857.85714285737
 20
30224.99999999994
 30
0.0
 40
300.0
  1
G15
  7
ROMANS
 41
0.9
 72
1
 11
11250.00000000023
 21
30374.99999999994
 31
0.0
100
AcDbText
 73
2
  0
TEXT
  5
150
330
17
100
AcDbEntity
  8
3G
100
AcDbText
 10
27095.00000000023
 20
30599.99999999994
 30
0.0
 40
300.0
  1
O14
  7
ROMANS
 41
0.9
 72
1
 11
27500.00000000023
 21
30749.99999999994
 31
0.0
100
AcDbText
 73
2
  0
TEXT
  5
151
330
17
100
AcDbEntity
  8
3G
100
AcDbText
 10
12338.57142857166
 20
30974.99999999994
 30
0.0
 40
300.0
  1
H14
  7
ROMANS
 41
0.9
 72
1
 11
12750.00000000023
 21
31124.99999999994
 31
0.0
100
AcDbText
 73
2
  0
TEXT
  5
152
330
17
100
AcDbEntity
  8
3G
100
AcDbText
 10
12345.00000000023
 20
30224.99999999994
 30
0.0
 40
300.0
  1
H15
  7
ROMANS
 41
0.9
 72
1
 11
12750.00000000023
 21
30374.99999999994
 31
0.0
100
AcDbText
 73
2
  0
TEXT
  5
153
330
17
100
AcDbEntity
  8
3G
100
AcDbText
 10
16845.00000000023
 20
30974.99999999994
 30
0.0
 40
300.0
  1
K14
  7
ROMANS
 41
0.9
 72
1
 11
17250.00000000023
 21
31124.99999999994
 31
0.0
100
AcDbText
 73
2
  0
TEXT
  5
154
330
17
100
AcDbEntity
  8
3G
100
AcDbText
 10
16851.4285714288
 20
30224.99999999994
 30
0.0
 40
300.0
  1
K15
  7
ROMANS
 41
0.9
 72
1
 11
17250.00000000023
 21
30374.99999999994
 31
0.0
100
AcDbText
 73
2
  0
TEXT
  5
155
330
17
100
AcDbEntity
  8
3G
100
AcDbText
 10
33019.99999996892
 20
30599.99999999994
 30
0.0
 40
300.0
  1
P14
  7
ROMANS
 41
0.9
 72
1
 11
33424.99999996892
 21
30749.99999999994
 31
0.0
100
AcDbText
 73
2
  0
TEXT
  5
156
330
17
100
AcDbEntity
  8
3G
100
AcDbText
 10
2595.000000000116
 20
30599.99999999994
 30
0.0
 40
300.0
  1
B14
  7
ROMANS
 41
0.9
 72
1
 11
3000.000000000117
 21
30749.99999999994
 31
0.0
100
AcDbText
 73
2
  0
TEXT
  5
157
330
17
100
AcDbEntity
  8
3G
100
AcDbText
 10
5101.428571428805
 20
30599.99999999994
 30
0.0
 40
300.0
  1
C14
  7
ROMANS
 41
0.9
 72
1
 11
5500.000000000233
 21
30749.99999999994
 31
0.0
100
AcDbText
 73
2
  0
TEXT
  5
158
330
17
100
AcDbEntity
  8
3G
100
AcDbText
 10
7095.000000000233
 20
30599.99999999994
 30
0.0
 40
300.0
  1
D14
  7
ROMANS
 41
0.9
 72
1
 11
7500.000000000233
 21
30749.99999999994
 31
0.0
100
AcDbText
 73
2
  0
TEXT
  5
159
330
17
100
AcDbEntity
  8
3G
100
AcDbText
 10
8732.857142857376
 20
30599.99999999994
 30
0.0
 40
300.0
  1
E14
  7
ROMANS
 41
0.9
 72
1
 11
9125.000000000233
 21
30749.99999999994
 31
0.0
100
AcDbText
 73
2
  0
TEXT
  5
15A
330
17
100
AcDbEntity
  8
3G
100
AcDbText
 10
21588.57142857166
 20
30599.99999999994
 30
0.0
 40
300.0
  1
N14
  7
ROMANS
 41
0.9
 72
1
 11
22000.00000000023
 21
30749.99999999994
 31
0.0
100
AcDbText
 73
2
  0
TEXT
  5
15B
330
17
100
AcDbEntity
  8
3G
100
AcDbText
 10
19825.71428571452
 20
30599.99999999994
 30
0.0
 40
300.0
  1
M14
  7
ROMANS
 41
0.9
 72
1
 11
20250.00000000023
 21
30749.99999999994
 31
0.0
100
AcDbText
 73
2
  0
TEXT
  5
15C
330
17
100
AcDbEntity
  8
3G
100
AcDbText
 10
18370.71428571452
 20
30599.99999999994
 30
0.0
 40
300.0
  1
L14
  7
ROMANS
 41
0.9
 72
1
 11
18750.00000000023
 21
30749.99999999994
 31
0.0
100
AcDbText
 73
2
  0
TEXT
  5
15D
330
17
100
AcDbEntity
  8
3G
100
AcDbText
 10
10857.85714285737
 20
29475.0
 30
0.0
 40
300.0
  1
G16
  7
ROMANS
 41
0.9
 72
1
 11
11250.00000000023
 21
29625.0
 31
0.0
100
AcDbText
 73
2
  0
TEXT
  5
15E
330
17
100
AcDbEntity
  8
3G
100
AcDbText
 10
13935.00000000023
 20
29475.0
 30
0.0
 40
300.0
  1
I16
  7
ROMANS
 41
0.9
 72
1
 11
14250.00000000023
 21
29625.0
 31
0.0
100
AcDbText
 73
2
  0
TEXT
  5
15F
330
17
100
AcDbEntity
  8
3G
100
AcDbText
 10
13935.00000000023
 20
28725.0
 30
0.0
 40
300.0
  1
I17
  7
ROMANS
 41
0.9
 72
1
 11
14250.00000000023
 21
28875.0
 31
0.0
100
AcDbText
 73
2
  0
TEXT
  5
160
330
17
100
AcDbEntity
  8
3G
100
AcDbText
 10
15396.4285714288
 20
29475.0
 30
0.0
 40
300.0
  1
J16
  7
ROMANS
 41
0.9
 72
1
 11
15750.00000000023
 21
29625.0
 31
0.0
100
AcDbText
 73
2
  0
TEXT
  5
161
330
17
100
AcDbEntity
  8
3G
100
AcDbText
 10
15396.4285714288
 20
28725.0
 30
0.0
 40
300.0
  1
J17
  7
ROMANS
 41
0.9
 72
1
 11
15750.00000000023
 21
28875.0
 31
0.0
100
AcDbText
 73
2
  0
TEXT
  5
162
330
17
100
AcDbEntity
  8
3G
100
AcDbText
 10
10857.85714285737
 20
28725.0
 30
0.0
 40
300.0
  1
G17
  7
ROMANS
 41
0.9
 72
1
 11
11250.00000000023
 21
28875.0
 31
0.0
100
AcDbText
 73
2
  0
TEXT
  5
163
330
17
100
AcDbEntity
  8
3G
100
AcDbText
 10
27101.4285714288
 20
29100.0
 30
0.0
 40
300.0
  1
O16
  7
ROMANS
 41
0.9
 72
1
 11
27500.00000000023
 21
29250.0
 31
0.0
100
AcDbText
 73
2
  0
TEXT
  5
164
330
17
100
AcDbEntity
  8
3G
100
AcDbText
 10
12345.00000000023
 20
29475.0
 30
0.0
 40
300.0
  1
H16
  7
ROMANS
 41
0.9
 72
1
 11
12750.00000000023
 21
29625.0
 31
0.0
100
AcDbText
 73
2
  0
TEXT
  5
165
330
17
100
AcDbEntity
  8
3G
100
AcDbText
 10
12345.00000000023
 20
28725.0
 30
0.0
 40
300.0
  1
H17
  7
ROMANS
 41
0.9
 72
1
 11
12750.00000000023
 21
28875.0
 31
0.0
100
AcDbText
 73
2
  0
TEXT
  5
166
330
17
100
AcDbEntity
  8
3G
100
AcDbText
 10
16851.4285714288
 20
29475.0
 30
0.0
 40
300.0
  1
K16
  7
ROMANS
 41
0.9
 72
1
 11
17250.00000000023
 21
29625.0
 31
0.0
100
AcDbText
 73
2
  0
TEXT
  5
167
330
17
100
AcDbEntity
  8
3G
100
AcDbText
 10
16851.4285714288
 20
28725.0
 30
0.0
 40
300.0
  1
K17
  7
ROMANS
 41
0.9
 72
1
 11
17250.00000000023
 21
28875.0
 31
0.0
100
AcDbText
 73
2
  0
TEXT
  5
168
330
17
100
AcDbEntity
  8
3G
100
AcDbText
 10
33026.42857139749
 20
29100.0
 30
0.0
 40
300.0
  1
P16
  7
ROMANS
 41
0.9
 72
1
 11
33424.99999996892
 21
29250.0
 31
0.0
100
AcDbText
 73
2
  0
TEXT
  5
169
330
17
100
AcDbEntity
  8
3G
100
AcDbText
 10
2601.428571428688
 20
29100.0
 30
0.0
 40
300.0
  1
B16
  7
ROMANS
 41
0.9
 72
1
 11
3000.000000000117
 21
29250.0
 31
0.0
100
AcDbText
 73
2
  0
TEXT
  5
16A
330
17
100
AcDbEntity
  8
3G
100
AcDbText
 10
5107.857142857376
 20
29100.0
 30
0.0
 40
300.0
  1
C16
  7
ROMANS
 41
0.9
 72
1
 11
5500.000000000233
 21
29250.0
 31
0.0
100
AcDbText
 73
2
  0
TEXT
  5
16B
330
17
100
AcDbEntity
  8
3G
100
AcDbText
 10
7101.428571428805
 20
29100.0
 30
0.0
 40
300.0
  1
D16
  7
ROMANS
 41
0.9
 72
1
 11
7500.000000000233
 21
29250.0
 31
0.0
100
AcDbText
 73
2
  0
TEXT
  5
16C
330
17
100
AcDbEntity
  8
3G
100
AcDbText
 10
8739.285714285947
 20
29100.0
 30
0.0
 40
300.0
  1
E16
  7
ROMANS
 41
0.9
 72
1
 11
9125.000000000233
 21
29250.0
 31
0.0
100
AcDbText
 73
2
  0
TEXT
  5
16D
330
17
100
AcDbEntity
  8
3G
100
AcDbText
 10
21595.00000000023
 20
29100.0
 30
0.0
 40
300.0
  1
N16
  7
ROMANS
 41
0.9
 72
1
 11
22000.00000000023
 21
29250.0
 31
0.0
100
AcDbText
 73
2
  0
TEXT
  5
16E
330
17
100
AcDbEntity
  8
3G
100
AcDbText
 10
19832.14285714309
 20
29100.0
 30
0.0
 40
300.0
  1
M16
  7
ROMANS
 41
0.9
 72
1
 11
20250.00000000023
 21
29250.0
 31
0.0
100
AcDbText
 73
2
  0
TEXT
  5
16F
330
17
100
AcDbEntity
  8
3G
100
AcDbText
 10
18377.14285714309
 20
29100.0
 30
0.0
 40
300.0
  1
L16
  7
ROMANS
 41
0.9
 72
1
 11
18750.00000000023
 21
29250.0
 31
0.0
100
AcDbText
 73
2
  0
TEXT
  5
170
330
17
100
AcDbEntity
  8
3G
100
AcDbText
 10
10857.85714285737
 20
27975.0
 30
0.0
 40
300.0
  1
G18
  7
ROMANS
 41
0.9
 72
1
 11
11250.00000000023
 21
28125.0
 31
0.0
100
AcDbText
 73
2
  0
TEXT
  5
171
330
17
100
AcDbEntity
  8
3G
100
AcDbText
 10
13935.00000000023
 20
27975.0
 30
0.0
 40
300.0
  1
I18
  7
ROMANS
 41
0.9
 72
1
 11
14250.00000000023
 21
28125.0
 31
0.0
100
AcDbText
 73
2
  0
TEXT
  5
172
330
17
100
AcDbEntity
  8
3G
100
AcDbText
 10
13941.4285714288
 20
27225.0
 30
0.0
 40
300.0
  1
I19
  7
ROMANS
 41
0.9
 72
1
 11
14250.00000000023
 21
27375.0
 31
0.0
100
AcDbText
 73
2
  0
TEXT
  5
173
330
17
100
AcDbEntity
  8
3G
100
AcDbText
 10
15396.4285714288
 20
27975.0
 30
0.0
 40
300.0
  1
J18
  7
ROMANS
 41
0.9
 72
1
 11
15750.00000000023
 21
28125.0
 31
0.0
100
AcDbText
 73
2
  0
TEXT
  5
174
330
17
100
AcDbEntity
  8
3G
100
AcDbText
 10
15402.85714285737
 20
27225.0
 30
0.0
 40
300.0
  1
J19
  7
ROMANS
 41
0.9
 72
1
 11
15750.00000000023
 21
27375.0
 31
0.0
100
AcDbText
 73
2
  0
TEXT
  5
175
330
17
100
AcDbEntity
  8
3G
100
AcDbText
 10
10864.28571428594
 20
27225.0
 30
0.0
 40
300.0
  1
G19
  7
ROMANS
 41
0.9
 72
1
 11
11250.00000000023
 21
27375.0
 31
0.0
100
AcDbText
 73
2
  0
TEXT
  5
176
330
17
100
AcDbEntity
  8
3G
100
AcDbText
 10
27101.4285714288
 20
27600.0
 30
0.0
 40
300.0
  1
O18
  7
ROMANS
 41
0.9
 72
1
 11
27500.00000000023
 21
27750.0
 31
0.0
100
AcDbText
 73
2
  0
TEXT
  5
177
330
17
100
AcDbEntity
  8
3G
100
AcDbText
 10
12345.00000000023
 20
27975.0
 30
0.0
 40
300.0
  1
H18
  7
ROMANS
 41
0.9
 72
1
 11
12750.00000000023
 21
28125.0
 31
0.0
100
AcDbText
 73
2
  0
TEXT
  5
178
330
17
100
AcDbEntity
  8
3G
100
AcDbText
 10
12351.4285714288
 20
27225.0
 30
0.0
 40
300.0
  1
H19
  7
ROMANS
 41
0.9
 72
1
 11
12750.00000000023
 21
27375.0
 31
0.0
100
AcDbText
 73
2
  0
TEXT
  5
179
330
17
100
AcDbEntity
  8
3G
100
AcDbText
 10
16851.4285714288
 20
27975.0
 30
0.0
 40
300.0
  1
K18
  7
ROMANS
 41
0.9
 72
1
 11
17250.00000000023
 21
28125.0
 31
0.0
100
AcDbText
 73
2
  0
TEXT
  5
17A
330
17
100
AcDbEntity
  8
3G
100
AcDbText
 10
16857.85714285737
 20
27225.0
 30
0.0
 40
300.0
  1
K19
  7
ROMANS
 41
0.9
 72
1
 11
17250.00000000023
 21
27375.0
 31
0.0
100
AcDbText
 73
2
  0
TEXT
  5
17B
330
17
100
AcDbEntity
  8
3G
100
AcDbText
 10
33026.42857139749
 20
27600.0
 30
0.0
 40
300.0
  1
P18
  7
ROMANS
 41
0.9
 72
1
 11
33424.99999996892
 21
27750.0
 31
0.0
100
AcDbText
 73
2
  0
TEXT
  5
17C
330
17
100
AcDbEntity
  8
3G
100
AcDbText
 10
2601.428571428688
 20
27600.0
 30
0.0
 40
300.0
  1
B18
  7
ROMANS
 41
0.9
 72
1
 11
3000.000000000117
 21
27750.0
 31
0.0
100
AcDbText
 73
2
  0
TEXT
  5
17D
330
17
100
AcDbEntity
  8
3G
100
AcDbText
 10
5107.857142857376
 20
27600.0
 30
0.0
 40
300.0
  1
C18
  7
ROMANS
 41
0.9
 72
1
 11
5500.000000000233
 21
27750.0
 31
0.0
100
AcDbText
 73
2
  0
TEXT
  5
17E
330
17
100
AcDbEntity
  8
3G
100
AcDbText
 10
7101.428571428805
 20
27600.0
 30
0.0
 40
300.0
  1
D18
  7
ROMANS
 41
0.9
 72
1
 11
7500.000000000233
 21
27750.0
 31
0.0
100
AcDbText
 73
2
  0
TEXT
  5
17F
330
17
100
AcDbEntity
  8
3G
100
AcDbText
 10
8739.285714285947
 20
27600.0
 30
0.0
 40
300.0
  1
E18
  7
ROMANS
 41
0.9
 72
1
 11
9125.000000000233
 21
27750.0
 31
0.0
100
AcDbText
 73
2
  0
TEXT
  5
180
330
17
100
AcDbEntity
  8
3G
100
AcDbText
 10
21595.00000000023
 20
27600.0
 30
0.0
 40
300.0
  1
N18
  7
ROMANS
 41
0.9
 72
1
 11
22000.00000000023
 21
27750.0
 31
0.0
100
AcDbText
 73
2
  0
TEXT
  5
181
330
17
100
AcDbEntity
  8
3G
100
AcDbText
 10
19832.14285714309
 20
27600.0
 30
0.0
 40
300.0
  1
M18
  7
ROMANS
 41
0.9
 72
1
 11
20250.00000000023
 21
27750.0
 31
0.0
100
AcDbText
 73
2
  0
TEXT
  5
182
330
17
100
AcDbEntity
  8
3G
100
AcDbText
 10
18377.14285714309
 20
27600.0
 30
0.0
 40
300.0
  1
L18
  7
ROMANS
 41
0.9
 72
1
 11
18750.00000000023
 21
27750.0
 31
0.0
100
AcDbText
 73
2
  0
TEXT
  5
183
330
17
100
AcDbEntity
  8
3G
100
AcDbText
 10
10857.85714285737
 20
26475.0
 30
0.0
 40
300.0
  1
G20
  7
ROMANS
 41
0.9
 72
1
 11
11250.00000000023
 21
26625.0
 31
0.0
100
AcDbText
 73
2
  0
TEXT
  5
184
330
17
100
AcDbEntity
  8
3G
100
AcDbText
 10
13935.00000000023
 20
26475.0
 30
0.0
 40
300.0
  1
I20
  7
ROMANS
 41
0.9
 72
1
 11
14250.00000000023
 21
26625.0
 31
0.0
100
AcDbText
 73
2
  0
TEXT
  5
185
330
17
100
AcDbEntity
  8
3G
100
AcDbText
 10
13973.57142857166
 20
25725.0
 30
0.0
 40
300.0
  1
I21
  7
ROMANS
 41
0.9
 72
1
 11
14250.00000000023
 21
25875.0
 31
0.0
100
AcDbText
 73
2
  0
TEXT
  5
186
330
17
100
AcDbEntity
  8
3G
100
AcDbText
 10
15396.4285714288
 20
26475.0
 30
0.0
 40
300.0
  1
J20
  7
ROMANS
 41
0.9
 72
1
 11
15750.00000000023
 21
26625.0
 31
0.0
100
AcDbText
 73
2
  0
TEXT
  5
187
330
17
100
AcDbEntity
  8
3G
100
AcDbText
 10
15435.00000000023
 20
25725.0
 30
0.0
 40
300.0
  1
J21
  7
ROMANS
 41
0.9
 72
1
 11
15750.00000000023
 21
25875.0
 31
0.0
100
AcDbText
 73
2
  0
TEXT
  5
188
330
17
100
AcDbEntity
  8
3G
100
AcDbText
 10
10896.4285714288
 20
25725.0
 30
0.0
 40
300.0
  1
G21
  7
ROMANS
 41
0.9
 72
1
 11
11250.00000000023
 21
25875.0
 31
0.0
100
AcDbText
 73
2
  0
TEXT
  5
189
330
17
100
AcDbEntity
  8
3G
100
AcDbText
 10
27101.4285714288
 20
26100.0
 30
0.0
 40
300.0
  1
O20
  7
ROMANS
 41
0.9
 72
1
 11
27500.00000000023
 21
26250.0
 31
0.0
100
AcDbText
 73
2
  0
TEXT
  5
18A
330
17
100
AcDbEntity
  8
3G
100
AcDbText
 10
12345.00000000023
 20
26475.0
 30
0.0
 40
300.0
  1
H20
  7
ROMANS
 41
0.9
 72
1
 11
12750.00000000023
 21
26625.0
 31
0.0
100
AcDbText
 73
2
  0
TEXT
  5
18B
330
17
100
AcDbEntity
  8
3G
100
AcDbText
 10
12383.57142857166
 20
25725.0
 30
0.0
 40
300.0
  1
H21
  7
ROMANS
 41
0.9
 72
1
 11
12750.00000000023
 21
25875.0
 31
0.0
100
AcDbText
 73
2
  0
TEXT
  5
18C
330
17
100
AcDbEntity
  8
3G
100
AcDbText
 10
16851.4285714288
 20
26475.0
 30
0.0
 40
300.0
  1
K20
  7
ROMANS
 41
0.9
 72
1
 11
17250.00000000023
 21
26625.0
 31
0.0
100
AcDbText
 73
2
  0
TEXT
  5
18D
330
17
100
AcDbEntity
  8
3G
100
AcDbText
 10
16890.00000000023
 20
25725.0
 30
0.0
 40
300.0
  1
K21
  7
ROMANS
 41
0.9
 72
1
 11
17250.00000000023
 21
25875.0
 31
0.0
100
AcDbText
 73
2
  0
TEXT
  5
18E
330
17
100
AcDbEntity
  8
3G
100
AcDbText
 10
33026.42857139749
 20
26100.0
 30
0.0
 40
300.0
  1
P20
  7
ROMANS
 41
0.9
 72
1
 11
33424.99999996892
 21
26250.0
 31
0.0
100
AcDbText
 73
2
  0
TEXT
  5
18F
330
17
100
AcDbEntity
  8
3G
100
AcDbText
 10
2601.428571428688
 20
26100.0
 30
0.0
 40
300.0
  1
B20
  7
ROMANS
 41
0.9
 72
1
 11
3000.000000000117
 21
26250.0
 31
0.0
100
AcDbText
 73
2
  0
TEXT
  5
190
330
17
100
AcDbEntity
  8
3G
100
AcDbText
 10
5107.857142857376
 20
26100.0
 30
0.0
 40
300.0
  1
C20
  7
ROMANS
 41
0.9
 72
1
 11
5500.000000000233
 21
26250.0
 31
0.0
100
AcDbText
 73
2
  0
TEXT
  5
191
330
17
100
AcDbEntity
  8
3G
100
AcDbText
 10
7101.428571428805
 20
26100.0
 30
0.0
 40
300.0
  1
D20
  7
ROMANS
 41
0.9
 72
1
 11
7500.000000000233
 21
26250.0
 31
0.0
100
AcDbText
 73
2
  0
TEXT
  5
192
330
17
100
AcDbEntity
  8
3G
100
AcDbText
 10
8739.285714285947
 20
26100.0
 30
0.0
 40
300.0
  1
E20
  7
ROMANS
 41
0.9
 72
1
 11
9125.000000000233
 21
26250.0
 31
0.0
100
AcDbText
 73
2
  0
TEXT
  5
193
330
17
100
AcDbEntity
  8
3G
100
AcDbText
 10
21595.00000000023
 20
26100.0
 30
0.0
 40
300.0
  1
N20
  7
ROMANS
 41
0.9
 72
1
 11
22000.00000000023
 21
26250.0
 31
0.0
100
AcDbText
 73
2
  0
TEXT
  5
194
330
17
100
AcDbEntity
  8
3G
100
AcDbText
 10
19832.14285714309
 20
26100.0
 30
0.0
 40
300.0
  1
M20
  7
ROMANS
 41
0.9
 72
1
 11
20250.00000000023
 21
26250.0
 31
0.0
100
AcDbText
 73
2
  0
TEXT
  5
195
330
17
100
AcDbEntity
  8
3G
100
AcDbText
 10
18377.14285714309
 20
26100.0
 30
0.0
 40
300.0
  1
L20
  7
ROMANS
 41
0.9
 72
1
 11
18750.00000000023
 21
26250.0
 31
0.0
100
AcDbText
 73
2
  0
TEXT
  5
196
330
17
100
AcDbEntity
  8
3G
100
AcDbText
 10
10857.85714285737
 20
24974.99999999988
 30
0.0
 40
300.0
  1
G22
  7
ROMANS
 41
0.9
 72
1
 11
11250.00000000023
 21
25124.99999999989
 31
0.0
100
AcDbText
 73
2
  0
TEXT
  5
197
330
17
100
AcDbEntity
  8
3G
100
AcDbText
 10
13935.00000000023
 20
24974.99999999988
 30
0.0
 40
300.0
  1
I22
  7
ROMANS
 41
0.9
 72
1
 11
14250.00000000023
 21
25124.99999999989
 31
0.0
100
AcDbText
 73
2
  0
TEXT
  5
198
330
17
100
AcDbEntity
  8
3G
100
AcDbText
 10
13935.00000000023
 20
24224.99999999988
 30
0.0
 40
300.0
  1
I23
  7
ROMANS
 41
0.9
 72
1
 11
14250.00000000023
 21
24374.99999999988
 31
0.0
100
AcDbText
 73
2
  0
TEXT
  5
199
330
17
100
AcDbEntity
  8
3G
100
AcDbText
 10
15396.4285714288
 20
24974.99999999988
 30
0.0
 40
300.0
  1
J22
  7
ROMANS
 41
0.9
 72
1
 11
15750.00000000023
 21
25124.99999999989
 31
0.0
100
AcDbText
 73
2
  0
TEXT
  5
19A
330
17
100
AcDbEntity
  8
3G
100
AcDbText
 10
15396.4285714288
 20
24224.99999999988
 30
0.0
 40
300.0
  1
J23
  7
ROMANS
 41
0.9
 72
1
 11
15750.00000000023
 21
24374.99999999988
 31
0.0
100
AcDbText
 73
2
  0
TEXT
  5
19B
330
17
100
AcDbEntity
  8
3G
100
AcDbText
 10
10857.85714285737
 20
24224.99999999988
 30
0.0
 40
300.0
  1
G23
  7
ROMANS
 41
0.9
 72
1
 11
11250.00000000023
 21
24374.99999999988
 31
0.0
100
AcDbText
 73
2
  0
TEXT
  5
19C
330
17
100
AcDbEntity
  8
3G
100
AcDbText
 10
27101.4285714288
 20
24599.99999999988
 30
0.0
 40
300.0
  1
O22
  7
ROMANS
 41
0.9
 72
1
 11
27500.00000000023
 21
24749.99999999988
 31
0.0
100
AcDbText
 73
2
  0
TEXT
  5
19D
330
17
100
AcDbEntity
  8
3G
100
AcDbText
 10
12345.00000000023
 20
24974.99999999988
 30
0.0
 40
300.0
  1
H22
  7
ROMANS
 41
0.9
 72
1
 11
12750.00000000023
 21
25124.99999999989
 31
0.0
100
AcDbText
 73
2
  0
TEXT
  5
19E
330
17
100
AcDbEntity
  8
3G
100
AcDbText
 10
12345.00000000023
 20
24224.99999999988
 30
0.0
 40
300.0
  1
H23
  7
ROMANS
 41
0.9
 72
1
 11
12750.00000000023
 21
24374.99999999988
 31
0.0
100
AcDbText
 73
2
  0
TEXT
  5
19F
330
17
100
AcDbEntity
  8
3G
100
AcDbText
 10
16851.4285714288
 20
24974.99999999988
 30
0.0
 40
300.0
  1
K22
  7
ROMANS
 41
0.9
 72
1
 11
17250.00000000023
 21
25124.99999999989
 31
0.0
100
AcDbText
 73
2
  0
TEXT
  5
1A0
330
17
100
AcDbEntity
  8
3G
100
AcDbText
 10
16851.4285714288
 20
24224.99999999988
 30
0.0
 40
300.0
  1
K23
  7
ROMANS
 41
0.9
 72
1
 11
17250.00000000023
 21
24374.99999999988
 31
0.0
100
AcDbText
 73
2
  0
TEXT
  5
1A1
330
17
100
AcDbEntity
  8
3G
100
AcDbText
 10
33026.42857139749
 20
24599.99999999988
 30
0.0
 40
300.0
  1
P22
  7
ROMANS
 41
0.9
 72
1
 11
33424.99999996892
 21
24749.99999999988
 31
0.0
100
AcDbText
 73
2
  0
TEXT
  5
1A2
330
17
100
AcDbEntity
  8
3G
100
AcDbText
 10
2601.428571428688
 20
24599.99999999988
 30
0.0
 40
300.0
  1
B22
  7
ROMANS
 41
0.9
 72
1
 11
3000.000000000117
 21
24749.99999999988
 31
0.0
100
AcDbText
 73
2
  0
TEXT
  5
1A3
330
17
100
AcDbEntity
  8
3G
100
AcDbText
 10
5107.857142857376
 20
24599.99999999988
 30
0.0
 40
300.0
  1
C22
  7
ROMANS
 41
0.9
 72
1
 11
5500.000000000233
 21
24749.99999999988
 31
0.0
100
AcDbText
 73
2
  0
TEXT
  5
1A4
330
17
100
AcDbEntity
  8
3G
100
AcDbText
 10
7101.428571428805
 20
24599.99999999988
 30
0.0
 40
300.0
  1
D22
  7
ROMANS
 41
0.9
 72
1
 11
7500.000000000233
 21
24749.99999999988
 31
0.0
100
AcDbText
 73
2
  0
TEXT
  5
1A5
330
17
100
AcDbEntity
  8
3G
100
AcDbText
 10
8739.285714285947
 20
24599.99999999988
 30
0.0
 40
300.0
  1
E22
  7
ROMANS
 41
0.9
 72
1
 11
9125.000000000233
 21
24749.99999999988
 31
0.0
100
AcDbText
 73
2
  0
TEXT
  5
1A6
330
17
100
AcDbEntity
  8
3G
100
AcDbText
 10
21595.00000000023
 20
24599.99999999988
 30
0.0
 40
300.0
  1
N22
  7
ROMANS
 41
0.9
 72
1
 11
22000.00000000023
 21
24749.99999999988
 31
0.0
100
AcDbText
 73
2
  0
TEXT
  5
1A7
330
17
100
AcDbEntity
  8
3G
100
AcDbText
 10
19832.14285714309
 20
24599.99999999988
 30
0.0
 40
300.0
  1
M22
  7
ROMANS
 41
0.9
 72
1
 11
20250.00000000023
 21
24749.99999999988
 31
0.0
100
AcDbText
 73
2
  0
TEXT
  5
1A8
330
17
100
AcDbEntity
  8
3G
100
AcDbText
 10
18377.14285714309
 20
24599.99999999988
 30
0.0
 40
300.0
  1
L22
  7
ROMANS
 41
0.9
 72
1
 11
18750.00000000023
 21
24749.99999999988
 31
0.0
100
AcDbText
 73
2
  0
TEXT
  5
1A9
330
17
100
AcDbEntity
  8
3G
100
AcDbText
 10
10851.4285714288
 20
23474.99999999989
 30
0.0
 40
300.0
  1
G24
  7
ROMANS
 41
0.9
 72
1
 11
11250.00000000023
 21
23624.99999999988
 31
0.0
100
AcDbText
 73
2
  0
TEXT
  5
1AA
330
17
100
AcDbEntity
  8
3G
100
AcDbText
 10
13928.57142857166
 20
23474.99999999989
 30
0.0
 40
300.0
  1
I24
  7
ROMANS
 41
0.9
 72
1
 11
14250.00000000023
 21
23624.99999999988
 31
0.0
100
AcDbText
 73
2
  0
TEXT
  5
1AB
330
17
100
AcDbEntity
  8
3G
100
AcDbText
 10
13935.00000000023
 20
22724.99999999988
 30
0.0
 40
300.0
  1
I25
  7
ROMANS
 41
0.9
 72
1
 11
14250.00000000023
 21
22874.99999999988
 31
0.0
100
AcDbText
 73
2
  0
TEXT
  5
1AC
330
17
100
AcDbEntity
  8
3G
100
AcDbText
 10
15390.00000000023
 20
23474.99999999989
 30
0.0
 40
300.0
  1
J24
  7
ROMANS
 41
0.9
 72
1
 11
15750.00000000023
 21
23624.99999999988
 31
0.0
100
AcDbText
 73
2
  0
TEXT
  5
1AD
330
17
100
AcDbEntity
  8
3G
100
AcDbText
 10
15396.4285714288
 20
22724.99999999988
 30
0.0
 40
300.0
  1
J25
  7
ROMANS
 41
0.9
 72
1
 11
15750.00000000023
 21
22874.99999999988
 31
0.0
100
AcDbText
 73
2
  0
TEXT
  5
1AE
330
17
100
AcDbEntity
  8
3G
100
AcDbText
 10
10857.85714285737
 20
22724.99999999988
 30
0.0
 40
300.0
  1
G25
  7
ROMANS
 41
0.9
 72
1
 11
11250.00000000023
 21
22874.99999999988
 31
0.0
100
AcDbText
 73
2
  0
TEXT
  5
1AF
330
17
100
AcDbEntity
  8
3G
100
AcDbText
 10
27095.00000000023
 20
23099.99999999988
 30
0.0
 40
300.0
  1
O24
  7
ROMANS
 41
0.9
 72
1
 11
27500.00000000023
 21
23249.99999999989
 31
0.0
100
AcDbText
 73
2
  0
TEXT
  5
1B0
330
17
100
AcDbEntity
  8
3G
100
AcDbText
 10
12338.57142857166
 20
23474.99999999989
 30
0.0
 40
300.0
  1
H24
  7
ROMANS
 41
0.9
 72
1
 11
12750.00000000023
 21
23624.99999999988
 31
0.0
100
AcDbText
 73
2
  0
TEXT
  5
1B1
330
17
100
AcDbEntity
  8
3G
100
AcDbText
 10
12345.00000000023
 20
22724.99999999988
 30
0.0
 40
300.0
  1
H25
  7
ROMANS
 41
0.9
 72
1
 11
12750.00000000023
 21
22874.99999999988
 31
0.0
100
AcDbText
 73
2
  0
TEXT
  5
1B2
330
17
100
AcDbEntity
  8
3G
100
AcDbText
 10
16845.00000000023
 20
23474.99999999989
 30
0.0
 40
300.0
  1
K24
  7
ROMANS
 41
0.9
 72
1
 11
17250.00000000023
 21
23624.99999999988
 31
0.0
100
AcDbText
 73
2
  0
TEXT
  5
1B3
330
17
100
AcDbEntity
  8
3G
100
AcDbText
 10
16851.4285714288
 20
22724.99999999988
 30
0.0
 40
300.0
  1
K25
  7
ROMANS
 41
0.9
 72
1
 11
17250.00000000023
 21
22874.99999999988
 31
0.0
100
AcDbText
 73
2
  0
TEXT
  5
1B4
330
17
100
AcDbEntity
  8
3G
100
AcDbText
 10
33019.99999996892
 20
23099.99999999988
 30
0.0
 40
300.0
  1
P24
  7
ROMANS
 41
0.9
 72
1
 11
33424.99999996892
 21
23249.99999999989
 31
0.0
100
AcDbText
 73
2
  0
TEXT
  5
1B5
330
17
100
AcDbEntity
  8
3G
100
AcDbText
 10
2595.000000000116
 20
23099.99999999988
 30
0.0
 40
300.0
  1
B24
  7
ROMANS
 41
0.9
 72
1
 11
3000.000000000117
 21
23249.99999999989
 31
0.0
100
AcDbText
 73
2
  0
TEXT
  5
1B6
330
17
100
AcDbEntity
  8
3G
100
AcDbText
 10
5101.428571428805
 20
23099.99999999988
 30
0.0
 40
300.0
  1
C24
  7
ROMANS
 41
0.9
 72
1
 11
5500.000000000233
 21
23249.99999999989
 31
0.0
100
AcDbText
 73
2
  0
TEXT
  5
1B7
330
17
100
AcDbEntity
  8
3G
100
AcDbText
 10
7095.000000000233
 20
23099.99999999988
 30
0.0
 40
300.0
  1
D24
  7
ROMANS
 41
0.9
 72
1
 11
7500.000000000233
 21
23249.99999999989
 31
0.0
100
AcDbText
 73
2
  0
TEXT
  5
1B8
330
17
100
AcDbEntity
  8
3G
100
AcDbText
 10
8732.857142857376
 20
23099.99999999988
 30
0.0
 40
300.0
  1
E24
  7
ROMANS
 41
0.9
 72
1
 11
9125.000000000233
 21
23249.99999999989
 31
0.0
100
AcDbText
 73
2
  0
TEXT
  5
1B9
330
17
100
AcDbEntity
  8
3G
100
AcDbText
 10
21588.57142857166
 20
23099.99999999988
 30
0.0
 40
300.0
  1
N24
  7
ROMANS
 41
0.9
 72
1
 11
22000.00000000023
 21
23249.99999999989
 31
0.0
100
AcDbText
 73
2
  0
TEXT
  5
1BA
330
17
100
AcDbEntity
  8
3G
100
AcDbText
 10
19825.71428571452
 20
23099.99999999988
 30
0.0
 40
300.0
  1
M24
  7
ROMANS
 41
0.9
 72
1
 11
20250.00000000023
 21
23249.99999999989
 31
0.0
100
AcDbText
 73
2
  0
TEXT
  5
1BB
330
17
100
AcDbEntity
  8
3G
100
AcDbText
 10
18370.71428571452
 20
23099.99999999988
 30
0.0
 40
300.0
  1
L24
  7
ROMANS
 41
0.9
 72
1
 11
18750.00000000023
 21
23249.99999999989
 31
0.0
100
AcDbText
 73
2
  0
TEXT
  5
1BC
330
17
100
AcDbEntity
  8
3G
100
AcDbText
 10
10857.85714285737
 20
21974.99999999994
 30
0.0
 40
300.0
  1
G26
  7
ROMANS
 41
0.9
 72
1
 11
11250.00000000023
 21
22124.99999999994
 31
0.0
100
AcDbText
 73
2
  0
TEXT
  5
1BD
330
17
100
AcDbEntity
  8
3G
100
AcDbText
 10
13935.00000000023
 20
21974.99999999994
 30
0.0
 40
300.0
  1
I26
  7
ROMANS
 41
0.9
 72
1
 11
14250.00000000023
 21
22124.99999999994
 31
0.0
100
AcDbText
 73
2
  0
TEXT
  5
1BE
330
17
100
AcDbEntity
  8
3G
100
AcDbText
 10
13935.00000000023
 20
21224.99999999994
 30
0.0
 40
300.0
  1
I27
  7
ROMANS
 41
0.9
 72
1
 11
14250.00000000023
 21
21374.99999999994
 31
0.0
100
AcDbText
 73
2
  0
TEXT
  5
1BF
330
17
100
AcDbEntity
  8
3G
100
AcDbText
 10
15396.4285714288
 20
21974.99999999994
 30
0.0
 40
300.0
  1
J26
  7
ROMANS
 41
0.9
 72
1
 11
15750.00000000023
 21
22124.99999999994
 31
0.0
100
AcDbText
 73
2
  0
TEXT
  5
1C0
330
17
100
AcDbEntity
  8
3G
100
AcDbText
 10
15396.4285714288
 20
21224.99999999994
 30
0.0
 40
300.0
  1
J27
  7
ROMANS
 41
0.9
 72
1
 11
15750.00000000023
 21
21374.99999999994
 31
0.0
100
AcDbText
 73
2
  0
TEXT
  5
1C1
330
17
100
AcDbEntity
  8
3G
100
AcDbText
 10
10857.85714285737
 20
21224.99999999994
 30
0.0
 40
300.0
  1
G27
  7
ROMANS
 41
0.9
 72
1
 11
11250.00000000023
 21
21374.99999999994
 31
0.0
100
AcDbText
 73
2
  0
TEXT
  5
1C2
330
17
100
AcDbEntity
  8
3G
100
AcDbText
 10
27101.4285714288
 20
21599.99999999994
 30
0.0
 40
300.0
  1
O26
  7
ROMANS
 41
0.9
 72
1
 11
27500.00000000023
 21
21749.99999999994
 31
0.0
100
AcDbText
 73
2
  0
TEXT
  5
1C3
330
17
100
AcDbEntity
  8
3G
100
AcDbText
 10
12345.00000000023
 20
21974.99999999994
 30
0.0
 40
300.0
  1
H26
  7
ROMANS
 41
0.9
 72
1
 11
12750.00000000023
 21
22124.99999999994
 31
0.0
100
AcDbText
 73
2
  0
TEXT
  5
1C4
330
17
100
AcDbEntity
  8
3G
100
AcDbText
 10
12345.00000000023
 20
21224.99999999994
 30
0.0
 40
300.0
  1
H27
  7
ROMANS
 41
0.9
 72
1
 11
12750.00000000023
 21
21374.99999999994
 31
0.0
100
AcDbText
 73
2
  0
TEXT
  5
1C5
330
17
100
AcDbEntity
  8
3G
100
AcDbText
 10
16851.4285714288
 20
21974.99999999994
 30
0.0
 40
300.0
  1
K26
  7
ROMANS
 41
0.9
 72
1
 11
17250.00000000023
 21
22124.99999999994
 31
0.0
100
AcDbText
 73
2
  0
TEXT
  5
1C6
330
17
100
AcDbEntity
  8
3G
100
AcDbText
 10
16851.4285714288
 20
21224.99999999994
 30
0.0
 40
300.0
  1
K27
  7
ROMANS
 41
0.9
 72
1
 11
17250.00000000023
 21
21374.99999999994
 31
0.0
100
AcDbText
 73
2
  0
TEXT
  5
1C7
330
17
100
AcDbEntity
  8
3G
100
AcDbText
 10
33026.42857139749
 20
21599.99999999994
 30
0.0
 40
300.0
  1
P26
  7
ROMANS
 41
0.9
 72
1
 11
33424.99999996892
 21
21749.99999999994
 31
0.0
100
AcDbText
 73
2
  0
TEXT
  5
1C8
330
17
100
AcDbEntity
  8
3G
100
AcDbText
 10
2601.428571428688
 20
21599.99999999994
 30
0.0
 40
300.0
  1
B26
  7
ROMANS
 41
0.9
 72
1
 11
3000.000000000117
 21
21749.99999999994
 31
0.0
100
AcDbText
 73
2
  0
TEXT
  5
1C9
330
17
100
AcDbEntity
  8
3G
100
AcDbText
 10
5107.857142857376
 20
21599.99999999994
 30
0.0
 40
300.0
  1
C26
  7
ROMANS
 41
0.9
 72
1
 11
5500.000000000233
 21
21749.99999999994
 31
0.0
100
AcDbText
 73
2
  0
TEXT
  5
1CA
330
17
100
AcDbEntity
  8
3G
100
AcDbText
 10
7101.428571428805
 20
21599.99999999994
 30
0.0
 40
300.0
  1
D26
  7
ROMANS
 41
0.9
 72
1
 11
7500.000000000233
 21
21749.99999999994
 31
0.0
100
AcDbText
 73
2
  0
TEXT
  5
1CB
330
17
100
AcDbEntity
  8
3G
100
AcDbText
 10
8739.285714285947
 20
21599.99999999994
 30
0.0
 40
300.0
  1
E26
  7
ROMANS
 41
0.9
 72
1
 11
9125.000000000233
 21
21749.99999999994
 31
0.0
100
AcDbText
 73
2
  0
TEXT
  5
1CC
330
17
100
AcDbEntity
  8
3G
100
AcDbText
 10
21595.00000000023
 20
21599.99999999994
 30
0.0
 40
300.0
  1
N26
  7
ROMANS
 41
0.9
 72
1
 11
22000.00000000023
 21
21749.99999999994
 31
0.0
100
AcDbText
 73
2
  0
TEXT
  5
1CD
330
17
100
AcDbEntity
  8
3G
100
AcDbText
 10
19832.14285714309
 20
21599.99999999994
 30
0.0
 40
300.0
  1
M26
  7
ROMANS
 41
0.9
 72
1
 11
20250.00000000023
 21
21749.99999999994
 31
0.0
100
AcDbText
 73
2
  0
TEXT
  5
1CE
330
17
100
AcDbEntity
  8
3G
100
AcDbText
 10
18377.14285714309
 20
21599.99999999994
 30
0.0
 40
300.0
  1
L26
  7
ROMANS
 41
0.9
 72
1
 11
18750.00000000023
 21
21749.99999999994
 31
0.0
100
AcDbText
 73
2
  0
TEXT
  5
1CF
330
17
100
AcDbEntity
  8
3G
100
AcDbText
 10
10857.85714285737
 20
20474.99999999994
 30
0.0
 40
300.0
  1
G28
  7
ROMANS
 41
0.9
 72
1
 11
11250.00000000023
 21
20624.99999999994
 31
0.0
100
AcDbText
 73
2
  0
TEXT
  5
1D0
330
17
100
AcDbEntity
  8
3G
100
AcDbText
 10
13935.00000000023
 20
20474.99999999994
 30
0.0
 40
300.0
  1
I28
  7
ROMANS
 41
0.9
 72
1
 11
14250.00000000023
 21
20624.99999999994
 31
0.0
100
AcDbText
 73
2
  0
TEXT
  5
1D1
330
17
100
AcDbEntity
  8
3G
100
AcDbText
 10
13941.4285714288
 20
19724.99999999994
 30
0.0
 40
300.0
  1
I29
  7
ROMANS
 41
0.9
 72
1
 11
14250.00000000023
 21
19874.99999999994
 31
0.0
100
AcDbText
 73
2
  0
TEXT
  5
1D2
330
17
100
AcDbEntity
  8
3G
100
AcDbText
 10
15396.4285714288
 20
20474.99999999994
 30
0.0
 40
300.0
  1
J28
  7
ROMANS
 41
0.9
 72
1
 11
15750.00000000023
 21
20624.99999999994
 31
0.0
100
AcDbText
 73
2
  0
TEXT
  5
1D3
330
17
100
AcDbEntity
  8
3G
100
AcDbText
 10
15402.85714285737
 20
19724.99999999994
 30
0.0
 40
300.0
  1
J29
  7
ROMANS
 41
0.9
 72
1
 11
15750.00000000023
 21
19874.99999999994
 31
0.0
100
AcDbText
 73
2
  0
TEXT
  5
1D4
330
17
100
AcDbEntity
  8
3G
100
AcDbText
 10
10864.28571428594
 20
19724.99999999994
 30
0.0
 40
300.0
  1
G29
  7
ROMANS
 41
0.9
 72
1
 11
11250.00000000023
 21
19874.99999999994
 31
0.0
100
AcDbText
 73
2
  0
TEXT
  5
1D5
330
17
100
AcDbEntity
  8
3G
100
AcDbText
 10
27101.4285714288
 20
20099.99999999994
 30
0.0
 40
300.0
  1
O28
  7
ROMANS
 41
0.9
 72
1
 11
27500.00000000023
 21
20249.99999999994
 31
0.0
100
AcDbText
 73
2
  0
TEXT
  5
1D6
330
17
100
AcDbEntity
  8
3G
100
AcDbText
 10
12345.00000000023
 20
20474.99999999994
 30
0.0
 40
300.0
  1
H28
  7
ROMANS
 41
0.9
 72
1
 11
12750.00000000023
 21
20624.99999999994
 31
0.0
100
AcDbText
 73
2
  0
TEXT
  5
1D7
330
17
100
AcDbEntity
  8
3G
100
AcDbText
 10
12351.4285714288
 20
19724.99999999994
 30
0.0
 40
300.0
  1
H29
  7
ROMANS
 41
0.9
 72
1
 11
12750.00000000023
 21
19874.99999999994
 31
0.0
100
AcDbText
 73
2
  0
TEXT
  5
1D8
330
17
100
AcDbEntity
  8
3G
100
AcDbText
 10
16851.4285714288
 20
20474.99999999994
 30
0.0
 40
300.0
  1
K28
  7
ROMANS
 41
0.9
 72
1
 11
17250.00000000023
 21
20624.99999999994
 31
0.0
100
AcDbText
 73
2
  0
TEXT
  5
1D9
330
17
100
AcDbEntity
  8
3G
100
AcDbText
 10
16857.85714285737
 20
19724.99999999994
 30
0.0
 40
300.0
  1
K29
  7
ROMANS
 41
0.9
 72
1
 11
17250.00000000023
 21
19874.99999999994
 31
0.0
100
AcDbText
 73
2
  0
TEXT
  5
1DA
330
17
100
AcDbEntity
  8
3G
100
AcDbText
 10
33026.42857139749
 20
20099.99999999994
 30
0.0
 40
300.0
  1
P28
  7
ROMANS
 41
0.9
 72
1
 11
33424.99999996892
 21
20249.99999999994
 31
0.0
100
AcDbText
 73
2
  0
TEXT
  5
1DB
330
17
100
AcDbEntity
  8
3G
100
AcDbText
 10
2601.428571428688
 20
20099.99999999994
 30
0.0
 40
300.0
  1
B28
  7
ROMANS
 41
0.9
 72
1
 11
3000.000000000117
 21
20249.99999999994
 31
0.0
100
AcDbText
 73
2
  0
TEXT
  5
1DC
330
17
100
AcDbEntity
  8
3G
100
AcDbText
 10
5107.857142857376
 20
20099.99999999994
 30
0.0
 40
300.0
  1
C28
  7
ROMANS
 41
0.9
 72
1
 11
5500.000000000233
 21
20249.99999999994
 31
0.0
100
AcDbText
 73
2
  0
TEXT
  5
1DD
330
17
100
AcDbEntity
  8
3G
100
AcDbText
 10
7101.428571428805
 20
20099.99999999994
 30
0.0
 40
300.0
  1
D28
  7
ROMANS
 41
0.9
 72
1
 11
7500.000000000233
 21
20249.99999999994
 31
0.0
100
AcDbText
 73
2
  0
TEXT
  5
1DE
330
17
100
AcDbEntity
  8
3G
100
AcDbText
 10
8739.285714285947
 20
20099.99999999994
 30
0.0
 40
300.0
  1
E28
  7
ROMANS
 41
0.9
 72
1
 11
9125.000000000233
 21
20249.99999999994
 31
0.0
100
AcDbText
 73
2
  0
TEXT
  5
1DF
330
17
100
AcDbEntity
  8
3G
100
AcDbText
 10
21595.00000000023
 20
20099.99999999994
 30
0.0
 40
300.0
  1
N28
  7
ROMANS
 41
0.9
 72
1
 11
22000.00000000023
 21
20249.99999999994
 31
0.0
100
AcDbText
 73
2
  0
TEXT
  5
1E0
330
17
100
AcDbEntity
  8
3G
100
AcDbText
 10
19832.14285714309
 20
20099.99999999994
 30
0.0
 40
300.0
  1
M28
  7
ROMANS
 41
0.9
 72
1
 11
20250.00000000023
 21
20249.99999999994
 31
0.0
100
AcDbText
 73
2
  0
TEXT
  5
1E1
330
17
100
AcDbEntity
  8
3G
100
AcDbText
 10
18377.14285714309
 20
20099.99999999994
 30
0.0
 40
300.0
  1
L28
  7
ROMANS
 41
0.9
 72
1
 11
18750.00000000023
 21
20249.99999999994
 31
0.0
100
AcDbText
 73
2
  0
TEXT
  5
1E2
330
17
100
AcDbEntity
  8
3G
100
AcDbText
 10
10857.85714285737
 20
18974.99999999994
 30
0.0
 40
300.0
  1
G30
  7
ROMANS
 41
0.9
 72
1
 11
11250.00000000023
 21
19124.99999999994
 31
0.0
100
AcDbText
 73
2
  0
TEXT
  5
1E3
330
17
100
AcDbEntity
  8
3G
100
AcDbText
 10
13935.00000000023
 20
18974.99999999994
 30
0.0
 40
300.0
  1
I30
  7
ROMANS
 41
0.9
 72
1
 11
14250.00000000023
 21
19124.99999999994
 31
0.0
100
AcDbText
 73
2
  0
TEXT
  5
1E4
330
17
100
AcDbEntity
  8
3G
100
AcDbText
 10
13973.57142857166
 20
18224.99999999994
 30
0.0
 40
300.0
  1
I31
  7
ROMANS
 41
0.9
 72
1
 11
14250.00000000023
 21
18374.99999999994
 31
0.0
100
AcDbText
 73
2
  0
TEXT
  5
1E5
330
17
100
AcDbEntity
  8
3G
100
AcDbText
 10
15396.4285714288
 20
18974.99999999994
 30
0.0
 40
300.0
  1
J30
  7
ROMANS
 41
0.9
 72
1
 11
15750.00000000023
 21
19124.99999999994
 31
0.0
100
AcDbText
 73
2
  0
TEXT
  5
1E6
330
17
100
AcDbEntity
  8
3G
100
AcDbText
 10
15435.00000000023
 20
18224.99999999994
 30
0.0
 40
300.0
  1
J31
  7
ROMANS
 41
0.9
 72
1
 11
15750.00000000023
 21
18374.99999999994
 31
0.0
100
AcDbText
 73
2
  0
TEXT
  5
1E7
330
17
100
AcDbEntity
  8
3G
100
AcDbText
 10
10896.4285714288
 20
18224.99999999994
 30
0.0
 40
300.0
  1
G31
  7
ROMANS
 41
0.9
 72
1
 11
11250.00000000023
 21
18374.99999999994
 31
0.0
100
AcDbText
 73
2
  0
TEXT
  5
1E8
330
17
100
AcDbEntity
  8
3G
100
AcDbText
 10
27101.4285714288
 20
18599.99999999994
 30
0.0
 40
300.0
  1
O30
  7
ROMANS
 41
0.9
 72
1
 11
27500.00000000023
 21
18749.99999999994
 31
0.0
100
AcDbText
 73
2
  0
TEXT
  5
1E9
330
17
100
AcDbEntity
  8
3G
100
AcDbText
 10
12345.00000000023
 20
18974.99999999994
 30
0.0
 40
300.0
  1
H30
  7
ROMANS
 41
0.9
 72
1
 11
12750.00000000023
 21
19124.99999999994
 31
0.0
100
AcDbText
 73
2
  0
TEXT
  5
1EA
330
17
100
AcDbEntity
  8
3G
100
AcDbText
 10
12383.57142857166
 20
18224.99999999994
 30
0.0
 40
300.0
  1
H31
  7
ROMANS
 41
0.9
 72
1
 11
12750.00000000023
 21
18374.99999999994
 31
0.0
100
AcDbText
 73
2
  0
TEXT
  5
1EB
330
17
100
AcDbEntity
  8
3G
100
AcDbText
 10
16851.4285714288
 20
18974.99999999994
 30
0.0
 40
300.0
  1
K30
  7
ROMANS
 41
0.9
 72
1
 11
17250.00000000023
 21
19124.99999999994
 31
0.0
100
AcDbText
 73
2
  0
TEXT
  5
1EC
330
17
100
AcDbEntity
  8
3G
100
AcDbText
 10
16890.00000000023
 20
18224.99999999994
 30
0.0
 40
300.0
  1
K31
  7
ROMANS
 41
0.9
 72
1
 11
17250.00000000023
 21
18374.99999999994
 31
0.0
100
AcDbText
 73
2
  0
TEXT
  5
1ED
330
17
100
AcDbEntity
  8
3G
100
AcDbText
 10
33026.42857139749
 20
18599.99999999994
 30
0.0
 40
300.0
  1
P30
  7
ROMANS
 41
0.9
 72
1
 11
33424.99999996892
 21
18749.99999999994
 31
0.0
100
AcDbText
 73
2
  0
TEXT
  5
1EE
330
17
100
AcDbEntity
  8
3G
100
AcDbText
 10
2601.428571428688
 20
18599.99999999994
 30
0.0
 40
300.0
  1
B30
  7
ROMANS
 41
0.9
 72
1
 11
3000.000000000117
 21
18749.99999999994
 31
0.0
100
AcDbText
 73
2
  0
TEXT
  5
1EF
330
17
100
AcDbEntity
  8
3G
100
AcDbText
 10
5107.857142857376
 20
18599.99999999994
 30
0.0
 40
300.0
  1
C30
  7
ROMANS
 41
0.9
 72
1
 11
5500.000000000233
 21
18749.99999999994
 31
0.0
100
AcDbText
 73
2
  0
TEXT
  5
1F0
330
17
100
AcDbEntity
  8
3G
100
AcDbText
 10
7101.428571428805
 20
18599.99999999994
 30
0.0
 40
300.0
  1
D30
  7
ROMANS
 41
0.9
 72
1
 11
7500.000000000233
 21
18749.99999999994
 31
0.0
100
AcDbText
 73
2
  0
TEXT
  5
1F1
330
17
100
AcDbEntity
  8
3G
100
AcDbText
 10
8739.285714285947
 20
18599.99999999994
 30
0.0
 40
300.0
  1
E30
  7
ROMANS
 41
0.9
 72
1
 11
9125.000000000233
 21
18749.99999999994
 31
0.0
100
AcDbText
 73
2
  0
TEXT
  5
1F2
330
17
100
AcDbEntity
  8
3G
100
AcDbText
 10
21595.00000000023
 20
18599.99999999994
 30
0.0
 40
300.0
  1
N30
  7
ROMANS
 41
0.9
 72
1
 11
22000.00000000023
 21
18749.99999999994
 31
0.0
100
AcDbText
 73
2
  0
TEXT
  5
1F3
330
17
100
AcDbEntity
  8
3G
100
AcDbText
 10
19832.14285714309
 20
18599.99999999994
 30
0.0
 40
300.0
  1
M30
  7
ROMANS
 41
0.9
 72
1
 11
20250.00000000023
 21
18749.99999999994
 31
0.0
100
AcDbText
 73
2
  0
TEXT
  5
1F4
330
17
100
AcDbEntity
  8
3G
100
AcDbText
 10
18377.14285714309
 20
18599.99999999994
 30
0.0
 40
300.0
  1
L30
  7
ROMANS
 41
0.9
 72
1
 11
18750.00000000023
 21
18749.99999999994
 31
0.0
100
AcDbText
 73
2
  0
TEXT
  5
1F5
330
17
100
AcDbEntity
  8
3G
100
AcDbText
 10
10857.85714285737
 20
17474.99999999982
 30
0.0
 40
300.0
  1
G32
  7
ROMANS
 41
0.9
 72
1
 11
11250.00000000023
 21
17624.99999999982
 31
0.0
100
AcDbText
 73
2
  0
TEXT
  5
1F6
330
17
100
AcDbEntity
  8
3G
100
AcDbText
 10
13935.00000000023
 20
17474.99999999982
 30
0.0
 40
300.0
  1
I32
  7
ROMANS
 41
0.9
 72
1
 11
14250.00000000023
 21
17624.99999999982
 31
0.0
100
AcDbText
 73
2
  0
TEXT
  5
1F7
330
17
100
AcDbEntity
  8
3G
100
AcDbText
 10
13935.00000000023
 20
16724.99999999982
 30
0.0
 40
300.0
  1
I33
  7
ROMANS
 41
0.9
 72
1
 11
14250.00000000023
 21
16874.99999999982
 31
0.0
100
AcDbText
 73
2
  0
TEXT
  5
1F8
330
17
100
AcDbEntity
  8
3G
100
AcDbText
 10
15396.4285714288
 20
17474.99999999982
 30
0.0
 40
300.0
  1
J32
  7
ROMANS
 41
0.9
 72
1
 11
15750.00000000023
 21
17624.99999999982
 31
0.0
100
AcDbText
 73
2
  0
TEXT
  5
1F9
330
17
100
AcDbEntity
  8
3G
100
AcDbText
 10
15396.4285714288
 20
16724.99999999982
 30
0.0
 40
300.0
  1
J33
  7
ROMANS
 41
0.9
 72
1
 11
15750.00000000023
 21
16874.99999999982
 31
0.0
100
AcDbText
 73
2
  0
TEXT
  5
1FA
330
17
100
AcDbEntity
  8
3G
100
AcDbText
 10
10857.85714285737
 20
16724.99999999982
 30
0.0
 40
300.0
  1
G33
  7
ROMANS
 41
0.9
 72
1
 11
11250.00000000023
 21
16874.99999999982
 31
0.0
100
AcDbText
 73
2
  0
TEXT
  5
1FB
330
17
100
AcDbEntity
  8
3G
100
AcDbText
 10
27101.4285714288
 20
17099.99999999982
 30
0.0
 40
300.0
  1
O32
  7
ROMANS
 41
0.9
 72
1
 11
27500.00000000023
 21
17249.99999999982
 31
0.0
100
AcDbText
 73
2
  0
TEXT
  5
1FC
330
17
100
AcDbEntity
  8
3G
100
AcDbText
 10
12345.00000000023
 20
17474.99999999982
 30
0.0
 40
300.0
  1
H32
  7
ROMANS
 41
0.9
 72
1
 11
12750.00000000023
 21
17624.99999999982
 31
0.0
100
AcDbText
 73
2
  0
TEXT
  5
1FD
330
17
100
AcDbEntity
  8
3G
100
AcDbText
 10
12345.00000000023
 20
16724.99999999982
 30
0.0
 40
300.0
  1
H33
  7
ROMANS
 41
0.9
 72
1
 11
12750.00000000023
 21
16874.99999999982
 31
0.0
100
AcDbText
 73
2
  0
TEXT
  5
1FE
330
17
100
AcDbEntity
  8
3G
100
AcDbText
 10
16851.4285714288
 20
17474.99999999982
 30
0.0
 40
300.0
  1
K32
  7
ROMANS
 41
0.9
 72
1
 11
17250.00000000023
 21
17624.99999999982
 31
0.0
100
AcDbText
 73
2
  0
TEXT
  5
1FF
330
17
100
AcDbEntity
  8
3G
100
AcDbText
 10
16851.4285714288
 20
16724.99999999982
 30
0.0
 40
300.0
  1
K33
  7
ROMANS
 41
0.9
 72
1
 11
17250.00000000023
 21
16874.99999999982
 31
0.0
100
AcDbText
 73
2
  0
TEXT
  5
200
330
17
100
AcDbEntity
  8
3G
100
AcDbText
 10
33026.42857139749
 20
17099.99999999982
 30
0.0
 40
300.0
  1
P32
  7
ROMANS
 41
0.9
 72
1
 11
33424.99999996892
 21
17249.99999999982
 31
0.0
100
AcDbText
 73
2
  0
TEXT
  5
201
330
17
100
AcDbEntity
  8
3G
100
AcDbText
 10
2601.428571428688
 20
17099.99999999982
 30
0.0
 40
300.0
  1
B32
  7
ROMANS
 41
0.9
 72
1
 11
3000.000000000117
 21
17249.99999999982
 31
0.0
100
AcDbText
 73
2
  0
TEXT
  5
202
330
17
100
AcDbEntity
  8
3G
100
AcDbText
 10
5107.857142857376
 20
17099.99999999982
 30
0.0
 40
300.0
  1
C32
  7
ROMANS
 41
0.9
 72
1
 11
5500.000000000233
 21
17249.99999999982
 31
0.0
100
AcDbText
 73
2
  0
TEXT
  5
203
330
17
100
AcDbEntity
  8
3G
100
AcDbText
 10
7101.428571428805
 20
17099.99999999982
 30
0.0
 40
300.0
  1
D32
  7
ROMANS
 41
0.9
 72
1
 11
7500.000000000233
 21
17249.99999999982
 31
0.0
100
AcDbText
 73
2
  0
TEXT
  5
204
330
17
100
AcDbEntity
  8
3G
100
AcDbText
 10
8739.285714285947
 20
17099.99999999982
 30
0.0
 40
300.0
  1
E32
  7
ROMANS
 41
0.9
 72
1
 11
9125.000000000233
 21
17249.99999999982
 31
0.0
100
AcDbText
 73
2
  0
TEXT
  5
205
330
17
100
AcDbEntity
  8
3G
100
AcDbText
 10
21595.00000000023
 20
17099.99999999982
 30
0.0
 40
300.0
  1
N32
  7
ROMANS
 41
0.9
 72
1
 11
22000.00000000023
 21
17249.99999999982
 31
0.0
100
AcDbText
 73
2
  0
TEXT
  5
206
330
17
100
AcDbEntity
  8
3G
100
AcDbText
 10
19832.14285714309
 20
17099.99999999982
 30
0.0
 40
300.0
  1
M32
  7
ROMANS
 41
0.9
 72
1
 11
20250.00000000023
 21
17249.99999999982
 31
0.0
100
AcDbText
 73
2
  0
TEXT
  5
207
330
17
100
AcDbEntity
  8
3G
100
AcDbText
 10
18377.14285714309
 20
17099.99999999982
 30
0.0
 40
300.0
  1
L32
  7
ROMANS
 41
0.9
 72
1
 11
18750.00000000023
 21
17249.99999999982
 31
0.0
100
AcDbText
 73
2
  0
TEXT
  5
208
330
17
100
AcDbEntity
  8
3G
100
AcDbText
 10
10851.4285714288
 20
15974.99999999982
 30
0.0
 40
300.0
  1
G34
  7
ROMANS
 41
0.9
 72
1
 11
11250.00000000023
 21
16124.99999999982
 31
0.0
100
AcDbText
 73
2
  0
TEXT
  5
209
330
17
100
AcDbEntity
  8
3G
100
AcDbText
 10
13928.57142857166
 20
15974.99999999982
 30
0.0
 40
300.0
  1
I34
  7
ROMANS
 41
0.9
 72
1
 11
14250.00000000023
 21
16124.99999999982
 31
0.0
100
AcDbText
 73
2
  0
TEXT
  5
20A
330
17
100
AcDbEntity
  8
3G
100
AcDbText
 10
13935.00000000023
 20
15224.99999999982
 30
0.0
 40
300.0
  1
I35
  7
ROMANS
 41
0.9
 72
1
 11
14250.00000000023
 21
15374.99999999982
 31
0.0
100
AcDbText
 73
2
  0
TEXT
  5
20B
330
17
100
AcDbEntity
  8
3G
100
AcDbText
 10
15390.00000000023
 20
15974.99999999982
 30
0.0
 40
300.0
  1
J34
  7
ROMANS
 41
0.9
 72
1
 11
15750.00000000023
 21
16124.99999999982
 31
0.0
100
AcDbText
 73
2
  0
TEXT
  5
20C
330
17
100
AcDbEntity
  8
3G
100
AcDbText
 10
15396.4285714288
 20
15224.99999999982
 30
0.0
 40
300.0
  1
J35
  7
ROMANS
 41
0.9
 72
1
 11
15750.00000000023
 21
15374.99999999982
 31
0.0
100
AcDbText
 73
2
  0
TEXT
  5
20D
330
17
100
AcDbEntity
  8
3G
100
AcDbText
 10
10857.85714285737
 20
15224.99999999982
 30
0.0
 40
300.0
  1
G35
  7
ROMANS
 41
0.9
 72
1
 11
11250.00000000023
 21
15374.99999999982
 31
0.0
100
AcDbText
 73
2
  0
TEXT
  5
20E
330
17
100
AcDbEntity
  8
3G
100
AcDbText
 10
27095.00000000023
 20
15599.99999999982
 30
0.0
 40
300.0
  1
O34
  7
ROMANS
 41
0.9
 72
1
 11
27500.00000000023
 21
15749.99999999982
 31
0.0
100
AcDbText
 73
2
  0
TEXT
  5
20F
330
17
100
AcDbEntity
  8
3G
100
AcDbText
 10
12338.57142857166
 20
15974.99999999982
 30
0.0
 40
300.0
  1
H34
  7
ROMANS
 41
0.9
 72
1
 11
12750.00000000023
 21
16124.99999999982
 31
0.0
100
AcDbText
 73
2
  0
TEXT
  5
210
330
17
100
AcDbEntity
  8
3G
100
AcDbText
 10
12345.00000000023
 20
15224.99999999982
 30
0.0
 40
300.0
  1
H35
  7
ROMANS
 41
0.9
 72
1
 11
12750.00000000023
 21
15374.99999999982
 31
0.0
100
AcDbText
 73
2
  0
TEXT
  5
211
330
17
100
AcDbEntity
  8
3G
100
AcDbText
 10
16845.00000000023
 20
15974.99999999982
 30
0.0
 40
300.0
  1
K34
  7
ROMANS
 41
0.9
 72
1
 11
17250.00000000023
 21
16124.99999999982
 31
0.0
100
AcDbText
 73
2
  0
TEXT
  5
212
330
17
100
AcDbEntity
  8
3G
100
AcDbText
 10
16851.4285714288
 20
15224.99999999982
 30
0.0
 40
300.0
  1
K35
  7
ROMANS
 41
0.9
 72
1
 11
17250.00000000023
 21
15374.99999999982
 31
0.0
100
AcDbText
 73
2
  0
TEXT
  5
213
330
17
100
AcDbEntity
  8
3G
100
AcDbText
 10
33019.99999996892
 20
15599.99999999982
 30
0.0
 40
300.0
  1
P34
  7
ROMANS
 41
0.9
 72
1
 11
33424.99999996892
 21
15749.99999999982
 31
0.0
100
AcDbText
 73
2
  0
TEXT
  5
214
330
17
100
AcDbEntity
  8
3G
100
AcDbText
 10
2595.000000000116
 20
15599.99999999982
 30
0.0
 40
300.0
  1
B34
  7
ROMANS
 41
0.9
 72
1
 11
3000.000000000117
 21
15749.99999999982
 31
0.0
100
AcDbText
 73
2
  0
TEXT
  5
215
330
17
100
AcDbEntity
  8
3G
100
AcDbText
 10
5101.428571428805
 20
15599.99999999982
 30
0.0
 40
300.0
  1
C34
  7
ROMANS
 41
0.9
 72
1
 11
5500.000000000233
 21
15749.99999999982
 31
0.0
100
AcDbText
 73
2
  0
TEXT
  5
216
330
17
100
AcDbEntity
  8
3G
100
AcDbText
 10
7095.000000000233
 20
15599.99999999982
 30
0.0
 40
300.0
  1
D34
  7
ROMANS
 41
0.9
 72
1
 11
7500.000000000233
 21
15749.99999999982
 31
0.0
100
AcDbText
 73
2
  0
TEXT
  5
217
330
17
100
AcDbEntity
  8
3G
100
AcDbText
 10
8732.857142857376
 20
15599.99999999982
 30
0.0
 40
300.0
  1
E34
  7
ROMANS
 41
0.9
 72
1
 11
9125.000000000233
 21
15749.99999999982
 31
0.0
100
AcDbText
 73
2
  0
TEXT
  5
218
330
17
100
AcDbEntity
  8
3G
100
AcDbText
 10
21588.57142857166
 20
15599.99999999982
 30
0.0
 40
300.0
  1
N34
  7
ROMANS
 41
0.9
 72
1
 11
22000.00000000023
 21
15749.99999999982
 31
0.0
100
AcDbText
 73
2
  0
TEXT
  5
219
330
17
100
AcDbEntity
  8
3G
100
AcDbText
 10
19825.71428571452
 20
15599.99999999982
 30
0.0
 40
300.0
  1
M34
  7
ROMANS
 41
0.9
 72
1
 11
20250.00000000023
 21
15749.99999999982
 31
0.0
100
AcDbText
 73
2
  0
TEXT
  5
21A
330
17
100
AcDbEntity
  8
3G
100
AcDbText
 10
18370.71428571452
 20
15599.99999999982
 30
0.0
 40
300.0
  1
L34
  7
ROMANS
 41
0.9
 72
1
 11
18750.00000000023
 21
15749.99999999982
 31
0.0
100
AcDbText
 73
2
  0
TEXT
  5
21B
330
17
100
AcDbEntity
  8
3G
100
AcDbText
 10
10857.85714285737
 20
14474.99999999988
 30
0.0
 40
300.0
  1
G36
  7
ROMANS
 41
0.9
 72
1
 11
11250.00000000023
 21
14624.99999999988
 31
0.0
100
AcDbText
 73
2
  0
TEXT
  5
21C
330
17
100
AcDbEntity
  8
3G
100
AcDbText
 10
13935.00000000023
 20
14474.99999999988
 30
0.0
 40
300.0
  1
I36
  7
ROMANS
 41
0.9
 72
1
 11
14250.00000000023
 21
14624.99999999988
 31
0.0
100
AcDbText
 73
2
  0
TEXT
  5
21D
330
17
100
AcDbEntity
  8
3G
100
AcDbText
 10
13935.00000000023
 20
13724.99999999988
 30
0.0
 40
300.0
  1
I37
  7
ROMANS
 41
0.9
 72
1
 11
14250.00000000023
 21
13874.99999999988
 31
0.0
100
AcDbText
 73
2
  0
TEXT
  5
21E
330
17
100
AcDbEntity
  8
3G
100
AcDbText
 10
15396.4285714288
 20
14474.99999999988
 30
0.0
 40
300.0
  1
J36
  7
ROMANS
 41
0.9
 72
1
 11
15750.00000000023
 21
14624.99999999988
 31
0.0
100
AcDbText
 73
2
  0
TEXT
  5
21F
330
17
100
AcDbEntity
  8
3G
100
AcDbText
 10
15396.4285714288
 20
13724.99999999988
 30
0.0
 40
300.0
  1
J37
  7
ROMANS
 41
0.9
 72
1
 11
15750.00000000023
 21
13874.99999999988
 31
0.0
100
AcDbText
 73
2
  0
TEXT
  5
220
330
17
100
AcDbEntity
  8
3G
100
AcDbText
 10
10857.85714285737
 20
13724.99999999988
 30
0.0
 40
300.0
  1
G37
  7
ROMANS
 41
0.9
 72
1
 11
11250.00000000023
 21
13874.99999999988
 31
0.0
100
AcDbText
 73
2
  0
TEXT
  5
221
330
17
100
AcDbEntity
  8
3G
100
AcDbText
 10
27101.4285714288
 20
14099.99999999988
 30
0.0
 40
300.0
  1
O36
  7
ROMANS
 41
0.9
 72
1
 11
27500.00000000023
 21
14249.99999999988
 31
0.0
100
AcDbText
 73
2
  0
TEXT
  5
222
330
17
100
AcDbEntity
  8
3G
100
AcDbText
 10
12345.00000000023
 20
14474.99999999988
 30
0.0
 40
300.0
  1
H36
  7
ROMANS
 41
0.9
 72
1
 11
12750.00000000023
 21
14624.99999999988
 31
0.0
100
AcDbText
 73
2
  0
TEXT
  5
223
330
17
100
AcDbEntity
  8
3G
100
AcDbText
 10
12345.00000000023
 20
13724.99999999988
 30
0.0
 40
300.0
  1
H37
  7
ROMANS
 41
0.9
 72
1
 11
12750.00000000023
 21
13874.99999999988
 31
0.0
100
AcDbText
 73
2
  0
TEXT
  5
224
330
17
100
AcDbEntity
  8
3G
100
AcDbText
 10
16851.4285714288
 20
14474.99999999988
 30
0.0
 40
300.0
  1
K36
  7
ROMANS
 41
0.9
 72
1
 11
17250.00000000023
 21
14624.99999999988
 31
0.0
100
AcDbText
 73
2
  0
TEXT
  5
225
330
17
100
AcDbEntity
  8
3G
100
AcDbText
 10
16851.4285714288
 20
13724.99999999988
 30
0.0
 40
300.0
  1
K37
  7
ROMANS
 41
0.9
 72
1
 11
17250.00000000023
 21
13874.99999999988
 31
0.0
100
AcDbText
 73
2
  0
TEXT
  5
226
330
17
100
AcDbEntity
  8
3G
100
AcDbText
 10
33026.42857139749
 20
14099.99999999988
 30
0.0
 40
300.0
  1
P36
  7
ROMANS
 41
0.9
 72
1
 11
33424.99999996892
 21
14249.99999999988
 31
0.0
100
AcDbText
 73
2
  0
TEXT
  5
227
330
17
100
AcDbEntity
  8
3G
100
AcDbText
 10
2601.428571428688
 20
14099.99999999988
 30
0.0
 40
300.0
  1
B36
  7
ROMANS
 41
0.9
 72
1
 11
3000.000000000117
 21
14249.99999999988
 31
0.0
100
AcDbText
 73
2
  0
TEXT
  5
228
330
17
100
AcDbEntity
  8
3G
100
AcDbText
 10
5107.857142857376
 20
14099.99999999988
 30
0.0
 40
300.0
  1
C36
  7
ROMANS
 41
0.9
 72
1
 11
5500.000000000233
 21
14249.99999999988
 31
0.0
100
AcDbText
 73
2
  0
TEXT
  5
229
330
17
100
AcDbEntity
  8
3G
100
AcDbText
 10
7101.428571428805
 20
14099.99999999988
 30
0.0
 40
300.0
  1
D36
  7
ROMANS
 41
0.9
 72
1
 11
7500.000000000233
 21
14249.99999999988
 31
0.0
100
AcDbText
 73
2
  0
TEXT
  5
22A
330
17
100
AcDbEntity
  8
3G
100
AcDbText
 10
8739.285714285947
 20
14099.99999999988
 30
0.0
 40
300.0
  1
E36
  7
ROMANS
 41
0.9
 72
1
 11
9125.000000000233
 21
14249.99999999988
 31
0.0
100
AcDbText
 73
2
  0
TEXT
  5
22B
330
17
100
AcDbEntity
  8
3G
100
AcDbText
 10
21595.00000000023
 20
14099.99999999988
 30
0.0
 40
300.0
  1
N36
  7
ROMANS
 41
0.9
 72
1
 11
22000.00000000023
 21
14249.99999999988
 31
0.0
100
AcDbText
 73
2
  0
TEXT
  5
22C
330
17
100
AcDbEntity
  8
3G
100
AcDbText
 10
19832.14285714309
 20
14099.99999999988
 30
0.0
 40
300.0
  1
M36
  7
ROMANS
 41
0.9
 72
1
 11
20250.00000000023
 21
14249.99999999988
 31
0.0
100
AcDbText
 73
2
  0
TEXT
  5
22D
330
17
100
AcDbEntity
  8
3G
100
AcDbText
 10
18377.14285714309
 20
14099.99999999988
 30
0.0
 40
300.0
  1
L36
  7
ROMANS
 41
0.9
 72
1
 11
18750.00000000023
 21
14249.99999999988
 31
0.0
100
AcDbText
 73
2
  0
TEXT
  5
22E
330
17
100
AcDbEntity
  8
3G
100
AcDbText
 10
10857.85714285737
 20
12974.99999999988
 30
0.0
 40
300.0
  1
G38
  7
ROMANS
 41
0.9
 72
1
 11
11250.00000000023
 21
13124.99999999988
 31
0.0
100
AcDbText
 73
2
  0
TEXT
  5
22F
330
17
100
AcDbEntity
  8
3G
100
AcDbText
 10
13935.00000000023
 20
12974.99999999988
 30
0.0
 40
300.0
  1
I38
  7
ROMANS
 41
0.9
 72
1
 11
14250.00000000023
 21
13124.99999999988
 31
0.0
100
AcDbText
 73
2
  0
TEXT
  5
230
330
17
100
AcDbEntity
  8
3G
100
AcDbText
 10
13941.4285714288
 20
12224.99999999988
 30
0.0
 40
300.0
  1
I39
  7
ROMANS
 41
0.9
 72
1
 11
14250.00000000023
 21
12374.99999999988
 31
0.0
100
AcDbText
 73
2
  0
TEXT
  5
231
330
17
100
AcDbEntity
  8
3G
100
AcDbText
 10
15396.4285714288
 20
12974.99999999988
 30
0.0
 40
300.0
  1
J38
  7
ROMANS
 41
0.9
 72
1
 11
15750.00000000023
 21
13124.99999999988
 31
0.0
100
AcDbText
 73
2
  0
TEXT
  5
232
330
17
100
AcDbEntity
  8
3G
100
AcDbText
 10
15402.85714285737
 20
12224.99999999988
 30
0.0
 40
300.0
  1
J39
  7
ROMANS
 41
0.9
 72
1
 11
15750.00000000023
 21
12374.99999999988
 31
0.0
100
AcDbText
 73
2
  0
TEXT
  5
233
330
17
100
AcDbEntity
  8
3G
100
AcDbText
 10
10864.28571428594
 20
12224.99999999988
 30
0.0
 40
300.0
  1
G39
  7
ROMANS
 41
0.9
 72
1
 11
11250.00000000023
 21
12374.99999999988
 31
0.0
100
AcDbText
 73
2
  0
TEXT
  5
234
330
17
100
AcDbEntity
  8
3G
100
AcDbText
 10
27101.4285714288
 20
12599.99999999988
 30
0.0
 40
300.0
  1
O38
  7
ROMANS
 41
0.9
 72
1
 11
27500.00000000023
 21
12749.99999999988
 31
0.0
100
AcDbText
 73
2
  0
TEXT
  5
235
330
17
100
AcDbEntity
  8
3G
100
AcDbText
 10
12345.00000000023
 20
12974.99999999988
 30
0.0
 40
300.0
  1
H38
  7
ROMANS
 41
0.9
 72
1
 11
12750.00000000023
 21
13124.99999999988
 31
0.0
100
AcDbText
 73
2
  0
TEXT
  5
236
330
17
100
AcDbEntity
  8
3G
100
AcDbText
 10
12351.4285714288
 20
12224.99999999988
 30
0.0
 40
300.0
  1
H39
  7
ROMANS
 41
0.9
 72
1
 11
12750.00000000023
 21
12374.99999999988
 31
0.0
100
AcDbText
 73
2
  0
TEXT
  5
237
330
17
100
AcDbEntity
  8
3G
100
AcDbText
 10
16851.4285714288
 20
12974.99999999988
 30
0.0
 40
300.0
  1
K38
  7
ROMANS
 41
0.9
 72
1
 11
17250.00000000023
 21
13124.99999999988
 31
0.0
100
AcDbText
 73
2
  0
TEXT
  5
238
330
17
100
AcDbEntity
  8
3G
100
AcDbText
 10
16857.85714285737
 20
12224.99999999988
 30
0.0
 40
300.0
  1
K39
  7
ROMANS
 41
0.9
 72
1
 11
17250.00000000023
 21
12374.99999999988
 31
0.0
100
AcDbText
 73
2
  0
TEXT
  5
239
330
17
100
AcDbEntity
  8
3G
100
AcDbText
 10
33026.42857139749
 20
12599.99999999988
 30
0.0
 40
300.0
  1
P38
  7
ROMANS
 41
0.9
 72
1
 11
33424.99999996892
 21
12749.99999999988
 31
0.0
100
AcDbText
 73
2
  0
TEXT
  5
23A
330
17
100
AcDbEntity
  8
3G
100
AcDbText
 10
2601.428571428688
 20
12599.99999999988
 30
0.0
 40
300.0
  1
B38
  7
ROMANS
 41
0.9
 72
1
 11
3000.000000000117
 21
12749.99999999988
 31
0.0
100
AcDbText
 73
2
  0
TEXT
  5
23B
330
17
100
AcDbEntity
  8
3G
100
AcDbText
 10
5107.857142857376
 20
12599.99999999988
 30
0.0
 40
300.0
  1
C38
  7
ROMANS
 41
0.9
 72
1
 11
5500.000000000233
 21
12749.99999999988
 31
0.0
100
AcDbText
 73
2
  0
TEXT
  5
23C
330
17
100
AcDbEntity
  8
3G
100
AcDbText
 10
7101.428571428805
 20
12599.99999999988
 30
0.0
 40
300.0
  1
D38
  7
ROMANS
 41
0.9
 72
1
 11
7500.000000000233
 21
12749.99999999988
 31
0.0
100
AcDbText
 73
2
  0
TEXT
  5
23D
330
17
100
AcDbEntity
  8
3G
100
AcDbText
 10
8739.285714285947
 20
12599.99999999988
 30
0.0
 40
300.0
  1
E38
  7
ROMANS
 41
0.9
 72
1
 11
9125.000000000233
 21
12749.99999999988
 31
0.0
100
AcDbText
 73
2
  0
TEXT
  5
23E
330
17
100
AcDbEntity
  8
3G
100
AcDbText
 10
21595.00000000023
 20
12599.99999999988
 30
0.0
 40
300.0
  1
N38
  7
ROMANS
 41
0.9
 72
1
 11
22000.00000000023
 21
12749.99999999988
 31
0.0
100
AcDbText
 73
2
  0
TEXT
  5
23F
330
17
100
AcDbEntity
  8
3G
100
AcDbText
 10
19832.14285714309
 20
12599.99999999988
 30
0.0
 40
300.0
  1
M38
  7
ROMANS
 41
0.9
 72
1
 11
20250.00000000023
 21
12749.99999999988
 31
0.0
100
AcDbText
 73
2
  0
TEXT
  5
240
330
17
100
AcDbEntity
  8
3G
100
AcDbText
 10
18377.14285714309
 20
12599.99999999988
 30
0.0
 40
300.0
  1
L38
  7
ROMANS
 41
0.9
 72
1
 11
18750.00000000023
 21
12749.99999999988
 31
0.0
100
AcDbText
 73
2
  0
TEXT
  5
241
330
17
100
AcDbEntity
  8
3G
100
AcDbText
 10
10857.85714285737
 20
11474.99999999988
 30
0.0
 40
300.0
  1
G40
  7
ROMANS
 41
0.9
 72
1
 11
11250.00000000023
 21
11624.99999999988
 31
0.0
100
AcDbText
 73
2
  0
TEXT
  5
242
330
17
100
AcDbEntity
  8
3G
100
AcDbText
 10
13935.00000000023
 20
11474.99999999988
 30
0.0
 40
300.0
  1
I40
  7
ROMANS
 41
0.9
 72
1
 11
14250.00000000023
 21
11624.99999999988
 31
0.0
100
AcDbText
 73
2
  0
TEXT
  5
243
330
17
100
AcDbEntity
  8
3G
100
AcDbText
 10
13973.57142857166
 20
10724.99999999988
 30
0.0
 40
300.0
  1
I41
  7
ROMANS
 41
0.9
 72
1
 11
14250.00000000023
 21
10874.99999999988
 31
0.0
100
AcDbText
 73
2
  0
TEXT
  5
244
330
17
100
AcDbEntity
  8
3G
100
AcDbText
 10
15396.4285714288
 20
11474.99999999988
 30
0.0
 40
300.0
  1
J40
  7
ROMANS
 41
0.9
 72
1
 11
15750.00000000023
 21
11624.99999999988
 31
0.0
100
AcDbText
 73
2
  0
TEXT
  5
245
330
17
100
AcDbEntity
  8
3G
100
AcDbText
 10
15435.00000000023
 20
10724.99999999988
 30
0.0
 40
300.0
  1
J41
  7
ROMANS
 41
0.9
 72
1
 11
15750.00000000023
 21
10874.99999999988
 31
0.0
100
AcDbText
 73
2
  0
TEXT
  5
246
330
17
100
AcDbEntity
  8
3G
100
AcDbText
 10
10896.4285714288
 20
10724.99999999988
 30
0.0
 40
300.0
  1
G41
  7
ROMANS
 41
0.9
 72
1
 11
11250.00000000023
 21
10874.99999999988
 31
0.0
100
AcDbText
 73
2
  0
TEXT
  5
247
330
17
100
AcDbEntity
  8
3G
100
AcDbText
 10
27101.4285714288
 20
11099.99999999988
 30
0.0
 40
300.0
  1
O40
  7
ROMANS
 41
0.9
 72
1
 11
27500.00000000023
 21
11249.99999999988
 31
0.0
100
AcDbText
 73
2
  0
TEXT
  5
248
330
17
100
AcDbEntity
  8
3G
100
AcDbText
 10
12345.00000000023
 20
11474.99999999988
 30
0.0
 40
300.0
  1
H40
  7
ROMANS
 41
0.9
 72
1
 11
12750.00000000023
 21
11624.99999999988
 31
0.0
100
AcDbText
 73
2
  0
TEXT
  5
249
330
17
100
AcDbEntity
  8
3G
100
AcDbText
 10
12383.57142857166
 20
10724.99999999988
 30
0.0
 40
300.0
  1
H41
  7
ROMANS
 41
0.9
 72
1
 11
12750.00000000023
 21
10874.99999999988
 31
0.0
100
AcDbText
 73
2
  0
TEXT
  5
24A
330
17
100
AcDbEntity
  8
3G
100
AcDbText
 10
16851.4285714288
 20
11474.99999999988
 30
0.0
 40
300.0
  1
K40
  7
ROMANS
 41
0.9
 72
1
 11
17250.00000000023
 21
11624.99999999988
 31
0.0
100
AcDbText
 73
2
  0
TEXT
  5
24B
330
17
100
AcDbEntity
  8
3G
100
AcDbText
 10
16890.00000000023
 20
10724.99999999988
 30
0.0
 40
300.0
  1
K41
  7
ROMANS
 41
0.9
 72
1
 11
17250.00000000023
 21
10874.99999999988
 31
0.0
100
AcDbText
 73
2
  0
TEXT
  5
24C
330
17
100
AcDbEntity
  8
3G
100
AcDbText
 10
33026.42857139749
 20
11099.99999999988
 30
0.0
 40
300.0
  1
P40
  7
ROMANS
 41
0.9
 72
1
 11
33424.99999996892
 21
11249.99999999988
 31
0.0
100
AcDbText
 73
2
  0
TEXT
  5
24D
330
17
100
AcDbEntity
  8
3G
100
AcDbText
 10
2601.428571428688
 20
11099.99999999988
 30
0.0
 40
300.0
  1
B40
  7
ROMANS
 41
0.9
 72
1
 11
3000.000000000117
 21
11249.99999999988
 31
0.0
100
AcDbText
 73
2
  0
TEXT
  5
24E
330
17
100
AcDbEntity
  8
3G
100
AcDbText
 10
5107.857142857376
 20
11099.99999999988
 30
0.0
 40
300.0
  1
C40
  7
ROMANS
 41
0.9
 72
1
 11
5500.000000000233
 21
11249.99999999988
 31
0.0
100
AcDbText
 73
2
  0
TEXT
  5
24F
330
17
100
AcDbEntity
  8
3G
100
AcDbText
 10
7101.428571428805
 20
11099.99999999988
 30
0.0
 40
300.0
  1
D40
  7
ROMANS
 41
0.9
 72
1
 11
7500.000000000233
 21
11249.99999999988
 31
0.0
100
AcDbText
 73
2
  0
TEXT
  5
250
330
17
100
AcDbEntity
  8
3G
100
AcDbText
 10
8739.285714285947
 20
11099.99999999988
 30
0.0
 40
300.0
  1
E40
  7
ROMANS
 41
0.9
 72
1
 11
9125.000000000233
 21
11249.99999999988
 31
0.0
100
AcDbText
 73
2
  0
TEXT
  5
251
330
17
100
AcDbEntity
  8
3G
100
AcDbText
 10
21595.00000000023
 20
11099.99999999988
 30
0.0
 40
300.0
  1
N40
  7
ROMANS
 41
0.9
 72
1
 11
22000.00000000023
 21
11249.99999999988
 31
0.0
100
AcDbText
 73
2
  0
TEXT
  5
252
330
17
100
AcDbEntity
  8
3G
100
AcDbText
 10
19832.14285714309
 20
11099.99999999988
 30
0.0
 40
300.0
  1
M40
  7
ROMANS
 41
0.9
 72
1
 11
20250.00000000023
 21
11249.99999999988
 31
0.0
100
AcDbText
 73
2
  0
TEXT
  5
253
330
17
100
AcDbEntity
  8
3G
100
AcDbText
 10
18377.14285714309
 20
11099.99999999988
 30
0.0
 40
300.0
  1
L40
  7
ROMANS
 41
0.9
 72
1
 11
18750.00000000023
 21
11249.99999999988
 31
0.0
100
AcDbText
 73
2
  0
TEXT
  5
254
330
17
100
AcDbEntity
  8
3G
100
AcDbText
 10
10857.85714285737
 20
9974.999999999765
 30
0.0
 40
300.0
  1
G42
  7
ROMANS
 41
0.9
 72
1
 11
11250.00000000023
 21
10124.99999999977
 31
0.0
100
AcDbText
 73
2
  0
TEXT
  5
255
330
17
100
AcDbEntity
  8
3G
100
AcDbText
 10
13935.00000000023
 20
9974.999999999765
 30
0.0
 40
300.0
  1
I42
  7
ROMANS
 41
0.9
 72
1
 11
14250.00000000023
 21
10124.99999999977
 31
0.0
100
AcDbText
 73
2
  0
TEXT
  5
256
330
17
100
AcDbEntity
  8
3G
100
AcDbText
 10
13935.00000000023
 20
9224.999999999765
 30
0.0
 40
300.0
  1
I43
  7
ROMANS
 41
0.9
 72
1
 11
14250.00000000023
 21
9374.999999999767
 31
0.0
100
AcDbText
 73
2
  0
TEXT
  5
257
330
17
100
AcDbEntity
  8
3G
100
AcDbText
 10
15396.4285714288
 20
9974.999999999765
 30
0.0
 40
300.0
  1
J42
  7
ROMANS
 41
0.9
 72
1
 11
15750.00000000023
 21
10124.99999999977
 31
0.0
100
AcDbText
 73
2
  0
TEXT
  5
258
330
17
100
AcDbEntity
  8
3G
100
AcDbText
 10
15396.4285714288
 20
9224.999999999765
 30
0.0
 40
300.0
  1
J43
  7
ROMANS
 41
0.9
 72
1
 11
15750.00000000023
 21
9374.999999999767
 31
0.0
100
AcDbText
 73
2
  0
TEXT
  5
259
330
17
100
AcDbEntity
  8
3G
100
AcDbText
 10
10857.85714285737
 20
9224.999999999765
 30
0.0
 40
300.0
  1
G43
  7
ROMANS
 41
0.9
 72
1
 11
11250.00000000023
 21
9374.999999999767
 31
0.0
100
AcDbText
 73
2
  0
TEXT
  5
25A
330
17
100
AcDbEntity
  8
3G
100
AcDbText
 10
27101.4285714288
 20
9599.999999999765
 30
0.0
 40
300.0
  1
O42
  7
ROMANS
 41
0.9
 72
1
 11
27500.00000000023
 21
9749.999999999767
 31
0.0
100
AcDbText
 73
2
  0
TEXT
  5
25B
330
17
100
AcDbEntity
  8
3G
100
AcDbText
 10
12345.00000000023
 20
9974.999999999765
 30
0.0
 40
300.0
  1
H42
  7
ROMANS
 41
0.9
 72
1
 11
12750.00000000023
 21
10124.99999999977
 31
0.0
100
AcDbText
 73
2
  0
TEXT
  5
25C
330
17
100
AcDbEntity
  8
3G
100
AcDbText
 10
12345.00000000023
 20
9224.999999999765
 30
0.0
 40
300.0
  1
H43
  7
ROMANS
 41
0.9
 72
1
 11
12750.00000000023
 21
9374.999999999767
 31
0.0
100
AcDbText
 73
2
  0
TEXT
  5
25D
330
17
100
AcDbEntity
  8
3G
100
AcDbText
 10
16851.4285714288
 20
9974.999999999765
 30
0.0
 40
300.0
  1
K42
  7
ROMANS
 41
0.9
 72
1
 11
17250.00000000023
 21
10124.99999999977
 31
0.0
100
AcDbText
 73
2
  0
TEXT
  5
25E
330
17
100
AcDbEntity
  8
3G
100
AcDbText
 10
16851.4285714288
 20
9224.999999999765
 30
0.0
 40
300.0
  1
K43
  7
ROMANS
 41
0.9
 72
1
 11
17250.00000000023
 21
9374.999999999767
 31
0.0
100
AcDbText
 73
2
  0
TEXT
  5
25F
330
17
100
AcDbEntity
  8
3G
100
AcDbText
 10
33026.42857139749
 20
9599.999999999765
 30
0.0
 40
300.0
  1
P42
  7
ROMANS
 41
0.9
 72
1
 11
33424.99999996892
 21
9749.999999999767
 31
0.0
100
AcDbText
 73
2
  0
TEXT
  5
260
330
17
100
AcDbEntity
  8
3G
100
AcDbText
 10
2601.428571428688
 20
9599.999999999765
 30
0.0
 40
300.0
  1
B42
  7
ROMANS
 41
0.9
 72
1
 11
3000.000000000117
 21
9749.999999999767
 31
0.0
100
AcDbText
 73
2
  0
TEXT
  5
261
330
17
100
AcDbEntity
  8
3G
100
AcDbText
 10
5107.857142857376
 20
9599.999999999765
 30
0.0
 40
300.0
  1
C42
  7
ROMANS
 41
0.9
 72
1
 11
5500.000000000233
 21
9749.999999999767
 31
0.0
100
AcDbText
 73
2
  0
TEXT
  5
262
330
17
100
AcDbEntity
  8
3G
100
AcDbText
 10
7101.428571428805
 20
9599.999999999765
 30
0.0
 40
300.0
  1
D42
  7
ROMANS
 41
0.9
 72
1
 11
7500.000000000233
 21
9749.999999999767
 31
0.0
100
AcDbText
 73
2
  0
TEXT
  5
263
330
17
100
AcDbEntity
  8
3G
100
AcDbText
 10
8739.285714285947
 20
9599.999999999765
 30
0.0
 40
300.0
  1
E42
  7
ROMANS
 41
0.9
 72
1
 11
9125.000000000233
 21
9749.999999999767
 31
0.0
100
AcDbText
 73
2
  0
TEXT
  5
264
330
17
100
AcDbEntity
  8
3G
100
AcDbText
 10
21595.00000000023
 20
9599.999999999765
 30
0.0
 40
300.0
  1
N42
  7
ROMANS
 41
0.9
 72
1
 11
22000.00000000023
 21
9749.999999999767
 31
0.0
100
AcDbText
 73
2
  0
TEXT
  5
265
330
17
100
AcDbEntity
  8
3G
100
AcDbText
 10
19832.14285714309
 20
9599.999999999765
 30
0.0
 40
300.0
  1
M42
  7
ROMANS
 41
0.9
 72
1
 11
20250.00000000023
 21
9749.999999999767
 31
0.0
100
AcDbText
 73
2
  0
TEXT
  5
266
330
17
100
AcDbEntity
  8
3G
100
AcDbText
 10
18377.14285714309
 20
9599.999999999765
 30
0.0
 40
300.0
  1
L42
  7
ROMANS
 41
0.9
 72
1
 11
18750.00000000023
 21
9749.999999999767
 31
0.0
100
AcDbText
 73
2
  0
TEXT
  5
267
330
17
100
AcDbEntity
  8
3G
100
AcDbText
 10
10851.4285714288
 20
8474.999999999825
 30
0.0
 40
300.0
  1
G44
  7
ROMANS
 41
0.9
 72
1
 11
11250.00000000023
 21
8624.999999999825
 31
0.0
100
AcDbText
 73
2
  0
TEXT
  5
268
330
17
100
AcDbEntity
  8
3G
100
AcDbText
 10
13928.57142857166
 20
8474.999999999825
 30
0.0
 40
300.0
  1
I44
  7
ROMANS
 41
0.9
 72
1
 11
14250.00000000023
 21
8624.999999999825
 31
0.0
100
AcDbText
 73
2
  0
TEXT
  5
269
330
17
100
AcDbEntity
  8
3G
100
AcDbText
 10
13935.00000000023
 20
7724.999999999825
 30
0.0
 40
300.0
  1
I45
  7
ROMANS
 41
0.9
 72
1
 11
14250.00000000023
 21
7874.999999999825
 31
0.0
100
AcDbText
 73
2
  0
TEXT
  5
26A
330
17
100
AcDbEntity
  8
3G
100
AcDbText
 10
15390.00000000023
 20
8474.999999999825
 30
0.0
 40
300.0
  1
J44
  7
ROMANS
 41
0.9
 72
1
 11
15750.00000000023
 21
8624.999999999825
 31
0.0
100
AcDbText
 73
2
  0
TEXT
  5
26B
330
17
100
AcDbEntity
  8
3G
100
AcDbText
 10
15396.4285714288
 20
7724.999999999825
 30
0.0
 40
300.0
  1
J45
  7
ROMANS
 41
0.9
 72
1
 11
15750.00000000023
 21
7874.999999999825
 31
0.0
100
AcDbText
 73
2
  0
TEXT
  5
26C
330
17
100
AcDbEntity
  8
3G
100
AcDbText
 10
10857.85714285737
 20
7724.999999999825
 30
0.0
 40
300.0
  1
G45
  7
ROMANS
 41
0.9
 72
1
 11
11250.00000000023
 21
7874.999999999825
 31
0.0
100
AcDbText
 73
2
  0
TEXT
  5
26D
330
17
100
AcDbEntity
  8
3G
100
AcDbText
 10
27095.00000000023
 20
8099.999999999825
 30
0.0
 40
300.0
  1
O44
  7
ROMANS
 41
0.9
 72
1
 11
27500.00000000023
 21
8249.999999999825
 31
0.0
100
AcDbText
 73
2
  0
TEXT
  5
26E
330
17
100
AcDbEntity
  8
3G
100
AcDbText
 10
12338.57142857166
 20
8474.999999999825
 30
0.0
 40
300.0
  1
H44
  7
ROMANS
 41
0.9
 72
1
 11
12750.00000000023
 21
8624.999999999825
 31
0.0
100
AcDbText
 73
2
  0
TEXT
  5
26F
330
17
100
AcDbEntity
  8
3G
100
AcDbText
 10
12345.00000000023
 20
7724.999999999825
 30
0.0
 40
300.0
  1
H45
  7
ROMANS
 41
0.9
 72
1
 11
12750.00000000023
 21
7874.999999999825
 31
0.0
100
AcDbText
 73
2
  0
TEXT
  5
270
330
17
100
AcDbEntity
  8
3G
100
AcDbText
 10
16845.00000000023
 20
8474.999999999825
 30
0.0
 40
300.0
  1
K44
  7
ROMANS
 41
0.9
 72
1
 11
17250.00000000023
 21
8624.999999999825
 31
0.0
100
AcDbText
 73
2
  0
TEXT
  5
271
330
17
100
AcDbEntity
  8
3G
100
AcDbText
 10
16851.4285714288
 20
7724.999999999825
 30
0.0
 40
300.0
  1
K45
  7
ROMANS
 41
0.9
 72
1
 11
17250.00000000023
 21
7874.999999999825
 31
0.0
100
AcDbText
 73
2
  0
TEXT
  5
272
330
17
100
AcDbEntity
  8
3G
100
AcDbText
 10
33019.99999996892
 20
8099.999999999825
 30
0.0
 40
300.0
  1
P44
  7
ROMANS
 41
0.9
 72
1
 11
33424.99999996892
 21
8249.999999999825
 31
0.0
100
AcDbText
 73
2
  0
TEXT
  5
273
330
17
100
AcDbEntity
  8
3G
100
AcDbText
 10
2595.000000000116
 20
8099.999999999825
 30
0.0
 40
300.0
  1
B44
  7
ROMANS
 41
0.9
 72
1
 11
3000.000000000117
 21
8249.999999999825
 31
0.0
100
AcDbText
 73
2
  0
TEXT
  5
274
330
17
100
AcDbEntity
  8
3G
100
AcDbText
 10
5101.428571428805
 20
8099.999999999825
 30
0.0
 40
300.0
  1
C44
  7
ROMANS
 41
0.9
 72
1
 11
5500.000000000233
 21
8249.999999999825
 31
0.0
100
AcDbText
 73
2
  0
TEXT
  5
275
330
17
100
AcDbEntity
  8
3G
100
AcDbText
 10
7095.000000000233
 20
8099.999999999825
 30
0.0
 40
300.0
  1
D44
  7
ROMANS
 41
0.9
 72
1
 11
7500.000000000233
 21
8249.999999999825
 31
0.0
100
AcDbText
 73
2
  0
TEXT
  5
276
330
17
100
AcDbEntity
  8
3G
100
AcDbText
 10
8732.857142857376
 20
8099.999999999825
 30
0.0
 40
300.0
  1
E44
  7
ROMANS
 41
0.9
 72
1
 11
9125.000000000233
 21
8249.999999999825
 31
0.0
100
AcDbText
 73
2
  0
TEXT
  5
277
330
17
100
AcDbEntity
  8
3G
100
AcDbText
 10
21588.57142857166
 20
8099.999999999825
 30
0.0
 40
300.0
  1
N44
  7
ROMANS
 41
0.9
 72
1
 11
22000.00000000023
 21
8249.999999999825
 31
0.0
100
AcDbText
 73
2
  0
TEXT
  5
278
330
17
100
AcDbEntity
  8
3G
100
AcDbText
 10
19825.71428571452
 20
8099.999999999825
 30
0.0
 40
300.0
  1
M44
  7
ROMANS
 41
0.9
 72
1
 11
20250.00000000023
 21
8249.999999999825
 31
0.0
100
AcDbText
 73
2
  0
TEXT
  5
279
330
17
100
AcDbEntity
  8
3G
100
AcDbText
 10
18370.71428571452
 20
8099.999999999825
 30
0.0
 40
300.0
  1
L44
  7
ROMANS
 41
0.9
 72
1
 11
18750.00000000023
 21
8249.999999999825
 31
0.0
100
AcDbText
 73
2
  0
TEXT
  5
27A
330
17
100
AcDbEntity
  8
3G
100
AcDbText
 10
10857.85714285737
 20
6974.999999999884
 30
0.0
 40
300.0
  1
G46
  7
ROMANS
 41
0.9
 72
1
 11
11250.00000000023
 21
7124.999999999883
 31
0.0
100
AcDbText
 73
2
  0
TEXT
  5
27B
330
17
100
AcDbEntity
  8
3G
100
AcDbText
 10
13935.00000000023
 20
6974.999999999884
 30
0.0
 40
300.0
  1
I46
  7
ROMANS
 41
0.9
 72
1
 11
14250.00000000023
 21
7124.999999999883
 31
0.0
100
AcDbText
 73
2
  0
TEXT
  5
27C
330
17
100
AcDbEntity
  8
3G
100
AcDbText
 10
13935.00000000023
 20
6224.999999999884
 30
0.0
 40
300.0
  1
I47
  7
ROMANS
 41
0.9
 72
1
 11
14250.00000000023
 21
6374.999999999883
 31
0.0
100
AcDbText
 73
2
  0
TEXT
  5
27D
330
17
100
AcDbEntity
  8
3G
100
AcDbText
 10
15396.4285714288
 20
6974.999999999884
 30
0.0
 40
300.0
  1
J46
  7
ROMANS
 41
0.9
 72
1
 11
15750.00000000023
 21
7124.999999999883
 31
0.0
100
AcDbText
 73
2
  0
TEXT
  5
27E
330
17
100
AcDbEntity
  8
3G
100
AcDbText
 10
15396.4285714288
 20
6224.999999999884
 30
0.0
 40
300.0
  1
J47
  7
ROMANS
 41
0.9
 72
1
 11
15750.00000000023
 21
6374.999999999883
 31
0.0
100
AcDbText
 73
2
  0
TEXT
  5
27F
330
17
100
AcDbEntity
  8
3G
100
AcDbText
 10
10857.85714285737
 20
6224.999999999884
 30
0.0
 40
300.0
  1
G47
  7
ROMANS
 41
0.9
 72
1
 11
11250.00000000023
 21
6374.999999999883
 31
0.0
100
AcDbText
 73
2
  0
TEXT
  5
280
330
17
100
AcDbEntity
  8
3G
100
AcDbText
 10
27101.4285714288
 20
6599.999999999884
 30
0.0
 40
300.0
  1
O46
  7
ROMANS
 41
0.9
 72
1
 11
27500.00000000023
 21
6749.999999999883
 31
0.0
100
AcDbText
 73
2
  0
TEXT
  5
281
330
17
100
AcDbEntity
  8
3G
100
AcDbText
 10
12345.00000000023
 20
6974.999999999884
 30
0.0
 40
300.0
  1
H46
  7
ROMANS
 41
0.9
 72
1
 11
12750.00000000023
 21
7124.999999999883
 31
0.0
100
AcDbText
 73
2
  0
TEXT
  5
282
330
17
100
AcDbEntity
  8
3G
100
AcDbText
 10
12345.00000000023
 20
6224.999999999884
 30
0.0
 40
300.0
  1
H47
  7
ROMANS
 41
0.9
 72
1
 11
12750.00000000023
 21
6374.999999999883
 31
0.0
100
AcDbText
 73
2
  0
TEXT
  5
283
330
17
100
AcDbEntity
  8
3G
100
AcDbText
 10
16851.4285714288
 20
6974.999999999884
 30
0.0
 40
300.0
  1
K46
  7
ROMANS
 41
0.9
 72
1
 11
17250.00000000023
 21
7124.999999999883
 31
0.0
100
AcDbText
 73
2
  0
TEXT
  5
284
330
17
100
AcDbEntity
  8
3G
100
AcDbText
 10
16851.4285714288
 20
6224.999999999884
 30
0.0
 40
300.0
  1
K47
  7
ROMANS
 41
0.9
 72
1
 11
17250.00000000023
 21
6374.999999999883
 31
0.0
100
AcDbText
 73
2
  0
TEXT
  5
285
330
17
100
AcDbEntity
  8
3G
100
AcDbText
 10
33026.42857139749
 20
6599.999999999884
 30
0.0
 40
300.0
  1
P46
  7
ROMANS
 41
0.9
 72
1
 11
33424.99999996892
 21
6749.999999999883
 31
0.0
100
AcDbText
 73
2
  0
TEXT
  5
286
330
17
100
AcDbEntity
  8
3G
100
AcDbText
 10
2601.428571428688
 20
6599.999999999884
 30
0.0
 40
300.0
  1
B46
  7
ROMANS
 41
0.9
 72
1
 11
3000.000000000117
 21
6749.999999999883
 31
0.0
100
AcDbText
 73
2
  0
TEXT
  5
287
330
17
100
AcDbEntity
  8
3G
100
AcDbText
 10
5107.857142857376
 20
6599.999999999884
 30
0.0
 40
300.0
  1
C46
  7
ROMANS
 41
0.9
 72
1
 11
5500.000000000233
 21
6749.999999999883
 31
0.0
100
AcDbText
 73
2
  0
TEXT
  5
288
330
17
100
AcDbEntity
  8
3G
100
AcDbText
 10
7101.428571428805
 20
6599.999999999884
 30
0.0
 40
300.0
  1
D46
  7
ROMANS
 41
0.9
 72
1
 11
7500.000000000233
 21
6749.999999999883
 31
0.0
100
AcDbText
 73
2
  0
TEXT
  5
289
330
17
100
AcDbEntity
  8
3G
100
AcDbText
 10
8739.285714285947
 20
6599.999999999884
 30
0.0
 40
300.0
  1
E46
  7
ROMANS
 41
0.9
 72
1
 11
9125.000000000233
 21
6749.999999999883
 31
0.0
100
AcDbText
 73
2
  0
TEXT
  5
28A
330
17
100
AcDbEntity
  8
3G
100
AcDbText
 10
21595.00000000023
 20
6599.999999999884
 30
0.0
 40
300.0
  1
N46
  7
ROMANS
 41
0.9
 72
1
 11
22000.00000000023
 21
6749.999999999883
 31
0.0
100
AcDbText
 73
2
  0
TEXT
  5
28B
330
17
100
AcDbEntity
  8
3G
100
AcDbText
 10
19832.14285714309
 20
6599.999999999884
 30
0.0
 40
300.0
  1
M46
  7
ROMANS
 41
0.9
 72
1
 11
20250.00000000023
 21
6749.999999999883
 31
0.0
100
AcDbText
 73
2
  0
TEXT
  5
28C
330
17
100
AcDbEntity
  8
3G
100
AcDbText
 10
18377.14285714309
 20
6599.999999999884
 30
0.0
 40
300.0
  1
L46
  7
ROMANS
 41
0.9
 72
1
 11
18750.00000000023
 21
6749.999999999883
 31
0.0
100
AcDbText
 73
2
  0
TEXT
  5
28D
330
17
100
AcDbEntity
  8
3G
100
AcDbText
 10
10857.85714285737
 20
5474.999999999884
 30
0.0
 40
300.0
  1
G48
  7
ROMANS
 41
0.9
 72
1
 11
11250.00000000023
 21
5624.999999999883
 31
0.0
100
AcDbText
 73
2
  0
TEXT
  5
28E
330
17
100
AcDbEntity
  8
3G
100
AcDbText
 10
13935.00000000023
 20
5474.999999999884
 30
0.0
 40
300.0
  1
I48
  7
ROMANS
 41
0.9
 72
1
 11
14250.00000000023
 21
5624.999999999883
 31
0.0
100
AcDbText
 73
2
  0
TEXT
  5
28F
330
17
100
AcDbEntity
  8
3G
100
AcDbText
 10
13941.4285714288
 20
4724.999999999883
 30
0.0
 40
300.0
  1
I49
  7
ROMANS
 41
0.9
 72
1
 11
14250.00000000023
 21
4874.999999999883
 31
0.0
100
AcDbText
 73
2
  0
TEXT
  5
290
330
17
100
AcDbEntity
  8
3G
100
AcDbText
 10
15396.4285714288
 20
5474.999999999884
 30
0.0
 40
300.0
  1
J48
  7
ROMANS
 41
0.9
 72
1
 11
15750.00000000023
 21
5624.999999999883
 31
0.0
100
AcDbText
 73
2
  0
TEXT
  5
291
330
17
100
AcDbEntity
  8
3G
100
AcDbText
 10
15402.85714285737
 20
4724.999999999883
 30
0.0
 40
300.0
  1
J49
  7
ROMANS
 41
0.9
 72
1
 11
15750.00000000023
 21
4874.999999999883
 31
0.0
100
AcDbText
 73
2
  0
TEXT
  5
292
330
17
100
AcDbEntity
  8
3G
100
AcDbText
 10
10864.28571428594
 20
4724.999999999883
 30
0.0
 40
300.0
  1
G49
  7
ROMANS
 41
0.9
 72
1
 11
11250.00000000023
 21
4874.999999999883
 31
0.0
100
AcDbText
 73
2
  0
TEXT
  5
293
330
17
100
AcDbEntity
  8
3G
100
AcDbText
 10
27101.4285714288
 20
5099.999999999884
 30
0.0
 40
300.0
  1
O48
  7
ROMANS
 41
0.9
 72
1
 11
27500.00000000023
 21
5249.999999999883
 31
0.0
100
AcDbText
 73
2
  0
TEXT
  5
294
330
17
100
AcDbEntity
  8
3G
100
AcDbText
 10
12345.00000000023
 20
5474.999999999884
 30
0.0
 40
300.0
  1
H48
  7
ROMANS
 41
0.9
 72
1
 11
12750.00000000023
 21
5624.999999999883
 31
0.0
100
AcDbText
 73
2
  0
TEXT
  5
295
330
17
100
AcDbEntity
  8
3G
100
AcDbText
 10
12351.4285714288
 20
4724.999999999883
 30
0.0
 40
300.0
  1
H49
  7
ROMANS
 41
0.9
 72
1
 11
12750.00000000023
 21
4874.999999999883
 31
0.0
100
AcDbText
 73
2
  0
TEXT
  5
296
330
17
100
AcDbEntity
  8
3G
100
AcDbText
 10
16851.4285714288
 20
5474.999999999884
 30
0.0
 40
300.0
  1
K48
  7
ROMANS
 41
0.9
 72
1
 11
17250.00000000023
 21
5624.999999999883
 31
0.0
100
AcDbText
 73
2
  0
TEXT
  5
297
330
17
100
AcDbEntity
  8
3G
100
AcDbText
 10
16857.85714285737
 20
4724.999999999883
 30
0.0
 40
300.0
  1
K49
  7
ROMANS
 41
0.9
 72
1
 11
17250.00000000023
 21
4874.999999999883
 31
0.0
100
AcDbText
 73
2
  0
TEXT
  5
298
330
17
100
AcDbEntity
  8
3G
100
AcDbText
 10
33026.42857139749
 20
5099.999999999884
 30
0.0
 40
300.0
  1
P48
  7
ROMANS
 41
0.9
 72
1
 11
33424.99999996892
 21
5249.999999999883
 31
0.0
100
AcDbText
 73
2
  0
TEXT
  5
299
330
17
100
AcDbEntity
  8
3G
100
AcDbText
 10
2601.428571428688
 20
5099.999999999884
 30
0.0
 40
300.0
  1
B48
  7
ROMANS
 41
0.9
 72
1
 11
3000.000000000117
 21
5249.999999999883
 31
0.0
100
AcDbText
 73
2
  0
TEXT
  5
29A
330
17
100
AcDbEntity
  8
3G
100
AcDbText
 10
5107.857142857376
 20
5099.999999999884
 30
0.0
 40
300.0
  1
C48
  7
ROMANS
 41
0.9
 72
1
 11
5500.000000000233
 21
5249.999999999883
 31
0.0
100
AcDbText
 73
2
  0
TEXT
  5
29B
330
17
100
AcDbEntity
  8
3G
100
AcDbText
 10
7101.428571428805
 20
5099.999999999884
 30
0.0
 40
300.0
  1
D48
  7
ROMANS
 41
0.9
 72
1
 11
7500.000000000233
 21
5249.999999999883
 31
0.0
100
AcDbText
 73
2
  0
TEXT
  5
29C
330
17
100
AcDbEntity
  8
3G
100
AcDbText
 10
8739.285714285947
 20
5099.999999999884
 30
0.0
 40
300.0
  1
E48
  7
ROMANS
 41
0.9
 72
1
 11
9125.000000000233
 21
5249.999999999883
 31
0.0
100
AcDbText
 73
2
  0
TEXT
  5
29D
330
17
100
AcDbEntity
  8
3G
100
AcDbText
 10
21595.00000000023
 20
5099.999999999884
 30
0.0
 40
300.0
  1
N48
  7
ROMANS
 41
0.9
 72
1
 11
22000.00000000023
 21
5249.999999999883
 31
0.0
100
AcDbText
 73
2
  0
TEXT
  5
29E
330
17
100
AcDbEntity
  8
3G
100
AcDbText
 10
19832.14285714309
 20
5099.999999999884
 30
0.0
 40
300.0
  1
M48
  7
ROMANS
 41
0.9
 72
1
 11
20250.00000000023
 21
5249.999999999883
 31
0.0
100
AcDbText
 73
2
  0
TEXT
  5
29F
330
17
100
AcDbEntity
  8
3G
100
AcDbText
 10
18377.14285714309
 20
5099.999999999884
 30
0.0
 40
300.0
  1
L48
  7
ROMANS
 41
0.9
 72
1
 11
18750.00000000023
 21
5249.999999999883
 31
0.0
100
AcDbText
 73
2
  0
TEXT
  5
2A0
330
17
100
AcDbEntity
  8
3G
100
AcDbText
 10
10857.85714285737
 20
3974.999999999884
 30
0.0
 40
300.0
  1
G50
  7
ROMANS
 41
0.9
 72
1
 11
11250.00000000023
 21
4124.999999999883
 31
0.0
100
AcDbText
 73
2
  0
TEXT
  5
2A1
330
17
100
AcDbEntity
  8
3G
100
AcDbText
 10
13935.00000000023
 20
3974.999999999884
 30
0.0
 40
300.0
  1
I50
  7
ROMANS
 41
0.9
 72
1
 11
14250.00000000023
 21
4124.999999999883
 31
0.0
100
AcDbText
 73
2
  0
TEXT
  5
2A2
330
17
100
AcDbEntity
  8
3G
100
AcDbText
 10
13973.57142857166
 20
3224.999999999884
 30
0.0
 40
300.0
  1
I21
  7
ROMANS
 41
0.9
 72
1
 11
14250.00000000023
 21
3374.999999999884
 31
0.0
100
AcDbText
 73
2
  0
TEXT
  5
2A3
330
17
100
AcDbEntity
  8
3G
100
AcDbText
 10
15396.4285714288
 20
3974.999999999884
 30
0.0
 40
300.0
  1
J50
  7
ROMANS
 41
0.9
 72
1
 11
15750.00000000023
 21
4124.999999999883
 31
0.0
100
AcDbText
 73
2
  0
TEXT
  5
2A4
330
17
100
AcDbEntity
  8
3G
100
AcDbText
 10
15435.00000000023
 20
3224.999999999884
 30
0.0
 40
300.0
  1
J21
  7
ROMANS
 41
0.9
 72
1
 11
15750.00000000023
 21
3374.999999999884
 31
0.0
100
AcDbText
 73
2
  0
TEXT
  5
2A5
330
17
100
AcDbEntity
  8
3G
100
AcDbText
 10
10896.4285714288
 20
3224.999999999884
 30
0.0
 40
300.0
  1
G21
  7
ROMANS
 41
0.9
 72
1
 11
11250.00000000023
 21
3374.999999999884
 31
0.0
100
AcDbText
 73
2
  0
TEXT
  5
2A6
330
17
100
AcDbEntity
  8
3G
100
AcDbText
 10
27101.4285714288
 20
3599.999999999884
 30
0.0
 40
300.0
  1
O50
  7
ROMANS
 41
0.9
 72
1
 11
27500.00000000023
 21
3749.999999999884
 31
0.0
100
AcDbText
 73
2
  0
TEXT
  5
2A7
330
17
100
AcDbEntity
  8
3G
100
AcDbText
 10
12345.00000000023
 20
3974.999999999884
 30
0.0
 40
300.0
  1
H50
  7
ROMANS
 41
0.9
 72
1
 11
12750.00000000023
 21
4124.999999999883
 31
0.0
100
AcDbText
 73
2
  0
TEXT
  5
2A8
330
17
100
AcDbEntity
  8
3G
100
AcDbText
 10
12383.57142857166
 20
3224.999999999884
 30
0.0
 40
300.0
  1
H21
  7
ROMANS
 41
0.9
 72
1
 11
12750.00000000023
 21
3374.999999999884
 31
0.0
100
AcDbText
 73
2
  0
TEXT
  5
2A9
330
17
100
AcDbEntity
  8
3G
100
AcDbText
 10
16851.4285714288
 20
3974.999999999884
 30
0.0
 40
300.0
  1
K50
  7
ROMANS
 41
0.9
 72
1
 11
17250.00000000023
 21
4124.999999999883
 31
0.0
100
AcDbText
 73
2
  0
TEXT
  5
2AA
330
17
100
AcDbEntity
  8
3G
100
AcDbText
 10
16890.00000000023
 20
3224.999999999884
 30
0.0
 40
300.0
  1
K21
  7
ROMANS
 41
0.9
 72
1
 11
17250.00000000023
 21
3374.999999999884
 31
0.0
100
AcDbText
 73
2
  0
TEXT
  5
2AB
330
17
100
AcDbEntity
  8
3G
100
AcDbText
 10
33026.42857139749
 20
3599.999999999884
 30
0.0
 40
300.0
  1
P50
  7
ROMANS
 41
0.9
 72
1
 11
33424.99999996892
 21
3749.999999999884
 31
0.0
100
AcDbText
 73
2
  0
TEXT
  5
2AC
330
17
100
AcDbEntity
  8
3G
100
AcDbText
 10
2601.428571428688
 20
3599.999999999884
 30
0.0
 40
300.0
  1
B50
  7
ROMANS
 41
0.9
 72
1
 11
3000.000000000117
 21
3749.999999999884
 31
0.0
100
AcDbText
 73
2
  0
TEXT
  5
2AD
330
17
100
AcDbEntity
  8
3G
100
AcDbText
 10
5107.857142857376
 20
3599.999999999884
 30
0.0
 40
300.0
  1
C50
  7
ROMANS
 41
0.9
 72
1
 11
5500.000000000233
 21
3749.999999999884
 31
0.0
100
AcDbText
 73
2
  0
TEXT
  5
2AE
330
17
100
AcDbEntity
  8
3G
100
AcDbText
 10
7101.428571428805
 20
3599.999999999884
 30
0.0
 40
300.0
  1
D50
  7
ROMANS
 41
0.9
 72
1
 11
7500.000000000233
 21
3749.999999999884
 31
0.0
100
AcDbText
 73
2
  0
TEXT
  5
2AF
330
17
100
AcDbEntity
  8
3G
100
AcDbText
 10
8739.285714285947
 20
3599.999999999884
 30
0.0
 40
300.0
  1
E50
  7
ROMANS
 41
0.9
 72
1
 11
9125.000000000233
 21
3749.999999999884
 31
0.0
100
AcDbText
 73
2
  0
TEXT
  5
2B0
330
17
100
AcDbEntity
  8
3G
100
AcDbText
 10
21595.00000000023
 20
3599.999999999884
 30
0.0
 40
300.0
  1
N50
  7
ROMANS
 41
0.9
 72
1
 11
22000.00000000023
 21
3749.999999999884
 31
0.0
100
AcDbText
 73
2
  0
TEXT
  5
2B1
330
17
100
AcDbEntity
  8
3G
100
AcDbText
 10
19832.14285714309
 20
3599.999999999884
 30
0.0
 40
300.0
  1
M50
  7
ROMANS
 41
0.9
 72
1
 11
20250.00000000023
 21
3749.999999999884
 31
0.0
100
AcDbText
 73
2
  0
TEXT
  5
2B2
330
17
100
AcDbEntity
  8
3G
100
AcDbText
 10
18377.14285714309
 20
3599.999999999884
 30
0.0
 40
300.0
  1
L50
  7
ROMANS
 41
0.9
 72
1
 11
18750.00000000023
 21
3749.999999999884
 31
0.0
100
AcDbText
 73
2
  0
TEXT
  5
2B3
330
17
100
AcDbEntity
  8
3G
100
AcDbText
 10
10857.85714285737
 20
2474.999999999767
 30
0.0
 40
300.0
  1
G52
  7
ROMANS
 41
0.9
 72
1
 11
11250.00000000023
 21
2624.999999999767
 31
0.0
100
AcDbText
 73
2
  0
TEXT
  5
2B4
330
17
100
AcDbEntity
  8
3G
100
AcDbText
 10
13935.00000000023
 20
2474.999999999767
 30
0.0
 40
300.0
  1
I52
  7
ROMANS
 41
0.9
 72
1
 11
14250.00000000023
 21
2624.999999999767
 31
0.0
100
AcDbText
 73
2
  0
TEXT
  5
2B5
330
17
100
AcDbEntity
  8
3G
100
AcDbText
 10
13935.00000000023
 20
1724.999999999767
 30
0.0
 40
300.0
  1
I53
  7
ROMANS
 41
0.9
 72
1
 11
14250.00000000023
 21
1874.999999999767
 31
0.0
100
AcDbText
 73
2
  0
TEXT
  5
2B6
330
17
100
AcDbEntity
  8
3G
100
AcDbText
 10
15396.4285714288
 20
2474.999999999767
 30
0.0
 40
300.0
  1
J52
  7
ROMANS
 41
0.9
 72
1
 11
15750.00000000023
 21
2624.999999999767
 31
0.0
100
AcDbText
 73
2
  0
TEXT
  5
2B7
330
17
100
AcDbEntity
  8
3G
100
AcDbText
 10
15396.4285714288
 20
1724.999999999767
 30
0.0
 40
300.0
  1
J53
  7
ROMANS
 41
0.9
 72
1
 11
15750.00000000023
 21
1874.999999999767
 31
0.0
100
AcDbText
 73
2
  0
TEXT
  5
2B8
330
17
100
AcDbEntity
  8
3G
100
AcDbText
 10
10857.85714285737
 20
1724.999999999767
 30
0.0
 40
300.0
  1
G53
  7
ROMANS
 41
0.9
 72
1
 11
11250.00000000023
 21
1874.999999999767
 31
0.0
100
AcDbText
 73
2
  0
TEXT
  5
2B9
330
17
100
AcDbEntity
  8
3G
100
AcDbText
 10
27101.4285714288
 20
2099.999999999767
 30
0.0
 40
300.0
  1
O52
  7
ROMANS
 41
0.9
 72
1
 11
27500.00000000023
 21
2249.999999999767
 31
0.0
100
AcDbText
 73
2
  0
TEXT
  5
2BA
330
17
100
AcDbEntity
  8
3G
100
AcDbText
 10
12345.00000000023
 20
2474.999999999767
 30
0.0
 40
300.0
  1
H52
  7
ROMANS
 41
0.9
 72
1
 11
12750.00000000023
 21
2624.999999999767
 31
0.0
100
AcDbText
 73
2
  0
TEXT
  5
2BB
330
17
100
AcDbEntity
  8
3G
100
AcDbText
 10
12345.00000000023
 20
1724.999999999767
 30
0.0
 40
300.0
  1
H53
  7
ROMANS
 41
0.9
 72
1
 11
12750.00000000023
 21
1874.999999999767
 31
0.0
100
AcDbText
 73
2
  0
TEXT
  5
2BC
330
17
100
AcDbEntity
  8
3G
100
AcDbText
 10
16851.4285714288
 20
2474.999999999767
 30
0.0
 40
300.0
  1
K52
  7
ROMANS
 41
0.9
 72
1
 11
17250.00000000023
 21
2624.999999999767
 31
0.0
100
AcDbText
 73
2
  0
TEXT
  5
2BD
330
17
100
AcDbEntity
  8
3G
100
AcDbText
 10
16851.4285714288
 20
1724.999999999767
 30
0.0
 40
300.0
  1
K53
  7
ROMANS
 41
0.9
 72
1
 11
17250.00000000023
 21
1874.999999999767
 31
0.0
100
AcDbText
 73
2
  0
TEXT
  5
2BE
330
17
100
AcDbEntity
  8
3G
100
AcDbText
 10
33026.42857139749
 20
2099.999999999767
 30
0.0
 40
300.0
  1
P52
  7
ROMANS
 41
0.9
 72
1
 11
33424.99999996892
 21
2249.999999999767
 31
0.0
100
AcDbText
 73
2
  0
TEXT
  5
2BF
330
17
100
AcDbEntity
  8
3G
100
AcDbText
 10
2601.428571428688
 20
2099.999999999767
 30
0.0
 40
300.0
  1
B52
  7
ROMANS
 41
0.9
 72
1
 11
3000.000000000117
 21
2249.999999999767
 31
0.0
100
AcDbText
 73
2
  0
TEXT
  5
2C0
330
17
100
AcDbEntity
  8
3G
100
AcDbText
 10
5107.857142857376
 20
2099.999999999767
 30
0.0
 40
300.0
  1
C52
  7
ROMANS
 41
0.9
 72
1
 11
5500.000000000233
 21
2249.999999999767
 31
0.0
100
AcDbText
 73
2
  0
TEXT
  5
2C1
330
17
100
AcDbEntity
  8
3G
100
AcDbText
 10
7101.428571428805
 20
2099.999999999767
 30
0.0
 40
300.0
  1
D52
  7
ROMANS
 41
0.9
 72
1
 11
7500.000000000233
 21
2249.999999999767
 31
0.0
100
AcDbText
 73
2
  0
TEXT
  5
2C2
330
17
100
AcDbEntity
  8
3G
100
AcDbText
 10
8739.285714285947
 20
2099.999999999767
 30
0.0
 40
300.0
  1
E52
  7
ROMANS
 41
0.9
 72
1
 11
9125.000000000233
 21
2249.999999999767
 31
0.0
100
AcDbText
 73
2
  0
TEXT
  5
2C3
330
17
100
AcDbEntity
  8
3G
100
AcDbText
 10
21595.00000000023
 20
2099.999999999767
 30
0.0
 40
300.0
  1
N52
  7
ROMANS
 41
0.9
 72
1
 11
22000.00000000023
 21
2249.999999999767
 31
0.0
100
AcDbText
 73
2
  0
TEXT
  5
2C4
330
17
100
AcDbEntity
  8
3G
100
AcDbText
 10
19832.14285714309
 20
2099.999999999767
 30
0.0
 40
300.0
  1
M52
  7
ROMANS
 41
0.9
 72
1
 11
20250.00000000023
 21
2249.999999999767
 31
0.0
100
AcDbText
 73
2
  0
TEXT
  5
2C5
330
17
100
AcDbEntity
  8
3G
100
AcDbText
 10
18377.14285714309
 20
2099.999999999767
 30
0.0
 40
300.0
  1
L52
  7
ROMANS
 41
0.9
 72
1
 11
18750.00000000023
 21
2249.999999999767
 31
0.0
100
AcDbText
 73
2
  0
TEXT
  5
2C6
330
17
100
AcDbEntity
  8
3G
100
AcDbText
 10
10851.4285714288
 20
974.999999999767
 30
0.0
 40
300.0
  1
G54
  7
ROMANS
 41
0.9
 72
1
 11
11250.00000000023
 21
1124.999999999767
 31
0.0
100
AcDbText
 73
2
  0
TEXT
  5
2C7
330
17
100
AcDbEntity
  8
3G
100
AcDbText
 10
13928.57142857166
 20
974.999999999767
 30
0.0
 40
300.0
  1
I54
  7
ROMANS
 41
0.9
 72
1
 11
14250.00000000023
 21
1124.999999999767
 31
0.0
100
AcDbText
 73
2
  0
TEXT
  5
2C8
330
17
100
AcDbEntity
  8
3G
100
AcDbText
 10
13935.00000000023
 20
224.9999999997672
 30
0.0
 40
300.0
  1
I55
  7
ROMANS
 41
0.9
 72
1
 11
14250.00000000023
 21
374.9999999997672
 31
0.0
100
AcDbText
 73
2
  0
TEXT
  5
2C9
330
17
100
AcDbEntity
  8
3G
100
AcDbText
 10
15390.00000000023
 20
974.999999999767
 30
0.0
 40
300.0
  1
J54
  7
ROMANS
 41
0.9
 72
1
 11
15750.00000000023
 21
1124.999999999767
 31
0.0
100
AcDbText
 73
2
  0
TEXT
  5
2CA
330
17
100
AcDbEntity
  8
3G
100
AcDbText
 10
15396.4285714288
 20
224.9999999997672
 30
0.0
 40
300.0
  1
J55
  7
ROMANS
 41
0.9
 72
1
 11
15750.00000000023
 21
374.9999999997672
 31
0.0
100
AcDbText
 73
2
  0
TEXT
  5
2CB
330
17
100
AcDbEntity
  8
3G
100
AcDbText
 10
10857.85714285737
 20
224.9999999997672
 30
0.0
 40
300.0
  1
G55
  7
ROMANS
 41
0.9
 72
1
 11
11250.00000000023
 21
374.9999999997672
 31
0.0
100
AcDbText
 73
2
  0
TEXT
  5
2CC
330
17
100
AcDbEntity
  8
3G
100
AcDbText
 10
27095.00000000023
 20
599.9999999997672
 30
0.0
 40
300.0
  1
O54
  7
ROMANS
 41
0.9
 72
1
 11
27500.00000000023
 21
749.9999999997672
 31
0.0
100
AcDbText
 73
2
  0
TEXT
  5
2CD
330
17
100
AcDbEntity
  8
3G
100
AcDbText
 10
12338.57142857166
 20
974.999999999767
 30
0.0
 40
300.0
  1
H54
  7
ROMANS
 41
0.9
 72
1
 11
12750.00000000023
 21
1124.999999999767
 31
0.0
100
AcDbText
 73
2
  0
TEXT
  5
2CE
330
17
100
AcDbEntity
  8
3G
100
AcDbText
 10
12345.00000000023
 20
224.9999999997672
 30
0.0
 40
300.0
  1
H55
  7
ROMANS
 41
0.9
 72
1
 11
12750.00000000023
 21
374.9999999997672
 31
0.0
100
AcDbText
 73
2
  0
TEXT
  5
2CF
330
17
100
AcDbEntity
  8
3G
100
AcDbText
 10
16845.00000000023
 20
974.999999999767
 30
0.0
 40
300.0
  1
K54
  7
ROMANS
 41
0.9
 72
1
 11
17250.00000000023
 21
1124.999999999767
 31
0.0
100
AcDbText
 73
2
  0
TEXT
  5
2D0
330
17
100
AcDbEntity
  8
3G
100
AcDbText
 10
16851.4285714288
 20
224.9999999997672
 30
0.0
 40
300.0
  1
K55
  7
ROMANS
 41
0.9
 72
1
 11
17250.00000000023
 21
374.9999999997672
 31
0.0
100
AcDbText
 73
2
  0
TEXT
  5
2D1
330
17
100
AcDbEntity
  8
3G
100
AcDbText
 10
33019.99999996892
 20
599.9999999997672
 30
0.0
 40
300.0
  1
P54
  7
ROMANS
 41
0.9
 72
1
 11
33424.99999996892
 21
749.9999999997672
 31
0.0
100
AcDbText
 73
2
  0
TEXT
  5
2D2
330
17
100
AcDbEntity
  8
3G
100
AcDbText
 10
2595.000000000116
 20
599.9999999997672
 30
0.0
 40
300.0
  1
B54
  7
ROMANS
 41
0.9
 72
1
 11
3000.000000000117
 21
749.9999999997672
 31
0.0
100
AcDbText
 73
2
  0
TEXT
  5
2D3
330
17
100
AcDbEntity
  8
3G
100
AcDbText
 10
5101.428571428805
 20
599.9999999997672
 30
0.0
 40
300.0
  1
C54
  7
ROMANS
 41
0.9
 72
1
 11
5500.000000000233
 21
749.9999999997672
 31
0.0
100
AcDbText
 73
2
  0
TEXT
  5
2D4
330
17
100
AcDbEntity
  8
3G
100
AcDbText
 10
7095.000000000233
 20
599.9999999997672
 30
0.0
 40
300.0
  1
D54
  7
ROMANS
 41
0.9
 72
1
 11
7500.000000000233
 21
749.9999999997672
 31
0.0
100
AcDbText
 73
2
  0
TEXT
  5
2D5
330
17
100
AcDbEntity
  8
3G
100
AcDbText
 10
8732.857142857376
 20
599.9999999997672
 30
0.0
 40
300.0
  1
E54
  7
ROMANS
 41
0.9
 72
1
 11
9125.000000000233
 21
749.9999999997672
 31
0.0
100
AcDbText
 73
2
  0
TEXT
  5
2D6
330
17
100
AcDbEntity
  8
3G
100
AcDbText
 10
21588.57142857166
 20
599.9999999997672
 30
0.0
 40
300.0
  1
N54
  7
ROMANS
 41
0.9
 72
1
 11
22000.00000000023
 21
749.9999999997672
 31
0.0
100
AcDbText
 73
2
  0
TEXT
  5
2D7
330
17
100
AcDbEntity
  8
3G
100
AcDbText
 10
19825.71428571452
 20
599.9999999997672
 30
0.0
 40
300.0
  1
M54
  7
ROMANS
 41
0.9
 72
1
 11
20250.00000000023
 21
749.9999999997672
 31
0.0
100
AcDbText
 73
2
  0
TEXT
  5
2D8
330
17
100
AcDbEntity
  8
3G
100
AcDbText
 10
18370.71428571452
 20
599.9999999997672
 30
0.0
 40
300.0
  1
L54
  7
ROMANS
 41
0.9
 72
1
 11
18750.00000000023
 21
749.9999999997672
 31
0.0
100
AcDbText
 73
2
  0
LINE
  5
2D9
330
17
100
AcDbEntity
  8
6M
100
AcDbLine
 10
0.0
 20
0.0
 30
0.0
 11
34849.99999993783
 21
0.0
 31
0.0
  0
LINE
  5
2DA
330
17
100
AcDbEntity
  8
6M
100
AcDbLine
 10
34849.99999993783
 20
42466.66666636383
 30
0.0
 11
0.0
 21
42466.66666636383
 31
0.0
  0
LINE
  5
2DB
330
17
100
AcDbEntity
  8
6M
100
AcDbLine
 10
0.0
 20
42466.66666636383
 30
0.0
 11
0.0
 21
0.0
 31
0.0
  0
LINE
  5
2DC
330
17
100
AcDbEntity
  8
6M
100
AcDbLine
 10
34849.99999993783
 20
0.0
 30
0.0
 11
34849.99999993783
 21
42466.66666636383
 31
0.0
  0
LINE
  5
2DD
330
17
100
AcDbEntity
  8
6M
100
AcDbLine
 10
0.0
 20
39000.0
 30
0.0
 11
34849.99999993783
 21
39000.0
 31
0.0
  0
LINE
  5
2DE
330
17
100
AcDbEntity
  8
6M
100
AcDbLine
 10
0.0
 20
41000.0
 30
0.0
 11
34849.99999993783
 21
41000.0
 31
0.0
  0
LINE
  5
2DF
330
17
100
AcDbEntity
  8
5B
100
AcDbLine
 10
1500.0
 20
37500.0
 30
0.0
 11
34849.99999993783
 21
37500.0
 31
0.0
  0
LINE
  5
2E0
330
17
100
AcDbEntity
  8
5B
100
AcDbLine
 10
1500.0
 20
36000.0
 30
0.0
 11
34849.99999993783
 21
36000.0
 31
0.0
  0
LINE
  5
2E1
330
17
100
AcDbEntity
  8
5B
100
AcDbLine
 10
1500.0
 20
34500.0
 30
0.0
 11
34849.99999993783
 21
34500.0
 31
0.0
  0
LINE
  5
2E2
330
17
100
AcDbEntity
  8
5B
100
AcDbLine
 10
1500.0
 20
33000.0
 30
0.0
 11
34849.99999993783
 21
33000.0
 31
0.0
  0
LINE
  5
2E3
330
17
100
AcDbEntity
  8
5B
100
AcDbLine
 10
1500.0
 20
31499.99999999994
 30
0.0
 11
34849.99999993783
 21
31500.0
 31
0.0
  0
LINE
  5
2E4
330
17
100
AcDbEntity
  8
5B
100
AcDbLine
 10
1500.0
 20
30000.0
 30
0.0
 11
34849.99999993783
 21
30000.0
 31
0.0
  0
LINE
  5
2E5
330
17
100
AcDbEntity
  8
5B
100
AcDbLine
 10
1500.0
 20
28500.0
 30
0.0
 11
34849.99999993783
 21
28500.0
 31
0.0
  0
LINE
  5
2E6
330
17
100
AcDbEntity
  8
5B
100
AcDbLine
 10
1500.0
 20
27000.0
 30
0.0
 11
34849.99999993783
 21
27000.0
 31
0.0
  0
LINE
  5
2E7
330
17
100
AcDbEntity
  8
5B
100
AcDbLine
 10
1500.0
 20
25499.99999999988
 30
0.0
 11
34849.99999993783
 21
25499.99999999988
 31
0.0
  0
LINE
  5
2E8
330
17
100
AcDbEntity
  8
5B
100
AcDbLine
 10
1500.0
 20
23999.99999999988
 30
0.0
 11
34849.99999993783
 21
23999.99999999988
 31
0.0
  0
LINE
  5
2E9
330
17
100
AcDbEntity
  8
5B
100
AcDbLine
 10
1500.0
 20
22499.99999999988
 30
0.0
 11
34849.99999993783
 21
22499.99999999988
 31
0.0
  0
LINE
  5
2EA
330
17
100
AcDbEntity
  8
6M
100
AcDbLine
 10
1500.0
 20
41000.0
 30
0.0
 11
1500.0
 21
0.0
 31
0.0
  0
LINE
  5
2EB
330
17
100
AcDbEntity
  8
2Y
100
AcDbLine
 10
4500.0
 20
41000.0
 30
0.0
 11
4500.0
 21
0.0
 31
0.0
  0
LINE
  5
2EC
330
17
100
AcDbEntity
  8
2Y
100
AcDbLine
 10
6500.0
 20
40000.0
 30
0.0
 11
6500.0
 21
0.0
 31
0.0
  0
LINE
  5
2ED
330
17
100
AcDbEntity
  8
2Y
100
AcDbLine
 10
8500.0
 20
41000.0
 30
0.0
 11
8500.0
 21
0.0
 31
0.0
  0
LINE
  5
2EE
330
17
100
AcDbEntity
  8
2Y
100
AcDbLine
 10
10500.0
 20
41000.0
 30
0.0
 11
10500.0
 21
0.0
 31
0.0
  0
LINE
  5
2EF
330
17
100
AcDbEntity
  8
2Y
100
AcDbLine
 10
18000.0
 20
41000.0
 30
0.0
 11
18000.0
 21
0.0
 31
0.0
  0
LINE
  5
2F0
330
17
100
AcDbEntity
  8
2Y
100
AcDbLine
 10
12000.0
 20
40000.0
 30
0.0
 11
12000.0
 21
0.0
 31
0.0
  0
LINE
  5
2F1
330
17
100
AcDbEntity
  8
2Y
100
AcDbLine
 10
13500.0
 20
40000.0
 30
0.0
 11
13500.0
 21
0.0
 31
0.0
  0
LINE
  5
2F2
330
17
100
AcDbEntity
  8
2Y
100
AcDbLine
 10
15000.0
 20
40000.0
 30
0.0
 11
15000.0
 21
0.0
 31
0.0
  0
LINE
  5
2F3
330
17
100
AcDbEntity
  8
2Y
100
AcDbLine
 10
16500.0
 20
40000.0
 30
0.0
 11
16500.0
 21
0.0
 31
0.0
  0
LINE
  5
2F4
330
17
100
AcDbEntity
  8
2Y
100
AcDbLine
 10
19500.0
 20
41000.0
 30
0.0
 11
19500.0
 21
0.0
 31
0.0
  0
LINE
  5
2F5
330
17
100
AcDbEntity
  8
2Y
100
AcDbLine
 10
21000.0
 20
41000.0
 30
0.0
 11
21000.0
 21
0.0
 31
0.0
  0
LINE
  5
2F6
330
17
100
AcDbEntity
  8
2Y
100
AcDbLine
 10
23000.0
 20
41000.0
 30
0.0
 11
23000.0
 21
0.0
 31
0.0
  0
LINE
  5
2F7
330
17
100
AcDbEntity
  8
2Y
100
AcDbLine
 10
9750.0
 20
39000.0
 30
0.0
 11
9750.0
 21
0.0
 31
0.0
  0
LINE
  5
2F8
330
17
100
AcDbEntity
  8
2Y
100
AcDbLine
 10
8500.0
 20
40000.0
 30
0.0
 11
4500.0
 21
40000.0
 31
0.0
  0
LINE
  5
2F9
330
17
100
AcDbEntity
  8
2Y
100
AcDbLine
 10
18000.0
 20
40000.0
 30
0.0
 11
10500.0
 21
40000.0
 31
0.0
  0
LINE
  5
2FA
330
17
100
AcDbEntity
  8
2Y
100
AcDbLine
 10
32000.0
 20
41000.0
 30
0.0
 11
32000.0
 21
0.0
 31
0.0
  0
LINE
  5
2FB
330
17
100
AcDbEntity
  8
5B
100
AcDbLine
 10
1500.0
 20
19499.99999999988
 30
0.0
 11
34849.99999993783
 21
19499.99999999988
 31
0.0
  0
LINE
  5
2FC
330
17
100
AcDbEntity
  8
5B
100
AcDbLine
 10
1500.0
 20
20999.99999999988
 30
0.0
 11
34849.99999993783
 21
20999.99999999988
 31
0.0
  0
LINE
  5
2FD
330
17
100
AcDbEntity
  8
5B
100
AcDbLine
 10
1500.0
 20
22499.99999999988
 30
0.0
 11
34849.99999993783
 21
22499.99999999988
 31
0.0
  0
LINE
  5
2FE
330
17
100
AcDbEntity
  8
SHE
100
AcDbLine
 10
18000.0
 20
2250.0
 30
0.0
 11
9750.0
 21
2250.0
 31
0.0
  0
LINE
  5
2FF
330
17
100
AcDbEntity
  8
SHE
100
AcDbLine
 10
18000.0
 20
3750.0
 30
0.0
 11
9750.0
 21
3750.0
 31
0.0
  0
LINE
  5
300
330
17
100
AcDbEntity
  8
SHE
100
AcDbLine
 10
18000.0
 20
5249.999999999883
 30
0.0
 11
9750.0
 21
5249.999999999883
 31
0.0
  0
LINE
  5
301
330
17
100
AcDbEntity
  8
SHE
100
AcDbLine
 10
18000.0
 20
6749.999999999883
 30
0.0
 11
9750.0
 21
6749.999999999883
 31
0.0
  0
LINE
  5
302
330
17
100
AcDbEntity
  8
SHE
100
AcDbLine
 10
18000.0
 20
8249.999999999884
 30
0.0
 11
9750.0
 21
8249.999999999884
 31
0.0
  0
LINE
  5
303
330
17
100
AcDbEntity
  8
SHE
100
AcDbLine
 10
18000.0
 20
9749.999999999884
 30
0.0
 11
9750.0
 21
9749.999999999884
 31
0.0
  0
LINE
  5
304
330
17
100
AcDbEntity
  8
SHE
100
AcDbLine
 10
18000.0
 20
11249.99999999988
 30
0.0
 11
9750.0
 21
11249.99999999988
 31
0.0
  0
LINE
  5
305
330
17
100
AcDbEntity
  8
SHE
100
AcDbLine
 10
18000.0
 20
12749.99999999988
 30
0.0
 11
9750.0
 21
12749.99999999988
 31
0.0
  0
LINE
  5
306
330
17
100
AcDbEntity
  8
SHE
100
AcDbLine
 10
18000.0
 20
17249.99999999988
 30
0.0
 11
9750.0
 21
17249.99999999988
 31
0.0
  0
LINE
  5
307
330
17
100
AcDbEntity
  8
SHE
100
AcDbLine
 10
18000.0
 20
18749.99999999988
 30
0.0
 11
9750.0
 21
18749.99999999988
 31
0.0
  0
LINE
  5
308
330
17
100
AcDbEntity
  8
SHE
100
AcDbLine
 10
18000.0
 20
15749.99999999988
 30
0.0
 11
9750.0
 21
15749.99999999988
 31
0.0
  0
LINE
  5
309
330
17
100
AcDbEntity
  8
SHE
100
AcDbLine
 10
18000.0
 20
14249.99999999988
 30
0.0
 11
9750.0
 21
14249.99999999988
 31
0.0
  0
LINE
  5
30A
330
17
100
AcDbEntity
  8
SHE
100
AcDbLine
 10
18000.0
 20
750.0
 30
0.0
 11
9750.0
 21
750.0
 31
0.0
  0
LINE
  5
30B
330
17
100
AcDbEntity
  8
SHE
100
AcDbLine
 10
18000.0
 20
2250.0
 30
0.0
 11
9750.0
 21
2250.0
 31
0.0
  0
LINE
  5
30C
330
17
100
AcDbEntity
  8
5B
100
AcDbLine
 10
1500.0
 20
17999.99999999988
 30
0.0
 11
34849.99999993783
 21
17999.99999999988
 31
0.0
  0
LINE
  5
30D
330
17
100
AcDbEntity
  8
5B
100
AcDbLine
 10
1500.0
 20
16499.99999999982
 30
0.0
 11
34849.99999993783
 21
16499.99999999988
 31
0.0
  0
LINE
  5
30E
330
17
100
AcDbEntity
  8
5B
100
AcDbLine
 10
1500.0
 20
14999.99999999988
 30
0.0
 11
34849.99999993783
 21
14999.99999999988
 31
0.0
  0
LINE
  5
30F
330
17
100
AcDbEntity
  8
5B
100
AcDbLine
 10
1500.0
 20
13499.99999999988
 30
0.0
 11
34849.99999993783
 21
13499.99999999988
 31
0.0
  0
LINE
  5
310
330
17
100
AcDbEntity
  8
5B
100
AcDbLine
 10
1500.0
 20
11999.99999999988
 30
0.0
 11
34849.99999993783
 21
11999.99999999988
 31
0.0
  0
LINE
  5
311
330
17
100
AcDbEntity
  8
5B
100
AcDbLine
 10
1500.0
 20
10499.99999999988
 30
0.0
 11
34849.99999993783
 21
10499.99999999988
 31
0.0
  0
LINE
  5
312
330
17
100
AcDbEntity
  8
5B
100
AcDbLine
 10
1500.0
 20
8999.999999999825
 30
0.0
 11
34849.99999993783
 21
8999.999999999884
 31
0.0
  0
LINE
  5
313
330
17
100
AcDbEntity
  8
5B
100
AcDbLine
 10
1500.0
 20
7499.999999999883
 30
0.0
 11
34849.99999993783
 21
7499.999999999883
 31
0.0
  0
LINE
  5
314
330
17
100
AcDbEntity
  8
5B
100
AcDbLine
 10
1500.0
 20
5999.999999999883
 30
0.0
 11
34849.99999993783
 21
5999.999999999883
 31
0.0
  0
LINE
  5
315
330
17
100
AcDbEntity
  8
5B
100
AcDbLine
 10
1500.0
 20
4500.0
 30
0.0
 11
34849.99999993783
 21
4500.0
 31
0.0
  0
LINE
  5
316
330
17
100
AcDbEntity
  8
5B
100
AcDbLine
 10
1500.0
 20
3000.0
 30
0.0
 11
34849.99999993783
 21
3000.0
 31
0.0
  0
LINE
  5
317
330
17
100
AcDbEntity
  8
5B
100
AcDbLine
 10
1500.0
 20
1500.0
 30
0.0
 11
34849.99999993783
 21
1500.0
 31
0.0
  0
LINE
  5
318
330
17
100
AcDbEntity
  8
5B
100
AcDbLine
 10
1500.0
 20
3000.0
 30
0.0
 11
34849.99999993783
 21
3000.0
 31
0.0
  0
LINE
  5
319
330
17
100
AcDbEntity
  8
SHE
100
AcDbLine
 10
18000.0
 20
21749.99999999988
 30
0.0
 11
9750.0
 21
21749.99999999988
 31
0.0
  0
LINE
  5
31A
330
17
100
AcDbEntity
  8
SHE
100
AcDbLine
 10
18000.0
 20
23249.99999999989
 30
0.0
 11
9750.0
 21
23249.99999999989
 31
0.0
  0
LINE
  5
31B
330
17
100
AcDbEntity
  8
SHE
100
AcDbLine
 10
18000.0
 20
24749.99999999988
 30
0.0
 11
9750.0
 21
24749.99999999988
 31
0.0
  0
LINE
  5
31C
330
17
100
AcDbEntity
  8
SHE
100
AcDbLine
 10
18000.0
 20
26250.0
 30
0.0
 11
9750.0
 21
26250.0
 31
0.0
  0
LINE
  5
31D
330
17
100
AcDbEntity
  8
SHE
100
AcDbLine
 10
18000.0
 20
27750.0
 30
0.0
 11
9750.0
 21
27750.0
 31
0.0
  0
LINE
  5
31E
330
17
100
AcDbEntity
  8
SHE
100
AcDbLine
 10
18000.0
 20
29250.0
 30
0.0
 11
9750.0
 21
29250.0
 31
0.0
  0
LINE
  5
31F
330
17
100
AcDbEntity
  8
SHE
100
AcDbLine
 10
18000.0
 20
30750.0
 30
0.0
 11
9750.0
 21
30750.0
 31
0.0
  0
LINE
  5
320
330
17
100
AcDbEntity
  8
SHE
100
AcDbLine
 10
18000.0
 20
32250.0
 30
0.0
 11
9750.0
 21
32250.0
 31
0.0
  0
LINE
  5
321
330
17
100
AcDbEntity
  8
SHE
100
AcDbLine
 10
18000.0
 20
36750.0
 30
0.0
 11
9750.0
 21
36750.0
 31
0.0
  0
LINE
  5
322
330
17
100
AcDbEntity
  8
SHE
100
AcDbLine
 10
18000.0
 20
35250.0
 30
0.0
 11
9750.0
 21
35250.0
 31
0.0
  0
LINE
  5
323
330
17
100
AcDbEntity
  8
SHE
100
AcDbLine
 10
18000.0
 20
33750.0
 30
0.0
 11
9750.0
 21
33750.0
 31
0.0
  0
LINE
  5
324
330
17
100
AcDbEntity
  8
SHE
100
AcDbLine
 10
18000.0
 20
20249.99999999988
 30
0.0
 11
9750.0
 21
20249.99999999988
 31
0.0
  0
LINE
  5
325
330
17
100
AcDbEntity
  8
SHE
100
AcDbLine
 10
18000.0
 20
21749.99999999988
 30
0.0
 11
9750.0
 21
21749.99999999988
 31
0.0
  0
LINE
  5
326
330
17
100
AcDbEntity
  8
SHE
100
AcDbLine
 10
18000.0
 20
38250.0
 30
0.0
 11
9750.0
 21
38250.0
 31
0.0
  0
ENDSEC
  0
SECTION
  2
OBJECTS
  0
DICTIONARY
  5
A
330
0
100
AcDbDictionary
281
1
  3
ACAD_COLOR
350
B
  3
ACAD_GROUP
350
C
  3
ACAD_LAYOUT
350
D
  3
ACAD_MATERIAL
350
E
  3
ACAD_MLEADERSTYLE
350
F
  3
ACAD_MLINESTYLE
350
10
  3
ACAD_PLOTSETTINGS
350
11
  3
ACAD_PLOTSTYLENAME
350
12
  3
ACAD_SCALELIST
350
14
  3
ACAD_TABLESTYLE
350
15
  3
ACAD_VISUALSTYLE
350
16
  3
EZDXF_META
350
2D
  0
DICTIONARY
  5
B
330
A
100
AcDbDictionary
281
1
  0
DICTIONARY
  5
C
330
A
100
AcDbDictionary
281
1
  0
DICTIONARY
  5
D
330
A
100
AcDbDictionary
281
1
  3
Model
350
1A
  3
Layout1
350
1E
  0
DICTIONARY
  5
E
330
A
100
AcDbDictionary
281
1
  3
ByBlock
350
1F
  3
ByLayer
350
20
  3
Global
350
21
  0
DICTIONARY
  5
F
330
A
100
AcDbDictionary
281
1
  3
Standard
350
2C
  0
DICTIONARY
  5
10
330
A
100
AcDbDictionary
281
1
  3
Standard
350
22
  0
DICTIONARY
  5
11
330
A
100
AcDbDictionary
281
1
  0
ACDBDICTIONARYWDFLT
  5
12
330
A
100
AcDbDictionary
281
1
  3
Normal
350
13
100
AcDbDictionaryWithDefault
340
13
  0
ACDBPLACEHOLDER
  5
13
330
12
  0
DICTIONARY
  5
14
330
A
100
AcDbDictionary
281
1
  0
DICTIONARY
  5
15
330
A
100
AcDbDictionary
281
1
  0
DICTIONARY
  5
16
330
A
100
AcDbDictionary
281
1
  3
2dWireframe
350
5A
  3
Basic
350
5B
  3
Brighten
350
5C
  3
ColorChange
350
5D
  3
Conceptual
350
5E
  3
Dim
350
5F
  3
EdgeColorOff
350
60
  3
Facepattern
350
61
  3
Flat
350
62
  3
FlatWithEdges
350
63
  3
Gouraud
350
64
  3
GouraudWithEdges
350
65
  3
Hidden
350
66
  3
JitterOff
350
67
  3
Linepattern
350
68
  3
Modeling
350
69
  3
OverhangOff
350
6A
  3
Realistic
350
6B
  3
Shaded
350
6C
  3
Shaded with edges
350
6D
  3
Shades of Gray
350
6E
  3
Sketchy
350
6F
  3
Thicken
350
70
  3
Wireframe
350
71
  3
X-Ray
350
72
  0
LAYOUT
  5
1A
330
D
100
AcDbPlotSettings
  1

  4
A3
  6

 40
7.5
 41
20.0
 42
7.5
 43
20.0
 44
420.0
 45
297.0
 46
0.0
 47
0.0
 48
0.0
 49
0.0
140
0.0
141
0.0
142
1.0
143
1.0
 70
1024
 72
1
 73
0
 74
5
  7

 75
16
 76
0
 77
2
 78
300
147
1.0
148
0.0
149
0.0
100
AcDbLayout
  1
Model
 70
1
 71
0
 10
0.0
 20
0.0
 11
420.0
 21
297.0
 12
0.0
 22
0.0
 32
0.0
 14
1e+20
 24
1e+20
 34
1e+20
 15
-1e+20
 25
-1e+20
 35
-1e+20
146
0.0
 13
0.0
 23
0.0
 33
0.0
 16
1.0
 26
0.0
 36
0.0
 17
0.0
 27
1.0
 37
0.0
 76
1
330
17
  0
LAYOUT
  5
1E
330
D
100
AcDbPlotSettings
  1

  4
A3
  6

 40
7.5
 41
20.0
 42
7.5
 43
20.0
 44
420.0
 45
297.0
 46
0.0
 47
0.0
 48
0.0
 49
0.0
140
0.0
141
0.0
142
1.0
143
1.0
 70
0
 72
1
 73
0
 74
5
  7

 75
16
 76
0
 77
2
 78
300
147
1.0
148
0.0
149
0.0
100
AcDbLayout
  1
Layout1
 70
1
 71
1
 10
0.0
 20
0.0
 11
420.0
 21
297.0
 12
0.0
 22
0.0
 32
0.0
 14
1e+20
 24
1e+20
 34
1e+20
 15
-1e+20
 25
-1e+20
 35
-1e+20
146
0.0
 13
0.0
 23
0.0
 33
0.0
 16
1.0
 26
0.0
 36
0.0
 17
0.0
 27
1.0
 37
0.0
 76
1
330
1B
  0
MATERIAL
  5
1F
102
{ACAD_REACTORS
330
E
102
}
330
E
100
AcDbMaterial
  1
ByBlock
  2

 70
0
 40
1.0
 71
1
 41
1.0
 91
-1023410177
 42
1.0
 72
1
  3

 73
1
 74
1
 75
1
 44
0.5
 73
0
 45
1.0
 46
1.0
 77
1
  4

 78
1
 79
1
170
1
 48
1.0
171
1
  6

172
1
173
1
174
1
140
1.0
141
1.0
175
1
  7

176
1
177
1
178
1
143
1.0
179
1
  8

270
1
271
1
272
1
145
1.0
146
1.0
273
1
  9

274
1
275
1
276
1
 42
1.0
 72
1
  3

 73
1
 74
1
 75
1
 94
63
  0
MATERIAL
  5
20
102
{ACAD_REACTORS
330
E
102
}
330
E
100
AcDbMaterial
  1
ByLayer
  2

 70
0
 40
1.0
 71
1
 41
1.0
 91
-1023410177
 42
1.0
 72
1
  3

 73
1
 74
1
 75
1
 44
0.5
 73
0
 45
1.0
 46
1.0
 77
1
  4

 78
1
 79
1
170
1
 48
1.0
171
1
  6

172
1
173
1
174
1
140
1.0
141
1.0
175
1
  7

176
1
177
1
178
1
143
1.0
179
1
  8

270
1
271
1
272
1
145
1.0
146
1.0
273
1
  9

274
1
275
1
276
1
 42
1.0
 72
1
  3

 73
1
 74
1
 75
1
 94
63
  0
MATERIAL
  5
21
102
{ACAD_REACTORS
330
E
102
}
330
E
100
AcDbMaterial
  1
Global
  2

 70
0
 40
1.0
 71
1
 41
1.0
 91
-1023410177
 42
1.0
 72
1
  3

 73
1
 74
1
 75
1
 44
0.5
 73
0
 45
1.0
 46
1.0
 77
1
  4

 78
1
 79
1
170
1
 48
1.0
171
1
  6

172
1
173
1
174
1
140
1.0
141
1.0
175
1
  7

176
1
177
1
178
1
143
1.0
179
1
  8

270
1
271
1
272
1
145
1.0
146
1.0
273
1
  9

274
1
275
1
276
1
 42
1.0
 72
1
  3

 73
1
 74
1
 75
1
 94
63
  0
MLINESTYLE
  5
22
102
{ACAD_REACTORS
330
10
102
}
330
10
100
AcDbMlineStyle
  2
Standard
 70
0
  3

 62
256
 51
90.0
 52
90.0
 71
2
 49
0.5
 62
256
  6
BYLAYER
 49
-0.5
 62
256
  6
BYLAYER
  0
MLEADERSTYLE
  5
2C
102
{ACAD_REACTORS
330
F
102
}
330
F
100
AcDbMLeaderStyle
179
2
170
2
171
1
172
0
 90
2
 40
0.0
 41
0.0
173
1
 91
-1056964608
 92
-2
290
1
 42
2.0
291
1
 43
8.0
  3
Standard
 44
4.0
300

342
29
174
1
175
1
176
0
178
1
 93
-1056964608
 45
4.0
292
0
297
0
 46
4.0
 94
-1056964608
 47
1.0
 49
1.0
140
1.0
294
1
141
0.0
177
0
142
1.0
295
0
296
0
143
3.75
271
0
272
9
273
9
  0
DICTIONARY
  5
2D
330
A
100
AcDbDictionary
280
1
281
1
  3
CREATED_BY_EZDXF
350
2E
  3
WRITTEN_BY_EZDXF
350
329
  0
DICTIONARYVAR
  5
2E
330
2D
100
DictionaryVariables
280
0
  1
1.4.3 @ 2026-02-17T05:45:40.383742+00:00
  0
VISUALSTYLE
  5
5A
102
{ACAD_REACTORS
330
16
102
}
330
16
100
AcDbVisualStyle
  2
2dWireframe
 70
4
177
3
291
0
 70
58
 90
2
176
1
 90
2
176
1
 90
0
176
1
 90
0
176
1
 40
0.6
176
1
 40
30.0
176
1
 62
7
420
16777215
176
1
 90
1
176
1
 90
4
176
1
 62
7
176
1
 62
257
176
1
 90
1
176
1
 90
1
176
1
 40
1.0
176
1
 90
8
176
1
 62
7
176
1
 40
1.0
176
1
 90
1
176
1
 90
6
176
1
 90
2
176
1
 62
7
176
1
 90
5
176
1
 90
0
176
1
 90
0
176
1
290
0
176
1
 90
1
176
1
 40
0.0
176
1
 90
0
176
1
290
1
176
1
290
1
176
1
290
0
176
1
290
0
176
1
290
0
176
1
290
0
176
1
290
0
176
1
290
0
176
1
290
0
176
1
 90
50
176
1
 40
0.0
176
1
 40
1.0
176
1
 90
0
176
1
 62
18
420
0
176
1
 90
50
176
1
 90
3
176
1
 62
5
420
255
176
1
290
0
176
1
 90
50
176
1
 90
50
176
1
 90
50
176
1
290
0
176
1
 90
50
176
1
 62
256
176
0
 40
1.0
176
0
 90
2
176
1
  1
strokes_ogs.tif
176
1
290
0
176
1
 40
1.0
176
1
 40
1.0
176
1
  0
VISUALSTYLE
  5
5B
102
{ACAD_REACTORS
330
16
102
}
330
16
100
AcDbVisualStyle
  2
Basic
 70
7
177
3
291
1
 70
58
 90
2
176
1
 90
2
176
1
 90
0
176
1
 90
1
176
1
 40
0.6
176
1
 40
30.0
176
1
 62
7
420
16777215
176
1
 90
1
176
1
 90
4
176
1
 62
7
176
1
 62
257
176
1
 90
1
176
1
 90
1
176
1
 40
1.0
176
1
 90
8
176
1
 62
7
176
1
 40
1.0
176
1
 90
1
176
1
 90
6
176
1
 90
2
176
1
 62
7
176
1
 90
5
176
1
 90
0
176
1
 90
0
176
1
290
0
176
1
 90
1
176
1
 40
0.0
176
1
 90
0
176
1
290
0
176
1
290
1
176
1
290
1
176
1
290
0
176
1
290
0
176
1
290
0
176
1
290
0
176
1
290
0
176
1
290
0
176
1
 90
50
176
1
 40
0.0
176
1
 40
1.0
176
1
 90
0
176
1
 62
18
420
0
176
1
 90
50
176
1
 90
3
176
1
 62
5
420
255
176
1
290
0
176
1
 90
50
176
1
 90
50
176
1
 90
50
176
1
290
0
176
1
 90
50
176
1
 62
256
176
0
 40
1.0
176
0
 90
2
176
1
  1
strokes_ogs.tif
176
1
290
0
176
1
 40
1.0
176
1
 40
1.0
176
1
  0
VISUALSTYLE
  5
5C
102
{ACAD_REACTORS
330
16
102
}
330
16
100
AcDbVisualStyle
  2
Brighten
 70
12
177
3
291
1
 70
58
 90
2
176
1
 90
2
176
1
 90
0
176
1
 90
2
176
1
 40
0.6
176
1
 40
30.0
176
1
 62
7
420
16777215
176
1
 90
1
176
1
 90
4
176
1
 62
7
176
1
 62
257
176
1
 90
1
176
1
 90
1
176
1
 40
1.0
176
1
 90
8
176
1
 62
7
176
1
 40
1.0
176
1
 90
1
176
1
 90
6
176
1
 90
2
176
1
 62
7
176
1
 90
5
176
1
 90
0
176
1
 90
0
176
1
290
0
176
1
 90
1
176
1
 40
0.0
176
1
 90
0
176
1
290
0
176
1
290
1
176
1
290
1
176
1
290
0
176
1
290
0
176
1
290
0
176
1
290
0
176
1
290
0
176
1
290
0
176
1
 90
50
176
1
 40
0.0
176
1
 40
1.0
176
1
 90
0
176
1
 62
18
420
0
176
1
 90
50
176
1
 90
3
176
1
 62
5
420
255
176
1
290
0
176
1
 90
50
176
1
 90
50
176
1
 90
50
176
1
290
0
176
1
 90
50
176
1
 62
256
176
0
 40
1.0
176
0
 90
2
176
1
  1
strokes_ogs.tif
176
1
290
0
176
1
 40
1.0
176
1
 40
1.0
176
1
  0
VISUALSTYLE
  5
5D
102
{ACAD_REACTORS
330
16
102
}
330
16
100
AcDbVisualStyle
  2
ColorChange
 70
16
177
3
291
1
 70
58
 90
2
176
1
 90
2
176
1
 90
0
176
1
 90
2
176
1
 40
0.6
176
1
 40
30.0
176
1
 62
7
420
16777215
176
1
 90
1
176
1
 90
4
176
1
 62
7
176
1
 62
257
176
1
 90
1
176
1
 90
1
176
1
 40
1.0
176
1
 90
8
176
1
 62
7
176
1
 40
1.0
176
1
 90
1
176
1
 90
6
176
1
 90
2
176
1
 62
7
176
1
 90
5
176
1
 90
0
176
1
 90
0
176
1
290
0
176
1
 90
1
176
1
 40
0.0
176
1
 90
0
176
1
290
0
176
1
290
1
176
1
290
1
176
1
290
0
176
1
290
0
176
1
290
0
176
1
290
0
176
1
290
0
176
1
290
0
176
1
 90
50
176
1
 40
0.0
176
1
 40
1.0
176
1
 90
0
176
1
 62
18
420
0
176
1
 90
50
176
1
 90
3
176
1
 62
5
420
255
176
1
290
0
176
1
 90
50
176
1
 90
50
176
1
 90
50
176
1
290
0
176
1
 90
50
176
1
 62
256
176
0
 40
1.0
176
0
 90
2
176
1
  1
strokes_ogs.tif
176
1
290
0
176
1
 40
1.0
176
1
 40
1.0
176
1
  0
VISUALSTYLE
  5
5E
102
{ACAD_REACTORS
330
16
102
}
330
16
100
AcDbVisualStyle
  2
Conceptual
 70
9
177
3
291
0
 70
58
 90
2
176
1
 90
2
176
1
 90
0
176
1
 90
3
176
1
 40
0.6
176
1
 40
30.0
176
1
 62
7
420
16777215
176
1
 90
1
176
1
 90
4
176
1
 62
7
176
1
 62
257
176
1
 90
1
176
1
 90
1
176
1
 40
1.0
176
1
 90
8
176
1
 62
7
176
1
 40
1.0
176
1
 90
1
176
1
 90
6
176
1
 90
2
176
1
 62
7
176
1
 90
5
176
1
 90
0
176
1
 90
0
176
1
290
0
176
1
 90
1
176
1
 40
0.0
176
1
 90
0
176
1
290
0
176
1
290
1
176
1
290
1
176
1
290
0
176
1
290
0
176
1
290
0
176
1
290
0
176
1
290
0
176
1
290
0
176
1
 90
50
176
1
 40
0.0
176
1
 40
1.0
176
1
 90
0
176
1
 62
18
420
0
176
1
 90
50
176
1
 90
3
176
1
 62
5
420
255
176
1
290
0
176
1
 90
50
176
1
 90
50
176
1
 90
50
176
1
290
0
176
1
 90
50
176
1
 62
256
176
0
 40
1.0
176
0
 90
2
176
1
  1
strokes_ogs.tif
176
1
290
0
176
1
 40
1.0
176
1
 40
1.0
176
1
  0
VISUALSTYLE
  5
5F
102
{ACAD_REACTORS
330
16
102
}
330
16
100
AcDbVisualStyle
  2
Dim
 70
11
177
3
291
1
 70
58
 90
2
176
1
 90
2
176
1
 90
0
176
1
 90
2
176
1
 40
0.6
176
1
 40
30.0
176
1
 62
7
420
16777215
176
1
 90
1
176
1
 90
4
176
1
 62
7
176
1
 62
257
176
1
 90
1
176
1
 90
1
176
1
 40
1.0
176
1
 90
8
176
1
 62
7
176
1
 40
1.0
176
1
 90
1
176
1
 90
6
176
1
 90
2
176
1
 62
7
176
1
 90
5
176
1
 90
0
176
1
 90
0
176
1
290
0
176
1
 90
1
176
1
 40
0.0
176
1
 90
0
176
1
290
0
176
1
290
1
176
1
290
1
176
1
290
0
176
1
290
0
176
1
290
0
176
1
290
0
176
1
290
0
176
1
290
0
176
1
 90
50
176
1
 40
0.0
176
1
 40
1.0
176
1
 90
0
176
1
 62
18
420
0
176
1
 90
50
176
1
 90
3
176
1
 62
5
420
255
176
1
290
0
176
1
 90
50
176
1
 90
50
176
1
 90
50
176
1
290
0
176
1
 90
50
176
1
 62
256
176
0
 40
1.0
176
0
 90
2
176
1
  1
strokes_ogs.tif
176
1
290
0
176
1
 40
1.0
176
1
 40
1.0
176
1
  0
VISUALSTYLE
  5
60
102
{ACAD_REACTORS
330
16
102
}
330
16
100
AcDbVisualStyle
  2
EdgeColorOff
 70
22
177
3
291
1
 70
58
 90
2
176
1
 90
2
176
1
 90
0
176
1
 90
2
176
1
 40
0.6
176
1
 40
30.0
176
1
 62
7
420
16777215
176
1
 90
1
176
1
 90
4
176
1
 62
7
176
1
 62
257
176
1
 90
1
176
1
 90
1
176
1
 40
1.0
176
1
 90
8
176
1
 62
7
176
1
 40
1.0
176
1
 90
1
176
1
 90
6
176
1
 90
2
176
1
 62
7
176
1
 90
5
176
1
 90
0
176
1
 90
0
176
1
290
0
176
1
 90
1
176
1
 40
0.0
176
1
 90
0
176
1
290
0
176
1
290
1
176
1
290
1
176
1
290
0
176
1
290
0
176
1
290
0
176
1
290
0
176
1
290
0
176
1
290
0
176
1
 90
50
176
1
 40
0.0
176
1
 40
1.0
176
1
 90
0
176
1
 62
18
420
0
176
1
 90
50
176
1
 90
3
176
1
 62
5
420
255
176
1
290
0
176
1
 90
50
176
1
 90
50
176
1
 90
50
176
1
290
0
176
1
 90
50
176
1
 62
256
176
0
 40
1.0
176
0
 90
2
176
1
  1
strokes_ogs.tif
176
1
290
0
176
1
 40
1.0
176
1
 40
1.0
176
1
  0
VISUALSTYLE
  5
61
102
{ACAD_REACTORS
330
16
102
}
330
16
100
AcDbVisualStyle
  2
Facepattern
 70
15
177
3
291
1
 70
58
 90
2
176
1
 90
2
176
1
 90
0
176
1
 90
2
176
1
 40
0.6
176
1
 40
30.0
176
1
 62
7
420
16777215
176
1
 90
1
176
1
 90
4
176
1
 62
7
176
1
 62
257
176
1
 90
1
176
1
 90
1
176
1
 40
1.0
176
1
 90
8
176
1
 62
7
176
1
 40
1.0
176
1
 90
1
176
1
 90
6
176
1
 90
2
176
1
 62
7
176
1
 90
5
176
1
 90
0
176
1
 90
0
176
1
290
0
176
1
 90
1
176
1
 40
0.0
176
1
 90
0
176
1
290
0
176
1
290
1
176
1
290
1
176
1
290
0
176
1
290
0
176
1
290
0
176
1
290
0
176
1
290
0
176
1
290
0
176
1
 90
50
176
1
 40
0.0
176
1
 40
1.0
176
1
 90
0
176
1
 62
18
420
0
176
1
 90
50
176
1
 90
3
176
1
 62
5
420
255
176
1
290
0
176
1
 90
50
176
1
 90
50
176
1
 90
50
176
1
290
0
176
1
 90
50
176
1
 62
256
176
0
 40
1.0
176
0
 90
2
176
1
  1
strokes_ogs.tif
176
1
290
0
176
1
 40
1.0
176
1
 40
1.0
176
1
  0
VISUALSTYLE
  5
62
102
{ACAD_REACTORS
330
16
102
}
330
16
100
AcDbVisualStyle
  2
Flat
 70
0
177
3
291
1
 70
58
 90
2
176
1
 90
2
176
1
 90
0
176
1
 90
2
176
1
 40
0.6
176
1
 40
30.0
176
1
 62
7
420
16777215
176
1
 90
1
176
1
 90
4
176
1
 62
7
176
1
 62
257
176
1
 90
1
176
1
 90
1
176
1
 40
1.0
176
1
 90
8
176
1
 62
7
176
1
 40
1.0
176
1
 90
1
176
1
 90
6
176
1
 90
2
176
1
 62
7
176
1
 90
5
176
1
 90
0
176
1
 90
0
176
1
290
0
176
1
 90
1
176
1
 40
0.0
176
1
 90
0
176
1
290
0
176
1
290
1
176
1
290
1
176
1
290
0
176
1
290
0
176
1
290
0
176
1
290
0
176
1
290
0
176
1
290
0
176
1
 90
50
176
1
 40
0.0
176
1
 40
1.0
176
1
 90
0
176
1
 62
18
420
0
176
1
 90
50
176
1
 90
3
176
1
 62
5
420
255
176
1
290
0
176
1
 90
50
176
1
 90
50
176
1
 90
50
176
1
290
0
176
1
 90
50
176
1
 62
256
176
0
 40
1.0
176
0
 90
2
176
1
  1
strokes_ogs.tif
176
1
290
0
176
1
 40
1.0
176
1
 40
1.0
176
1
  0
VISUALSTYLE
  5
63
102
{ACAD_REACTORS
330
16
102
}
330
16
100
AcDbVisualStyle
  2
FlatWithEdges
 70
1
177
3
291
1
 70
58
 90
2
176
1
 90
2
176
1
 90
0
176
1
 90
2
176
1
 40
0.6
176
1
 40
30.0
176
1
 62
7
420
16777215
176
1
 90
1
176
1
 90
4
176
1
 62
7
176
1
 62
257
176
1
 90
1
176
1
 90
1
176
1
 40
1.0
176
1
 90
8
176
1
 62
7
176
1
 40
1.0
176
1
 90
1
176
1
 90
6
176
1
 90
2
176
1
 62
7
176
1
 90
5
176
1
 90
0
176
1
 90
0
176
1
290
0
176
1
 90
1
176
1
 40
0.0
176
1
 90
0
176
1
290
0
176
1
290
1
176
1
290
1
176
1
290
0
176
1
290
0
176
1
290
0
176
1
290
0
176
1
290
0
176
1
290
0
176
1
 90
50
176
1
 40
0.0
176
1
 40
1.0
176
1
 90
0
176
1
 62
18
420
0
176
1
 90
50
176
1
 90
3
176
1
 62
5
420
255
176
1
290
0
176
1
 90
50
176
1
 90
50
176
1
 90
50
176
1
290
0
176
1
 90
50
176
1
 62
256
176
0
 40
1.0
176
0
 90
2
176
1
  1
strokes_ogs.tif
176
1
290
0
176
1
 40
1.0
176
1
 40
1.0
176
1
  0
VISUALSTYLE
  5
64
102
{ACAD_REACTORS
330
16
102
}
330
16
100
AcDbVisualStyle
  2
Gouraud
 70
2
177
3
291
1
 70
58
 90
2
176
1
 90
2
176
1
 90
0
176
1
 90
2
176
1
 40
0.6
176
1
 40
30.0
176
1
 62
7
420
16777215
176
1
 90
1
176
1
 90
4
176
1
 62
7
176
1
 62
257
176
1
 90
1
176
1
 90
1
176
1
 40
1.0
176
1
 90
8
176
1
 62
7
176
1
 40
1.0
176
1
 90
1
176
1
 90
6
176
1
 90
2
176
1
 62
7
176
1
 90
5
176
1
 90
0
176
1
 90
0
176
1
290
0
176
1
 90
1
176
1
 40
0.0
176
1
 90
0
176
1
290
0
176
1
290
1
176
1
290
1
176
1
290
0
176
1
290
0
176
1
290
0
176
1
290
0
176
1
290
0
176
1
290
0
176
1
 90
50
176
1
 40
0.0
176
1
 40
1.0
176
1
 90
0
176
1
 62
18
420
0
176
1
 90
50
176
1
 90
3
176
1
 62
5
420
255
176
1
290
0
176
1
 90
50
176
1
 90
50
176
1
 90
50
176
1
290
0
176
1
 90
50
176
1
 62
256
176
0
 40
1.0
176
0
 90
2
176
1
  1
strokes_ogs.tif
176
1
290
0
176
1
 40
1.0
176
1
 40
1.0
176
1
  0
VISUALSTYLE
  5
65
102
{ACAD_REACTORS
330
16
102
}
330
16
100
AcDbVisualStyle
  2
GouraudWithEdges
 70
3
177
3
291
1
 70
58
 90
2
176
1
 90
2
176
1
 90
0
176
1
 90
2
176
1
 40
0.6
176
1
 40
30.0
176
1
 62
7
420
16777215
176
1
 90
1
176
1
 90
4
176
1
 62
7
176
1
 62
257
176
1
 90
1
176
1
 90
1
176
1
 40
1.0
176
1
 90
8
176
1
 62
7
176
1
 40
1.0
176
1
 90
1
176
1
 90
6
176
1
 90
2
176
1
 62
7
176
1
 90
5
176
1
 90
0
176
1
 90
0
176
1
290
0
176
1
 90
1
176
1
 40
0.0
176
1
 90
0
176
1
290
0
176
1
290
1
176
1
290
1
176
1
290
0
176
1
290
0
176
1
290
0
176
1
290
0
176
1
290
0
176
1
290
0
176
1
 90
50
176
1
 40
0.0
176
1
 40
1.0
176
1
 90
0
176
1
 62
18
420
0
176
1
 90
50
176
1
 90
3
176
1
 62
5
420
255
176
1
290
0
176
1
 90
50
176
1
 90
50
176
1
 90
50
176
1
290
0
176
1
 90
50
176
1
 62
256
176
0
 40
1.0
176
0
 90
2
176
1
  1
strokes_ogs.tif
176
1
290
0
176
1
 40
1.0
176
1
 40
1.0
176
1
  0
VISUALSTYLE
  5
66
102
{ACAD_REACTORS
330
16
102
}
330
16
100
AcDbVisualStyle
  2
Hidden
 70
6
177
3
291
0
 70
58
 90
2
176
1
 90
2
176
1
 90
0
176
1
 90
1
176
1
 40
0.6
176
1
 40
30.0
176
1
 62
7
420
16777215
176
1
 90
1
176
1
 90
4
176
1
 62
7
176
1
 62
257
176
1
 90
1
176
1
 90
1
176
1
 40
1.0
176
1
 90
8
176
1
 62
7
176
1
 40
1.0
176
1
 90
1
176
1
 90
6
176
1
 90
2
176
1
 62
7
176
1
 90
5
176
1
 90
0
176
1
 90
0
176
1
290
0
176
1
 90
1
176
1
 40
0.0
176
1
 90
0
176
1
290
0
176
1
290
1
176
1
290
1
176
1
290
0
176
1
290
0
176
1
290
0
176
1
290
0
176
1
290
0
176
1
290
0
176
1
 90
50
176
1
 40
0.0
176
1
 40
1.0
176
1
 90
0
176
1
 62
18
420
0
176
1
 90
50
176
1
 90
3
176
1
 62
5
420
255
176
1
290
0
176
1
 90
50
176
1
 90
50
176
1
 90
50
176
1
290
0
176
1
 90
50
176
1
 62
256
176
0
 40
1.0
176
0
 90
2
176
1
  1
strokes_ogs.tif
176
1
290
0
176
1
 40
1.0
176
1
 40
1.0
176
1
  0
VISUALSTYLE
  5
67
102
{ACAD_REACTORS
330
16
102
}
330
16
100
AcDbVisualStyle
  2
JitterOff
 70
20
177
3
291
1
 70
58
 90
2
176
1
 90
2
176
1
 90
0
176
1
 90
2
176
1
 40
0.6
176
1
 40
30.0
176
1
 62
7
420
16777215
176
1
 90
1
176
1
 90
4
176
1
 62
7
176
1
 62
257
176
1
 90
1
176
1
 90
1
176
1
 40
1.0
176
1
 90
8
176
1
 62
7
176
1
 40
1.0
176
1
 90
1
176
1
 90
6
176
1
 90
2
176
1
 62
7
176
1
 90
5
176
1
 90
0
176
1
 90
0
176
1
290
0
176
1
 90
1
176
1
 40
0.0
176
1
 90
0
176
1
290
0
176
1
290
1
176
1
290
1
176
1
290
0
176
1
290
0
176
1
290
0
176
1
290
0
176
1
290
0
176
1
290
0
176
1
 90
50
176
1
 40
0.0
176
1
 40
1.0
176
1
 90
0
176
1
 62
18
420
0
176
1
 90
50
176
1
 90
3
176
1
 62
5
420
255
176
1
290
0
176
1
 90
50
176
1
 90
50
176
1
 90
50
176
1
290
0
176
1
 90
50
176
1
 62
256
176
0
 40
1.0
176
0
 90
2
176
1
  1
strokes_ogs.tif
176
1
290
0
176
1
 40
1.0
176
1
 40
1.0
176
1
  0
VISUALSTYLE
  5
68
102
{ACAD_REACTORS
330
16
102
}
330
16
100
AcDbVisualStyle
  2
Linepattern
 70
14
177
3
291
1
 70
58
 90
2
176
1
 90
2
176
1
 90
0
176
1
 90
2
176
1
 40
0.6
176
1
 40
30.0
176
1
 62
7
420
16777215
176
1
 90
1
176
1
 90
4
176
1
 62
7
176
1
 62
257
176
1
 90
1
176
1
 90
1
176
1
 40
1.0
176
1
 90
8
176
1
 62
7
176
1
 40
1.0
176
1
 90
1
176
1
 90
6
176
1
 90
2
176
1
 62
7
176
1
 90
5
176
1
 90
0
176
1
 90
0
176
1
290
0
176
1
 90
1
176
1
 40
0.0
176
1
 90
0
176
1
290
0
176
1
290
1
176
1
290
1
176
1
290
0
176
1
290
0
176
1
290
0
176
1
290
0
176
1
290
0
176
1
290
0
176
1
 90
50
176
1
 40
0.0
176
1
 40
1.0
176
1
 90
0
176
1
 62
18
420
0
176
1
 90
50
176
1
 90
3
176
1
 62
5
420
255
176
1
290
0
176
1
 90
50
176
1
 90
50
176
1
 90
50
176
1
290
0
176
1
 90
50
176
1
 62
256
176
0
 40
1.0
176
0
 90
2
176
1
  1
strokes_ogs.tif
176
1
290
0
176
1
 40
1.0
176
1
 40
1.0
176
1
  0
VISUALSTYLE
  5
69
102
{ACAD_REACTORS
330
16
102
}
330
16
100
AcDbVisualStyle
  2
Modeling
 70
10
177
3
291
0
 70
58
 90
2
176
1
 90
2
176
1
 90
0
176
1
 90
2
176
1
 40
0.6
176
1
 40
30.0
176
1
 62
7
420
16777215
176
1
 90
1
176
1
 90
4
176
1
 62
7
176
1
 62
257
176
1
 90
1
176
1
 90
1
176
1
 40
1.0
176
1
 90
8
176
1
 62
7
176
1
 40
1.0
176
1
 90
1
176
1
 90
6
176
1
 90
2
176
1
 62
7
176
1
 90
5
176
1
 90
0
176
1
 90
0
176
1
290
0
176
1
 90
1
176
1
 40
0.0
176
1
 90
0
176
1
290
0
176
1
290
1
176
1
290
1
176
1
290
0
176
1
290
0
176
1
290
0
176
1
290
0
176
1
290
0
176
1
290
0
176
1
 90
50
176
1
 40
0.0
176
1
 40
1.0
176
1
 90
0
176
1
 62
18
420
0
176
1
 90
50
176
1
 90
3
176
1
 62
5
420
255
176
1
290
0
176
1
 90
50
176
1
 90
50
176
1
 90
50
176
1
290
0
176
1
 90
50
176
1
 62
256
176
0
 40
1.0
176
0
 90
2
176
1
  1
strokes_ogs.tif
176
1
290
0
176
1
 40
1.0
176
1
 40
1.0
176
1
  0
VISUALSTYLE
  5
6A
102
{ACAD_REACTORS
330
16
102
}
330
16
100
AcDbVisualStyle
  2
OverhangOff
 70
21
177
3
291
1
 70
58
 90
2
176
1
 90
2
176
1
 90
0
176
1
 90
2
176
1
 40
0.6
176
1
 40
30.0
176
1
 62
7
420
16777215
176
1
 90
1
176
1
 90
4
176
1
 62
7
176
1
 62
257
176
1
 90
1
176
1
 90
1
176
1
 40
1.0
176
1
 90
8
176
1
 62
7
176
1
 40
1.0
176
1
 90
1
176
1
 90
6
176
1
 90
2
176
1
 62
7
176
1
 90
5
176
1
 90
0
176
1
 90
0
176
1
290
0
176
1
 90
1
176
1
 40
0.0
176
1
 90
0
176
1
290
0
176
1
290
1
176
1
290
1
176
1
290
0
176
1
290
0
176
1
290
0
176
1
290
0
176
1
290
0
176
1
290
0
176
1
 90
50
176
1
 40
0.0
176
1
 40
1.0
176
1
 90
0
176
1
 62
18
420
0
176
1
 90
50
176
1
 90
3
176
1
 62
5
420
255
176
1
290
0
176
1
 90
50
176
1
 90
50
176
1
 90
50
176
1
290
0
176
1
 90
50
176
1
 62
256
176
0
 40
1.0
176
0
 90
2
176
1
  1
strokes_ogs.tif
176
1
290
0
176
1
 40
1.0
176
1
 40
1.0
176
1
  0
VISUALSTYLE
  5
6B
102
{ACAD_REACTORS
330
16
102
}
330
16
100
AcDbVisualStyle
  2
Realistic
 70
8
177
3
291
0
 70
58
 90
2
176
1
 90
2
176
1
 90
0
176
1
 90
2
176
1
 40
0.6
176
1
 40
30.0
176
1
 62
7
420
16777215
176
1
 90
1
176
1
 90
4
176
1
 62
7
176
1
 62
257
176
1
 90
1
176
1
 90
1
176
1
 40
1.0
176
1
 90
8
176
1
 62
7
176
1
 40
1.0
176
1
 90
1
176
1
 90
6
176
1
 90
2
176
1
 62
7
176
1
 90
5
176
1
 90
0
176
1
 90
0
176
1
290
0
176
1
 90
1
176
1
 40
0.0
176
1
 90
0
176
1
290
0
176
1
290
1
176
1
290
1
176
1
290
0
176
1
290
0
176
1
290
0
176
1
290
0
176
1
290
0
176
1
290
0
176
1
 90
50
176
1
 40
0.0
176
1
 40
1.0
176
1
 90
0
176
1
 62
18
420
0
176
1
 90
50
176
1
 90
3
176
1
 62
5
420
255
176
1
290
0
176
1
 90
50
176
1
 90
50
176
1
 90
50
176
1
290
0
176
1
 90
50
176
1
 62
256
176
0
 40
1.0
176
0
 90
2
176
1
  1
strokes_ogs.tif
176
1
290
0
176
1
 40
1.0
176
1
 40
1.0
176
1
  0
VISUALSTYLE
  5
6C
102
{ACAD_REACTORS
330
16
102
}
330
16
100
AcDbVisualStyle
  2
Shaded
 70
27
177
3
291
0
 70
58
 90
2
176
1
 90
2
176
1
 90
0
176
1
 90
2
176
1
 40
0.6
176
1
 40
30.0
176
1
 62
7
420
16777215
176
1
 90
1
176
1
 90
4
176
1
 62
7
176
1
 62
257
176
1
 90
1
176
1
 90
1
176
1
 40
1.0
176
1
 90
8
176
1
 62
7
176
1
 40
1.0
176
1
 90
1
176
1
 90
6
176
1
 90
2
176
1
 62
7
176
1
 90
5
176
1
 90
0
176
1
 90
0
176
1
290
0
176
1
 90
1
176
1
 40
0.0
176
1
 90
0
176
1
290
0
176
1
290
1
176
1
290
1
176
1
290
0
176
1
290
0
176
1
290
0
176
1
290
0
176
1
290
0
176
1
290
0
176
1
 90
50
176
1
 40
0.0
176
1
 40
1.0
176
1
 90
0
176
1
 62
18
420
0
176
1
 90
50
176
1
 90
3
176
1
 62
5
420
255
176
1
290
0
176
1
 90
50
176
1
 90
50
176
1
 90
50
176
1
290
0
176
1
 90
50
176
1
 62
256
176
0
 40
1.0
176
0
 90
2
176
1
  1
strokes_ogs.tif
176
1
290
0
176
1
 40
1.0
176
1
 40
1.0
176
1
  0
VISUALSTYLE
  5
6D
102
{ACAD_REACTORS
330
16
102
}
330
16
100
AcDbVisualStyle
  2
Shaded with edges
 70
26
177
3
291
0
 70
58
 90
2
176
1
 90
2
176
1
 90
0
176
1
 90
2
176
1
 40
0.6
176
1
 40
30.0
176
1
 62
7
420
16777215
176
1
 90
1
176
1
 90
4
176
1
 62
7
176
1
 62
257
176
1
 90
1
176
1
 90
1
176
1
 40
1.0
176
1
 90
8
176
1
 62
7
176
1
 40
1.0
176
1
 90
1
176
1
 90
6
176
1
 90
2
176
1
 62
7
176
1
 90
5
176
1
 90
0
176
1
 90
0
176
1
290
0
176
1
 90
1
176
1
 40
0.0
176
1
 90
0
176
1
290
0
176
1
290
1
176
1
290
1
176
1
290
0
176
1
290
0
176
1
290
0
176
1
290
0
176
1
290
0
176
1
290
0
176
1
 90
50
176
1
 40
0.0
176
1
 40
1.0
176
1
 90
0
176
1
 62
18
420
0
176
1
 90
50
176
1
 90
3
176
1
 62
5
420
255
176
1
290
0
176
1
 90
50
176
1
 90
50
176
1
 90
50
176
1
290
0
176
1
 90
50
176
1
 62
256
176
0
 40
1.0
176
0
 90
2
176
1
  1
strokes_ogs.tif
176
1
290
0
176
1
 40
1.0
176
1
 40
1.0
176
1
  0
VISUALSTYLE
  5
6E
102
{ACAD_REACTORS
330
16
102
}
330
16
100
AcDbVisualStyle
  2
Shades of Gray
 70
23
177
3
291
0
 70
58
 90
2
176
1
 90
2
176
1
 90
0
176
1
 90
2
176
1
 40
0.6
176
1
 40
30.0
176
1
 62
7
420
16777215
176
1
 90
1
176
1
 90
4
176
1
 62
7
176
1
 62
257
176
1
 90
1
176
1
 90
1
176
1
 40
1.0
176
1
 90
8
176
1
 62
7
176
1
 40
1.0
176
1
 90
1
176
1
 90
6
176
1
 90
2
176
1
 62
7
176
1
 90
5
176
1
 90
0
176
1
 90
0
176
1
290
0
176
1
 90
1
176
1
 40
0.0
176
1
 90
0
176
1
290
0
176
1
290
1
176
1
290
1
176
1
290
0
176
1
290
0
176
1
290
0
176
1
290
0
176
1
290
0
176
1
290
0
176
1
 90
50
176
1
 40
0.0
176
1
 40
1.0
176
1
 90
0
176
1
 62
18
420
0
176
1
 90
50
176
1
 90
3
176
1
 62
5
420
255
176
1
290
0
176
1
 90
50
176
1
 90
50
176
1
 90
50
176
1
290
0
176
1
 90
50
176
1
 62
256
176
0
 40
1.0
176
0
 90
2
176
1
  1
strokes_ogs.tif
176
1
290
0
176
1
 40
1.0
176
1
 40
1.0
176
1
  0
VISUALSTYLE
  5
6F
102
{ACAD_REACTORS
330
16
102
}
330
16
100
AcDbVisualStyle
  2
Sketchy
 70
24
177
3
291
0
 70
58
 90
2
176
1
 90
2
176
1
 90
0
176
1
 90
1
176
1
 40
0.6
176
1
 40
30.0
176
1
 62
7
420
16777215
176
1
 90
1
176
1
 90
4
176
1
 62
7
176
1
 62
257
176
1
 90
1
176
1
 90
1
176
1
 40
1.0
176
1
 90
8
176
1
 62
7
176
1
 40
1.0
176
1
 90
1
176
1
 90
6
176
1
 90
2
176
1
 62
7
176
1
 90
5
176
1
 90
0
176
1
 90
0
176
1
290
0
176
1
 90
1
176
1
 40
0.0
176
1
 90
0
176
1
290
0
176
1
290
1
176
1
290
1
176
1
290
0
176
1
290
0
176
1
290
0
176
1
290
0
176
1
290
0
176
1
290
0
176
1
 90
50
176
1
 40
0.0
176
1
 40
1.0
176
1
 90
0
176
1
 62
18
420
0
176
1
 90
50
176
1
 90
3
176
1
 62
5
420
255
176
1
290
0
176
1
 90
50
176
1
 90
50
176
1
 90
50
176
1
290
0
176
1
 90
50
176
1
 62
256
176
0
 40
1.0
176
0
 90
2
176
1
  1
strokes_ogs.tif
176
1
290
0
176
1
 40
1.0
176
1
 40
1.0
176
1
  0
VISUALSTYLE
  5
70
102
{ACAD_REACTORS
330
16
102
}
330
16
100
AcDbVisualStyle
  2
Thicken
 70
13
177
3
291
1
 70
58
 90
2
176
1
 90
2
176
1
 90
0
176
1
 90
2
176
1
 40
0.6
176
1
 40
30.0
176
1
 62
7
420
16777215
176
1
 90
1
176
1
 90
4
176
1
 62
7
176
1
 62
257
176
1
 90
1
176
1
 90
1
176
1
 40
1.0
176
1
 90
8
176
1
 62
7
176
1
 40
1.0
176
1
 90
1
176
1
 90
6
176
1
 90
2
176
1
 62
7
176
1
 90
5
176
1
 90
0
176
1
 90
0
176
1
290
0
176
1
 90
1
176
1
 40
0.0
176
1
 90
0
176
1
290
0
176
1
290
1
176
1
290
1
176
1
290
0
176
1
290
0
176
1
290
0
176
1
290
0
176
1
290
0
176
1
290
0
176
1
 90
50
176
1
 40
0.0
176
1
 40
1.0
176
1
 90
0
176
1
 62
18
420
0
176
1
 90
50
176
1
 90
3
176
1
 62
5
420
255
176
1
290
0
176
1
 90
50
176
1
 90
50
176
1
 90
50
176
1
290
0
176
1
 90
50
176
1
 62
256
176
0
 40
1.0
176
0
 90
2
176
1
  1
strokes_ogs.tif
176
1
290
0
176
1
 40
1.0
176
1
 40
1.0
176
1
  0
VISUALSTYLE
  5
71
102
{ACAD_REACTORS
330
16
102
}
330
16
100
AcDbVisualStyle
  2
Wireframe
 70
5
177
3
291
0
 70
58
 90
2
176
1
 90
2
176
1
 90
0
176
1
 90
0
176
1
 40
0.6
176
1
 40
30.0
176
1
 62
7
420
16777215
176
1
 90
1
176
1
 90
4
176
1
 62
7
176
1
 62
257
176
1
 90
1
176
1
 90
1
176
1
 40
1.0
176
1
 90
8
176
1
 62
7
176
1
 40
1.0
176
1
 90
1
176
1
 90
6
176
1
 90
2
176
1
 62
7
176
1
 90
5
176
1
 90
0
176
1
 90
0
176
1
290
0
176
1
 90
1
176
1
 40
0.0
176
1
 90
0
176
1
290
0
176
1
290
1
176
1
290
1
176
1
290
0
176
1
290
0
176
1
290
0
176
1
290
0
176
1
290
0
176
1
290
0
176
1
 90
50
176
1
 40
0.0
176
1
 40
1.0
176
1
 90
0
176
1
 62
18
420
0
176
1
 90
50
176
1
 90
3
176
1
 62
5
420
255
176
1
290
0
176
1
 90
50
176
1
 90
50
176
1
 90
50
176
1
290
0
176
1
 90
50
176
1
 62
256
176
0
 40
1.0
176
0
 90
2
176
1
  1
strokes_ogs.tif
176
1
290
0
176
1
 40
1.0
176
1
 40
1.0
176
1
  0
VISUALSTYLE
  5
72
102
{ACAD_REACTORS
330
16
102
}
330
16
100
AcDbVisualStyle
  2
X-Ray
 70
25
177
3
291
0
 70
58
 90
2
176
1
 90
2
176
1
 90
0
176
1
 90
2
176
1
 40
0.5
176
1
 40
30.0
176
1
 62
7
420
16777215
176
1
 90
1
176
1
 90
4
176
1
 62
7
176
1
 62
257
176
1
 90
1
176
1
 90
1
176
1
 40
1.0
176
1
 90
8
176
1
 62
7
176
1
 40
1.0
176
1
 90
1
176
1
 90
6
176
1
 90
2
176
1
 62
7
176
1
 90
5
176
1
 90
0
176
1
 90
0
176
1
290
0
176
1
 90
1
176
1
 40
0.0
176
1
 90
0
176
1
290
0
176
1
290
1
176
1
290
1
176
1
290
0
176
1
290
0
176
1
290
0
176
1
290
0
176
1
290
0
176
1
290
0
176
1
 90
50
176
1
 40
0.0
176
1
 40
1.0
176
1
 90
0
176
1
 62
18
420
0
176
1
 90
50
176
1
 90
3
176
1
 62
5
420
255
176
1
290
0
176
1
 90
50
176
1
 90
50
176
1
 90
50
176
1
290
0
176
1
 90
50
176
1
 62
256
176
0
 40
1.0
176
0
 90
2
176
1
  1
strokes_ogs.tif
176
1
290
0
176
1
 40
1.0
176
1
 40
1.0
176
1
  0
DICTIONARYVAR
  5
329
330
2D
100
DictionaryVariables
280
0
  1
1.4.3 @ 2026-02-17T05:45:40.408323+00:00
  0
ENDSEC
  0
EOF
